{"glyphs":{"0":{"ha":713,"x_min":46,"x_max":719,"o":"m 522 724 q 485 856 522 856 q 422 806 461 856 q 344 683 383 757 q 278 508 306 608 q 250 319 250 408 q 294 186 250 186 q 386 278 332 186 q 481 501 440 371 q 522 724 522 631 m 601 281 q 574 225 601 281 q 465 94 547 169 q 289 18 383 18 q 120 117 194 18 q 46 333 46 217 q 86 581 46 449 q 189 813 126 714 q 330 975 251 913 q 482 1038 408 1038 q 656 960 592 1038 q 719 738 719 882 q 687 515 719 639 q 601 281 654 392 z "},"1":{"ha":419,"x_min":64,"x_max":413,"o":"m 413 900 q 388 703 413 813 q 340 510 363 594 q 301 346 318 425 q 272 217 283 267 q 244 117 260 168 q 178 18 214 18 q 105 59 146 18 q 64 133 64 100 q 94 286 64 167 q 156 599 125 406 q 188 1003 188 793 q 228 1043 188 1043 q 341 985 269 1043 q 413 900 413 926 z "},"2":{"ha":810,"x_min":11,"x_max":757,"o":"m 251 207 q 628 253 500 253 q 757 197 757 253 q 537 83 757 144 q 199 22 317 22 q 81 85 150 22 q 11 196 11 147 q 189 374 11 228 q 336 502 263 435 q 462 640 410 569 q 514 767 514 711 q 461 824 514 824 q 390 794 421 824 q 341 734 358 764 q 315 704 324 704 q 224 744 279 704 q 169 813 169 783 q 253 963 169 892 q 456 1035 338 1035 q 643 962 575 1035 q 711 776 711 889 q 581 472 711 625 q 251 207 451 319 z "},"3":{"ha":760,"x_min":-37,"x_max":731,"o":"m 213 493 l 213 499 q 228 526 213 515 q 299 588 246 549 q 398 660 351 626 q 482 742 444 694 q 519 833 519 789 q 507 850 519 850 q 376 805 461 850 q 268 760 292 760 q 193 809 244 760 q 142 882 142 858 q 207 958 142 921 q 356 1015 272 994 q 504 1035 440 1035 q 663 968 596 1035 q 731 828 731 901 q 669 676 731 754 q 515 535 607 597 q 710 358 710 492 q 612 192 710 274 q 375 64 514 111 q 113 17 236 17 q -37 82 -37 17 q 213 192 -37 118 q 384 264 306 218 q 463 358 463 310 q 435 399 463 385 q 372 418 407 414 q 235 456 267 431 q 213 493 213 469 z "},"4":{"ha":757,"x_min":65,"x_max":733,"o":"m 581 804 q 674 753 615 804 q 733 668 733 701 q 635 281 733 588 q 486 -25 536 -25 q 427 15 460 -25 q 394 82 394 54 q 401 141 394 110 q 416 199 408 172 q 440 276 424 226 q 465 357 456 326 q 269 322 365 322 q 119 375 172 322 q 65 517 65 428 q 134 711 65 581 q 286 946 203 842 q 405 1050 369 1050 q 478 1015 440 1050 q 517 951 517 981 q 387 736 517 921 q 257 518 257 551 q 263 500 257 504 q 288 496 268 496 q 424 533 335 496 q 519 572 513 571 q 538 763 538 671 q 581 804 538 804 z "},"5":{"ha":703,"x_min":-18,"x_max":800,"o":"m 546 1026 q 800 965 800 1026 q 757 919 800 939 q 633 878 706 894 q 516 851 560 861 q 447 835 472 842 q 398 778 422 829 q 374 697 374 726 q 401 636 374 668 q 467 574 428 604 q 544 510 506 543 q 638 349 638 431 q 513 117 638 222 q 269 13 389 13 q 66 77 150 13 q -18 224 -18 142 q -8 269 -18 250 q 18 289 1 289 q 61 264 35 289 q 207 186 143 186 q 345 239 271 186 q 419 344 419 292 q 326 454 419 392 q 249 511 288 481 q 184 589 211 542 q 157 703 157 636 q 224 888 157 769 q 346 1017 290 1007 q 546 1026 401 1026 z "},"6":{"ha":753,"x_min":18,"x_max":711,"o":"m 399 617 q 617 540 522 601 q 711 401 711 479 q 641 233 711 322 q 459 84 571 144 q 244 24 347 24 q 79 88 140 24 q 18 245 18 153 q 83 476 18 338 q 232 735 147 615 q 401 943 317 856 q 528 1031 486 1031 q 614 1008 569 1031 q 658 957 658 985 q 624 894 658 940 q 515 760 589 847 q 399 617 442 672 m 261 203 q 418 262 349 203 q 488 386 488 321 q 440 451 488 421 q 311 496 393 482 q 214 263 214 349 q 261 203 214 203 z "},"7":{"ha":656,"x_min":118,"x_max":694,"o":"m 464 844 l 243 825 q 163 885 208 825 q 118 976 118 944 q 417 1029 118 1029 q 606 1008 583 1029 q 666 922 638 979 q 694 815 694 864 q 665 732 694 788 q 618 647 635 676 q 570 565 601 617 q 513 469 539 513 q 443 342 488 425 q 370 206 399 260 q 311 101 342 153 q 222 0 253 0 q 159 39 190 0 q 128 122 128 78 q 188 278 128 165 q 319 500 249 390 q 513 831 513 793 q 464 844 513 844 z "},"8":{"ha":819,"x_min":97,"x_max":824,"o":"m 824 829 q 592 497 824 700 q 703 274 703 383 q 573 99 703 178 q 314 21 443 21 q 176 79 254 21 q 97 204 97 138 q 314 507 97 326 q 212 588 249 557 q 142 663 175 619 q 108 745 108 707 q 122 827 108 783 q 157 871 135 871 q 188 858 172 871 q 226 818 203 846 q 264 776 250 790 q 305 738 278 761 q 347 702 332 715 q 403 658 363 689 q 451 619 443 626 q 587 738 540 690 q 633 824 633 786 q 586 863 633 863 q 448 821 524 863 q 347 779 372 779 q 285 806 321 779 q 249 860 249 832 q 344 982 249 929 q 588 1035 439 1035 q 760 983 696 1035 q 824 829 824 932 m 508 307 q 458 388 508 340 q 303 250 328 286 q 290 224 290 235 q 308 200 290 214 q 332 186 325 186 q 446 222 383 186 q 508 307 508 258 z "},"9":{"ha":703,"x_min":92,"x_max":693,"o":"m 693 688 q 658 596 693 646 q 601 447 617 494 q 551 267 586 400 q 492 65 517 135 q 442 -4 467 -4 q 379 154 379 -4 q 415 411 379 260 q 307 388 356 388 q 167 466 242 388 q 92 606 92 544 q 146 810 92 706 q 283 981 200 914 q 451 1049 367 1049 q 581 983 536 1049 q 625 836 625 918 q 618 760 625 789 q 688 706 676 749 q 693 688 693 699 m 457 707 l 463 801 q 453 849 463 826 q 432 872 443 872 q 329 772 399 872 q 260 604 260 672 q 278 565 260 583 q 324 547 297 547 q 385 570 350 547 q 440 614 421 593 q 496 676 460 635 q 457 707 457 685 z "},"\u0000":{"ha":0,"x_min":0,"x_max":0,"o":""},"\r":{"ha":535,"x_min":0,"x_max":0,"o":""}," ":{"ha":535,"x_min":0,"x_max":0,"o":""},"!":{"ha":664,"x_min":147,"x_max":519,"o":"m 147 141 q 147 159 147 141 q 179 215 147 178 q 243 251 211 251 q 317 176 275 251 q 360 64 360 101 q 337 24 360 46 q 292 1 314 1 q 199 53 250 1 q 147 141 147 104 m 290 1103 q 333 1143 290 1143 q 448 1082 376 1143 q 519 993 519 1021 q 455 615 519 901 q 343 328 390 328 q 269 367 306 328 q 232 447 233 406 q 243 537 229 463 q 274 766 257 611 q 290 1103 290 921 z "},"\"":{"ha":672,"x_min":163,"x_max":614,"o":"m 478 1204 q 501 1225 478 1225 q 569 1191 524 1225 q 614 1143 614 1157 q 588 897 614 1060 q 521 733 561 733 q 478 755 504 733 q 453 797 453 776 q 465 945 453 800 q 478 1204 478 1090 m 188 1204 q 210 1225 188 1225 q 277 1191 232 1225 q 322 1143 322 1157 q 297 896 322 1058 q 229 733 271 733 q 188 755 213 733 q 163 797 163 776 q 175 945 163 800 q 188 1204 188 1090 z "},"#":{"ha":1083,"x_min":86,"x_max":1065,"o":"m 593 810 q 718 815 682 815 q 740 999 740 929 q 782 1039 740 1039 q 876 993 819 1039 q 933 896 933 947 q 921 818 933 872 l 929 818 q 1044 805 1028 818 q 1063 785 1060 792 q 1065 764 1065 778 q 885 682 1065 710 q 810 417 861 596 l 867 417 q 963 408 931 417 q 999 391 994 400 q 1004 363 1004 382 q 771 274 1004 303 q 699 65 732 135 q 632 -6 667 -6 q 591 30 607 -6 q 574 113 575 65 q 592 254 564 133 q 431 232 486 242 q 373 51 396 107 q 322 -6 350 -6 q 270 39 292 -6 q 247 144 249 83 q 250 206 242 154 q 147 192 160 192 q 105 228 124 190 q 86 303 86 265 q 294 386 86 357 q 351 614 335 543 q 203 593 224 593 q 163 630 182 593 q 144 704 144 667 q 390 792 144 763 q 414 999 414 924 q 456 1039 417 1039 q 551 993 494 1039 q 608 896 608 947 q 593 810 608 871 m 479 404 q 628 413 567 413 q 686 660 664 556 q 547 642 651 656 q 479 404 532 585 z "},"$":{"ha":822,"x_min":43,"x_max":742,"o":"m 292 178 q 350 428 335 354 q 181 560 242 500 q 119 674 119 619 q 133 778 119 729 q 164 851 146 828 q 306 951 206 901 q 500 1028 406 1001 q 596 1172 554 1172 q 639 1094 642 1169 q 631 1032 639 1064 q 688 956 665 1010 q 710 860 710 903 q 681 817 710 817 q 650 824 671 817 q 610 831 629 831 q 572 828 592 831 q 497 557 531 681 q 740 242 739 393 q 619 63 742 132 q 349 -19 497 -7 q 290 -122 317 -122 q 258 -102 272 -121 q 244 -71 243 -83 q 250 -17 244 -58 q 100 68 157 1 q 43 215 43 135 q 81 294 43 294 q 165 236 122 294 q 213 196 182 214 q 279 178 243 178 l 292 178 m 303 703 q 393 625 303 685 q 429 785 401 663 q 303 703 303 731 m 553 254 q 447 364 553 292 q 401 183 418 256 q 553 254 553 199 z "},"%":{"ha":1376,"x_min":115,"x_max":1253,"o":"m 1078 568 q 1176 519 1133 568 q 1235 417 1218 471 q 1253 319 1253 363 q 1167 101 1253 204 q 967 -1 1081 -1 q 852 76 899 -1 q 806 244 806 153 q 890 451 806 335 q 1078 568 974 568 m 971 250 q 1006 165 971 165 q 1059 208 1025 165 q 1093 310 1093 251 q 1081 378 1093 357 q 1064 399 1069 399 q 1004 344 1038 399 q 971 250 971 290 m 1050 1103 q 1112 1044 1079 1103 q 1135 951 1144 986 q 1099 875 1126 917 q 1035 786 1071 833 q 765 431 876 582 q 461 40 513 96 q 397 -12 410 -15 q 344 22 367 -6 q 326 74 321 49 q 367 155 332 99 q 466 303 401 211 q 583 468 531 394 q 847 829 775 731 q 693 774 775 792 q 560 765 611 756 q 564 721 564 740 q 477 501 564 604 q 276 399 390 399 q 162 476 208 399 q 115 644 115 553 q 200 851 115 735 q 389 968 285 968 q 442 957 424 968 q 472 938 460 946 q 528 913 503 919 q 667 927 581 900 q 826 994 753 954 q 1050 1103 1029 1103 m 282 650 q 317 565 282 565 q 370 609 336 565 q 404 711 404 653 q 392 780 404 760 q 374 800 379 800 q 315 745 349 800 q 282 650 282 690 z "},"&":{"ha":1092,"x_min":4,"x_max":992,"o":"m 682 218 q 853 154 771 154 q 964 145 936 154 q 992 110 992 136 q 946 38 992 64 q 817 13 900 13 q 549 133 685 13 q 206 -4 319 -4 q 72 68 140 -4 q 4 193 4 140 q 86 317 4 239 q 215 433 156 383 q 280 488 274 482 q 292 497 286 493 q 228 747 231 636 q 313 933 226 857 q 529 1008 399 1008 q 689 904 642 1008 q 713 799 713 850 q 492 460 713 665 q 556 350 515 410 q 708 454 604 382 q 917 585 894 585 q 985 510 985 585 q 898 390 985 472 q 682 218 811 308 m 518 767 q 471 840 515 840 q 433 811 447 840 q 433 626 406 757 q 518 767 518 714 m 203 163 q 426 267 257 163 q 369 349 406 293 q 210 202 225 224 q 194 172 194 181 q 203 163 194 163 z "},"'":{"ha":306,"x_min":165,"x_max":358,"o":"m 207 1204 q 230 1225 207 1225 q 306 1191 253 1225 q 358 1143 358 1157 q 340 1013 358 1114 q 289 817 321 911 q 232 733 257 722 q 190 755 215 733 q 165 797 165 776 q 186 949 165 801 q 207 1204 207 1097 z "},"(":{"ha":664,"x_min":101,"x_max":800,"o":"m 699 1233 q 720 1233 699 1233 q 771 1207 742 1233 q 800 1150 800 1181 q 763 1082 800 1119 q 669 1004 725 1044 q 547 900 613 964 q 424 765 481 836 q 331 586 368 693 q 293 374 293 479 q 329 199 293 269 q 417 86 365 128 q 522 12 469 44 q 610 -50 574 -21 q 646 -107 646 -79 q 600 -139 646 -139 q 365 -72 479 -139 q 176 117 250 -6 q 101 379 101 239 q 149 655 101 519 q 269 892 197 790 q 425 1072 342 993 q 582 1192 508 1151 q 699 1233 656 1233 z "},")":{"ha":736,"x_min":-53,"x_max":632,"o":"m 632 856 q 578 518 632 682 q 445 238 525 354 q 275 33 365 122 q 110 -101 185 -57 q 3 -146 35 -146 q -53 -112 -53 -146 q 75 44 -53 -72 q 311 333 196 158 q 401 532 365 417 q 438 745 438 647 q 415 897 438 843 q 362 981 393 951 q 299 1032 331 1010 q 244 1078 267 1054 q 222 1144 222 1103 q 252 1213 222 1186 q 336 1240 282 1240 q 540 1119 447 1240 q 632 856 632 997 z "},"*":{"ha":521,"x_min":128,"x_max":558,"o":"m 321 964 l 317 1096 q 335 1119 317 1119 q 383 1097 353 1119 q 413 1062 413 1075 q 401 1013 413 1049 q 389 969 390 976 q 455 1021 413 983 q 508 1058 497 1058 q 539 1042 519 1058 q 558 1008 558 1026 q 408 919 558 990 q 458 885 424 906 q 516 851 492 865 q 540 829 540 836 q 528 810 540 818 q 500 801 515 801 q 444 822 485 801 q 376 865 404 842 q 354 767 369 818 q 325 715 339 715 q 297 729 311 715 q 282 753 282 743 q 288 788 282 764 q 301 840 293 813 q 310 874 308 867 q 235 825 285 850 q 172 800 186 800 q 142 813 157 800 q 128 838 128 826 q 160 860 128 846 q 236 893 193 875 q 296 922 279 911 q 188 988 242 944 q 135 1049 135 1031 q 150 1067 135 1067 q 222 1055 183 1067 q 261 1026 261 1043 q 281 996 261 1017 q 321 964 301 975 z "},"+":{"ha":833,"x_min":76,"x_max":879,"o":"m 390 794 q 431 839 390 839 q 538 781 474 839 q 601 692 601 724 q 578 553 601 661 q 717 557 665 557 q 879 517 879 557 q 540 392 879 429 l 536 371 q 478 149 496 200 q 438 99 461 99 q 364 140 406 99 q 322 219 322 181 q 351 376 322 222 q 182 371 251 371 q 108 412 139 371 q 76 491 76 453 q 119 529 76 529 q 349 542 219 529 l 376 543 q 390 794 390 664 z "},",":{"ha":364,"x_min":28,"x_max":307,"o":"m 307 26 q 222 -198 307 -83 q 69 -312 138 -312 q 28 -283 28 -312 q 57 -228 28 -269 q 144 -42 144 -106 q 119 10 144 -12 q 70 49 94 32 q 46 92 46 67 q 85 157 46 117 q 172 197 125 197 q 263 143 219 197 q 307 26 307 89 z "},"-":{"ha":738,"x_min":69,"x_max":690,"o":"m 690 465 q 606 406 690 429 q 453 369 539 386 q 308 336 367 351 q 158 307 186 307 q 100 345 131 307 q 69 418 69 383 q 231 485 69 457 q 585 513 393 513 q 690 465 690 513 z "},".":{"ha":329,"x_min":46,"x_max":275,"o":"m 200 -7 q 101 47 156 -7 q 46 141 46 101 q 81 220 46 181 q 151 260 115 260 q 231 182 186 260 q 275 64 275 104 q 249 18 275 43 q 200 -7 224 -7 z "},"/":{"ha":392,"x_min":-7,"x_max":585,"o":"m 101 -111 q 32 -62 71 -111 q -7 25 -7 -14 q 73 275 -7 64 q 264 763 153 486 q 394 1096 375 1040 q 417 1160 414 1151 q 429 1183 424 1182 q 451 1190 442 1190 q 532 1124 479 1190 q 585 1013 585 1057 q 555 896 585 971 q 501 767 525 821 q 350 407 401 535 q 101 -111 136 -111 z "},":":{"ha":342,"x_min":65,"x_max":335,"o":"m 335 492 q 335 467 335 492 q 317 420 335 443 q 267 397 300 397 q 181 480 235 397 q 128 606 128 563 q 152 698 128 650 q 200 746 176 746 q 294 643 253 746 q 335 492 335 540 m 274 65 q 256 10 274 33 q 205 -14 238 -14 q 119 69 172 -14 q 65 195 65 151 q 90 287 65 239 q 138 335 114 335 q 232 232 190 335 q 274 65 274 129 z "},";":{"ha":425,"x_min":29,"x_max":374,"o":"m 308 36 q 224 -188 308 -74 q 71 -303 139 -303 q 29 -274 29 -303 q 58 -219 29 -260 q 146 -32 146 -96 q 97 40 146 11 q 47 98 47 69 q 87 167 47 126 q 174 207 126 207 q 265 153 221 207 q 308 36 308 99 m 310 397 q 219 479 272 397 q 167 606 167 561 q 190 698 167 650 q 238 746 214 746 q 308 690 275 746 q 357 574 340 635 q 374 478 374 513 q 356 421 374 444 q 310 397 338 397 z "},"<":{"ha":660,"x_min":14,"x_max":696,"o":"m 604 842 q 667 800 639 842 q 696 731 696 758 q 660 686 696 704 q 394 538 549 635 q 239 414 239 440 q 294 343 239 388 q 415 258 349 299 q 592 106 592 149 q 528 64 592 64 q 343 119 465 64 q 117 254 221 175 q 14 389 14 333 q 26 464 14 417 q 56 525 39 511 q 334 724 144 606 q 604 842 524 842 z "},"=":{"ha":933,"x_min":86,"x_max":863,"o":"m 669 435 q 818 392 818 435 q 724 314 818 350 q 467 257 629 278 q 167 236 306 236 q 114 281 142 236 q 86 354 86 325 q 334 406 86 376 q 669 435 582 435 m 578 678 q 790 666 718 678 q 863 617 863 654 q 547 524 863 553 q 225 503 331 503 q 172 547 200 503 q 144 621 144 592 q 578 678 144 678 z "},">":{"ha":856,"x_min":129,"x_max":789,"o":"m 179 807 q 211 843 179 843 q 482 758 336 843 q 731 569 628 672 q 789 474 789 511 q 735 369 789 421 q 533 225 681 318 q 315 99 386 132 q 187 65 244 65 q 129 114 129 65 q 201 208 129 149 q 358 317 272 267 q 586 482 586 453 q 478 571 586 503 q 301 661 369 639 q 225 726 271 671 q 179 807 179 781 z "},"?":{"ha":844,"x_min":246,"x_max":796,"o":"m 390 1 q 297 53 349 1 q 246 141 246 104 q 278 215 246 178 q 342 251 310 251 q 416 176 374 251 q 458 64 458 101 q 435 24 458 46 q 390 1 413 1 m 319 903 q 397 1049 319 985 q 570 1114 474 1114 q 731 1056 667 1114 q 796 896 796 997 q 761 774 796 835 q 682 674 726 714 q 521 490 553 557 q 469 382 482 404 q 419 342 447 342 q 369 474 369 342 q 394 572 369 524 q 456 658 419 621 q 528 729 492 694 q 614 872 614 813 q 597 908 614 894 q 553 921 581 921 q 505 903 525 921 q 485 853 485 886 q 464 810 485 819 q 415 793 431 793 q 359 835 399 793 q 319 903 319 878 z "},"@":{"ha":1497,"x_min":65,"x_max":1394,"o":"m 919 1065 q 1259 940 1124 1065 q 1394 606 1394 814 q 1348 406 1394 503 q 1234 244 1301 308 q 1093 140 1167 179 q 963 101 1019 101 q 833 215 861 101 q 621 86 701 86 q 493 152 563 86 q 424 282 424 218 q 479 453 424 346 q 633 649 535 560 q 828 739 731 739 q 961 675 888 739 q 1035 536 1035 611 q 1011 460 1035 503 q 1044 397 1044 426 q 1034 332 1044 368 q 1024 293 1024 296 q 1028 290 1024 290 q 1051 303 1033 290 q 1096 344 1069 317 q 1147 406 1122 371 q 1188 491 1171 440 q 1204 594 1204 542 q 1126 807 1204 733 q 921 881 1049 881 q 671 819 793 881 q 463 663 549 758 q 326 449 378 567 q 274 208 274 331 q 332 17 274 85 q 513 -51 390 -51 q 753 -22 635 -51 q 881 7 871 7 q 913 -29 913 7 q 847 -128 913 -81 q 694 -203 782 -176 q 536 -229 607 -229 q 208 -99 351 -229 q 65 217 65 32 q 219 676 65 456 q 635 1014 389 919 q 919 1065 771 1065 m 610 253 q 750 329 650 253 q 869 500 850 406 q 879 515 871 507 q 838 564 858 564 q 731 502 790 564 q 632 372 671 440 q 593 278 593 304 q 610 253 593 253 z "},"A":{"ha":875,"x_min":44,"x_max":811,"o":"m 707 539 q 787 528 763 539 q 811 490 811 518 q 690 414 811 453 q 693 212 693 308 q 678 67 693 115 q 629 19 663 19 q 577 53 596 19 q 547 165 558 88 q 522 371 535 243 q 318 319 381 339 q 174 19 210 19 q 97 58 144 19 q 49 139 49 97 q 103 286 49 163 q 62 330 79 301 q 44 385 44 358 q 182 472 44 431 q 205 535 193 500 q 265 701 217 571 q 340 919 313 832 q 427 997 353 961 q 543 1033 501 1033 q 630 899 592 1033 q 683 539 668 764 l 707 539 m 386 515 q 507 529 428 521 q 494 667 503 569 q 481 807 485 764 q 386 515 457 729 z "},"B":{"ha":867,"x_min":7,"x_max":792,"o":"m 785 361 q 690 192 785 275 q 459 59 594 108 q 201 10 324 10 q 78 74 149 10 q 7 181 7 139 q 17 218 7 204 q 42 232 28 232 q 103 209 56 232 q 176 186 151 186 q 224 190 200 186 q 154 239 189 204 q 119 306 119 274 q 165 508 119 319 q 214 829 211 696 q 169 887 189 853 q 149 938 149 921 q 210 1000 149 976 q 363 1024 271 1024 q 674 972 557 1024 q 792 808 792 921 q 732 664 792 738 q 575 529 672 590 l 589 525 q 728 459 672 503 q 785 361 785 415 m 539 846 q 336 815 496 846 q 386 723 386 760 q 363 588 386 686 q 442 636 385 604 q 513 678 499 668 q 553 710 528 689 q 600 797 600 747 q 539 846 600 846 m 610 367 q 530 415 610 394 q 397 435 450 435 q 335 478 368 435 q 260 196 272 221 q 493 272 376 221 q 610 367 610 324 z "},"C":{"ha":857,"x_min":49,"x_max":774,"o":"m 610 1038 q 694 969 649 1038 q 740 856 740 900 q 722 811 740 811 q 687 817 714 811 q 640 822 660 822 q 478 733 571 822 q 319 521 385 644 q 253 307 253 397 q 267 242 253 263 q 317 222 281 222 q 511 251 413 222 q 674 310 610 281 q 747 340 738 340 q 765 324 756 340 q 774 286 774 308 q 699 174 774 239 q 517 64 624 110 q 325 18 411 18 q 144 122 239 18 q 49 321 49 226 q 133 622 49 453 q 352 914 218 790 q 610 1038 486 1038 z "},"D":{"ha":925,"x_min":72,"x_max":888,"o":"m 153 1038 q 390 993 261 1038 q 628 876 518 949 q 813 703 739 804 q 888 497 888 601 q 762 303 888 419 q 471 103 636 188 q 200 18 306 18 q 124 80 176 18 q 72 171 72 142 q 148 488 72 228 q 242 846 224 749 q 158 926 192 879 q 125 1005 125 972 q 153 1038 125 1038 m 688 536 q 606 653 688 581 q 415 775 524 726 q 297 329 407 671 q 280 270 292 311 q 263 215 268 229 q 543 370 399 261 q 688 536 688 479 z "},"E":{"ha":765,"x_min":35,"x_max":821,"o":"m 344 601 q 503 609 418 601 q 608 617 588 617 q 640 607 628 617 q 651 583 651 597 q 536 486 651 522 q 290 444 421 450 q 236 232 236 276 q 260 208 236 208 q 586 250 418 208 q 651 265 643 265 q 678 228 678 265 q 604 131 678 178 q 419 56 531 83 q 201 28 308 28 q 86 76 138 28 q 35 188 35 124 q 106 513 35 253 q 182 904 178 772 q 181 921 181 908 q 186 951 181 940 q 271 1001 201 990 q 521 1011 340 1011 q 821 944 821 1011 q 747 885 821 901 q 610 864 697 874 q 369 819 475 849 q 336 601 369 725 l 344 601 z "},"F":{"ha":753,"x_min":57,"x_max":822,"o":"m 203 949 q 292 1007 218 994 q 515 1019 365 1019 q 743 995 664 1019 q 822 926 822 971 q 806 897 822 906 q 778 883 790 888 q 747 874 767 878 q 710 866 726 869 q 666 860 693 863 q 619 855 639 857 q 568 849 600 853 q 510 843 536 846 q 371 822 483 840 l 371 821 q 328 556 371 771 q 394 554 346 554 q 519 562 442 554 q 622 569 597 569 q 663 557 646 569 q 679 529 679 544 q 635 463 679 492 q 524 417 590 433 q 289 381 390 383 q 238 165 247 204 q 219 89 229 125 q 186 18 201 18 q 107 83 157 18 q 57 181 57 149 q 126 533 57 236 q 199 907 194 831 l 199 918 q 203 949 199 936 z "},"G":{"ha":829,"x_min":29,"x_max":756,"o":"m 385 472 q 385 487 385 472 q 451 519 385 501 q 596 538 518 538 q 715 475 674 538 q 756 336 756 413 q 691 73 756 260 q 579 -114 626 -114 q 547 -102 560 -114 q 533 -72 533 -90 q 589 214 533 28 q 447 79 524 131 q 288 28 369 28 q 118 99 207 28 q 29 254 29 169 q 118 587 29 404 q 343 899 207 769 q 600 1028 479 1028 q 687 963 642 1028 q 732 843 732 897 q 714 818 732 818 q 688 824 711 818 q 629 829 664 829 q 439 734 536 829 q 281 500 342 639 q 219 239 219 361 q 267 203 219 203 q 427 261 332 203 q 574 392 522 319 q 499 390 543 390 q 420 417 456 390 q 385 472 385 443 z "},"H":{"ha":904,"x_min":69,"x_max":863,"o":"m 204 18 q 122 84 175 18 q 69 185 69 150 q 111 400 69 221 q 78 483 78 433 q 144 539 78 511 q 232 989 232 894 q 272 1035 232 1035 q 359 968 306 1035 q 413 843 413 901 q 363 593 413 806 q 600 618 482 614 q 667 989 667 897 q 707 1035 667 1035 q 794 968 740 1035 q 847 843 847 901 q 793 604 847 814 q 863 550 863 588 q 760 482 863 507 q 694 228 710 290 q 672 135 679 167 q 656 75 664 104 q 626 18 640 18 q 547 71 593 18 q 500 176 500 124 q 558 447 500 207 q 313 399 399 421 q 256 169 269 233 q 233 75 242 104 q 204 18 218 18 z "},"I":{"ha":429,"x_min":69,"x_max":397,"o":"m 192 18 q 117 76 164 18 q 69 160 69 133 q 138 547 69 186 q 210 989 207 907 q 253 1035 213 1035 q 342 968 286 1035 q 397 843 397 901 q 359 655 397 818 q 308 427 321 492 q 285 312 294 363 q 269 232 275 261 q 208 28 231 54 q 192 18 200 18 z "},"J":{"ha":675,"x_min":18,"x_max":714,"o":"m 18 286 q 26 339 18 324 q 53 354 33 354 q 107 315 74 354 q 183 238 140 276 q 267 199 225 199 q 331 288 299 199 q 399 516 363 376 q 444 703 435 656 q 476 836 467 813 q 352 816 439 828 q 236 804 265 804 q 189 822 207 804 q 171 865 171 840 q 277 956 171 915 q 490 1012 383 996 q 636 1028 596 1028 q 714 978 714 1028 q 664 804 714 957 q 603 604 614 651 q 490 193 528 286 q 340 24 432 47 q 296 18 318 18 q 108 113 197 18 q 18 286 18 208 z "},"K":{"ha":836,"x_min":40,"x_max":797,"o":"m 165 18 l 163 18 q 86 74 132 18 q 40 173 40 131 q 122 553 40 215 q 203 979 203 890 q 243 1035 203 1035 q 324 969 276 1035 q 371 843 371 903 q 335 658 371 807 q 549 912 449 810 q 685 1014 649 1014 q 760 983 722 1014 q 797 928 797 951 q 726 839 797 906 q 551 669 656 772 q 390 478 447 567 q 514 263 390 371 q 614 197 551 231 q 712 138 676 163 q 747 89 747 114 q 647 18 747 18 q 432 99 547 18 q 260 315 317 181 q 215 166 224 213 q 203 104 207 119 q 197 80 200 89 q 192 60 194 71 q 186 42 189 49 q 181 31 183 36 q 165 18 172 18 z "},"L":{"ha":758,"x_min":57,"x_max":678,"o":"m 303 1056 q 388 1010 338 1056 q 438 915 438 964 q 300 399 438 782 q 253 211 253 264 q 256 203 253 204 q 307 201 258 201 q 441 216 356 201 q 580 244 526 231 q 643 258 633 258 q 678 214 678 258 q 545 73 678 126 q 238 19 413 19 q 113 70 169 19 q 57 182 57 121 q 160 577 57 243 q 263 1010 263 911 q 303 1056 263 1056 z "},"M":{"ha":1050,"x_min":46,"x_max":1050,"o":"m 249 1035 q 352 978 275 1035 q 429 894 429 922 q 461 735 429 846 q 535 533 493 624 q 676 713 576 582 q 843 921 775 844 q 944 997 911 997 q 1014 960 978 997 q 1050 885 1050 922 q 1039 788 1050 847 q 1015 678 1028 729 q 977 540 1001 628 q 940 402 953 453 q 913 294 926 351 q 891 203 899 236 q 874 135 883 171 q 858 81 865 100 q 843 47 851 63 q 800 18 828 18 q 745 73 772 18 q 718 188 718 128 q 803 578 718 335 q 735 488 779 547 q 669 402 690 429 q 615 339 647 375 q 504 276 558 276 q 401 333 432 276 q 360 465 386 363 q 324 606 335 567 q 275 346 306 463 q 235 193 244 229 q 208 106 225 157 q 158 18 181 18 q 90 84 133 18 q 46 188 46 150 q 127 563 46 225 q 208 989 208 900 q 249 1035 208 1035 z "},"N":{"ha":876,"x_min":44,"x_max":867,"o":"m 728 1042 q 817 1000 768 1042 q 867 932 867 958 q 826 628 867 844 q 721 215 785 413 q 606 18 657 18 q 551 41 585 18 q 507 95 518 64 q 464 225 496 126 q 325 600 390 451 q 299 482 315 558 q 274 362 283 406 q 250 256 264 318 q 226 158 236 194 q 203 86 215 122 q 161 18 181 18 q 89 69 133 18 q 44 156 44 119 q 124 543 44 193 q 211 982 204 893 q 243 1035 215 1035 q 303 1007 267 1035 q 367 940 340 979 q 465 682 394 900 q 578 369 536 464 q 678 856 632 531 q 701 1013 696 985 q 728 1042 707 1042 z "},"O":{"ha":860,"x_min":44,"x_max":843,"o":"m 446 258 q 486 293 446 258 q 586 438 526 329 q 646 647 646 547 q 621 801 646 747 q 551 856 596 856 q 435 776 507 856 q 306 567 364 696 q 249 319 249 438 q 265 223 249 260 q 307 186 282 186 q 446 258 365 186 m 308 18 q 125 119 206 18 q 44 319 44 219 q 93 581 44 447 q 215 813 142 715 q 375 974 288 911 q 536 1038 463 1038 q 757 923 671 1038 q 843 665 843 808 q 771 376 843 522 q 572 124 699 229 q 308 18 444 18 z "},"P":{"ha":763,"x_min":31,"x_max":803,"o":"m 151 25 q 75 78 119 25 q 31 165 31 132 q 64 303 31 199 q 174 863 167 622 q 126 942 126 913 q 235 1028 126 988 q 443 1069 344 1069 q 706 992 610 1069 q 803 793 803 914 q 652 514 803 639 q 272 343 501 389 q 187 67 207 108 q 151 25 167 25 m 606 789 q 574 862 606 833 q 488 890 542 890 q 338 839 433 890 q 365 751 365 790 q 325 525 365 675 q 528 645 450 575 q 606 789 606 715 z "},"Q":{"ha":915,"x_min":44,"x_max":894,"o":"m 536 1038 q 785 920 675 1038 q 894 663 894 803 q 828 376 894 524 q 653 131 761 228 q 682 50 664 99 q 710 -26 700 1 q 731 -86 719 -53 q 750 -181 750 -149 q 739 -226 750 -214 q 699 -239 728 -239 q 506 40 615 -239 q 388 18 446 18 q 162 122 279 18 q 44 319 44 225 q 93 581 44 447 q 215 813 142 715 q 375 974 288 911 q 536 1038 463 1038 m 553 856 l 549 856 q 524 815 524 836 q 588 342 524 585 q 697 640 697 497 q 649 798 697 740 q 553 856 601 856 m 353 642 l 353 658 q 249 319 249 482 q 301 226 249 265 q 383 186 353 186 q 449 206 414 186 q 380 463 407 338 q 353 642 353 588 z "},"R":{"ha":835,"x_min":49,"x_max":807,"o":"m 788 68 q 708 11 788 11 q 481 124 600 11 q 313 358 363 236 q 282 268 290 292 q 257 193 274 244 q 231 117 240 142 q 211 64 222 92 q 171 11 190 11 q 94 65 139 11 q 49 151 49 118 q 81 275 49 185 q 189 779 175 551 q 142 838 163 800 q 121 900 121 875 q 228 988 121 942 q 477 1033 336 1033 q 713 967 618 1033 q 807 793 807 900 q 760 641 807 714 q 659 527 714 568 q 558 453 604 486 q 511 410 511 419 q 533 347 511 376 q 596 277 556 317 q 665 210 636 238 q 713 165 694 183 q 750 128 732 147 q 788 68 788 92 m 593 779 q 479 838 593 838 q 350 807 425 838 q 385 710 385 754 q 363 532 385 629 q 419 572 378 543 q 484 617 461 600 q 536 663 507 635 q 593 779 593 717 z "},"S":{"ha":767,"x_min":3,"x_max":767,"o":"m 693 306 q 581 103 693 188 q 324 18 468 18 q 91 90 179 18 q 3 238 3 161 q 46 314 3 314 q 115 281 79 314 q 197 214 151 247 q 299 181 242 181 q 428 228 356 181 q 500 307 500 275 q 422 414 500 339 q 265 569 343 489 q 186 692 186 649 q 202 788 186 736 q 242 858 218 839 q 435 985 317 932 q 644 1039 554 1039 q 732 994 697 1039 q 767 900 767 949 q 735 869 767 881 q 645 844 704 857 q 525 808 586 832 q 383 719 383 756 q 432 659 383 703 q 538 567 481 615 q 644 447 596 519 q 693 306 693 374 z "},"T":{"ha":756,"x_min":76,"x_max":867,"o":"m 340 838 q 176 829 190 829 q 110 870 143 829 q 76 956 76 911 q 472 1024 76 1024 q 771 982 675 1024 q 867 881 867 940 q 846 847 867 863 q 793 831 825 831 q 676 835 761 831 q 522 840 592 839 q 528 801 528 824 q 512 714 528 779 q 467 533 496 649 q 403 252 438 417 q 355 56 368 88 q 329 25 342 25 q 256 78 300 25 q 213 165 213 132 q 269 441 213 199 q 340 838 326 683 z "},"U":{"ha":826,"x_min":83,"x_max":819,"o":"m 236 1038 q 324 988 271 1038 q 378 890 378 938 q 328 642 378 842 q 278 366 278 442 q 297 250 278 290 q 349 210 315 210 q 429 259 383 210 q 517 387 475 308 q 588 574 560 465 q 617 777 617 683 q 608 928 617 871 q 599 996 599 985 q 635 1039 599 1039 q 749 964 679 1039 q 819 785 819 889 q 783 548 819 682 q 686 294 747 414 q 531 96 625 175 q 340 17 438 17 q 163 119 242 17 q 83 329 83 222 q 111 577 83 436 q 167 831 139 718 q 194 990 194 943 q 236 1038 194 1038 z "},"V":{"ha":739,"x_min":74,"x_max":829,"o":"m 711 1035 q 790 1006 750 1035 q 829 951 829 978 q 819 893 829 925 q 785 813 808 861 q 740 720 763 765 q 679 602 717 675 q 614 472 642 529 q 552 338 586 415 q 496 210 518 260 q 449 114 474 161 q 354 19 400 19 q 297 50 333 19 q 247 111 260 81 q 140 557 207 218 q 74 965 74 896 q 111 1035 74 1035 q 208 994 158 1035 q 286 888 258 954 q 308 770 297 860 q 333 548 318 681 q 364 321 347 415 q 585 868 504 701 q 711 1035 667 1035 z "},"W":{"ha":1090,"x_min":81,"x_max":1033,"o":"m 213 18 q 133 62 185 18 q 81 149 81 106 q 110 499 81 250 q 139 976 139 747 q 175 1035 139 1035 q 295 979 225 1035 q 365 868 365 924 q 319 631 365 849 q 267 282 274 414 q 424 507 333 417 q 574 597 515 597 q 628 413 615 597 q 650 285 633 343 q 696 228 667 228 q 792 344 750 228 q 835 583 835 460 q 688 851 835 851 q 608 896 644 851 q 571 975 571 940 q 647 1038 571 1038 q 827 999 750 1038 q 947 894 904 961 q 1033 569 1033 763 q 988 312 1033 439 q 860 101 942 185 q 688 18 779 18 q 494 306 518 18 l 451 244 q 213 18 299 18 z "},"X":{"ha":813,"x_min":-1,"x_max":858,"o":"m 742 1022 q 813 973 768 1022 q 858 889 858 924 q 844 863 858 874 q 806 836 831 851 q 765 800 782 821 q 513 481 596 590 q 607 317 546 421 q 694 162 668 213 q 721 84 721 111 q 699 37 721 57 q 650 17 678 17 q 397 317 576 17 q 238 99 306 181 q 127 18 169 18 q 42 49 85 18 q -1 107 -1 79 q 6 129 -1 122 q 31 157 25 149 q 296 501 150 293 q 165 787 217 654 q 114 978 114 919 q 139 1038 114 1038 q 262 1013 197 1038 q 326 957 326 989 q 413 672 326 857 q 618 954 550 886 q 742 1022 686 1022 z "},"Y":{"ha":779,"x_min":103,"x_max":843,"o":"m 419 561 q 508 681 444 561 q 636 919 571 800 q 733 1038 701 1038 q 812 994 781 1038 q 843 892 843 951 q 771 731 843 850 q 588 438 699 613 q 417 140 476 263 q 358 60 399 101 q 281 18 318 18 q 225 107 225 18 q 331 353 225 160 q 354 399 347 383 q 243 476 293 422 q 164 599 193 531 q 103 876 103 742 q 122 999 103 960 q 199 1038 140 1038 q 244 995 229 1038 q 272 874 260 953 q 308 734 285 794 q 365 617 331 674 q 419 561 399 561 z "},"Z":{"ha":897,"x_min":68,"x_max":782,"o":"m 665 958 q 746 878 710 943 q 782 763 782 813 q 731 644 782 714 q 608 511 681 575 q 465 390 536 447 q 342 289 393 332 q 292 231 292 246 q 313 210 292 210 q 503 227 381 210 q 685 244 625 244 q 778 196 778 244 q 682 110 778 153 q 462 42 586 67 q 240 18 338 18 q 120 90 172 18 q 68 219 68 163 q 152 366 68 276 q 336 532 236 456 q 520 676 436 608 q 604 764 604 744 q 433 828 604 828 q 334 820 375 828 q 281 813 293 813 q 204 864 243 813 q 165 951 165 915 q 247 1006 165 988 q 360 1015 292 1015 q 665 958 510 1015 z "},"[":{"ha":643,"x_min":90,"x_max":831,"o":"m 351 1051 q 365 1108 351 1092 q 426 1131 379 1124 q 588 1138 472 1138 q 831 1071 831 1138 q 772 1011 831 1028 q 675 994 742 1004 q 543 967 574 979 q 383 356 539 807 q 303 76 303 119 q 332 68 303 68 q 451 79 361 68 q 553 90 540 90 q 588 49 588 90 q 471 -53 588 7 q 278 -114 354 -114 q 147 -67 203 -114 q 90 30 90 -21 q 152 280 90 81 q 279 706 214 479 q 351 1040 344 933 l 351 1051 z "},"\\":{"ha":833,"x_min":160,"x_max":751,"o":"m 475 777 q 533 632 475 777 q 672 275 592 486 q 751 25 751 64 q 713 -62 751 -14 q 643 -111 674 -111 q 394 407 608 -111 q 281 678 343 535 q 197 875 219 821 q 160 1014 160 971 q 213 1124 160 1057 q 293 1190 265 1190 q 325 1169 318 1190 q 475 777 358 1068 z "},"]":{"ha":724,"x_min":31,"x_max":692,"o":"m 692 992 l 692 975 q 653 653 689 833 q 601 391 618 474 q 554 179 583 308 q 519 24 525 50 q 455 -80 501 -51 q 314 -108 408 -108 q 125 -60 219 -108 q 31 46 31 -12 q 85 88 31 88 q 172 81 118 88 q 267 74 226 74 q 308 94 307 74 q 325 160 308 99 q 365 313 342 221 q 411 508 388 406 q 467 901 467 763 l 442 901 l 283 894 q 182 939 182 894 q 259 1030 182 993 q 448 1067 336 1067 q 618 1056 560 1067 q 689 1003 676 1044 q 692 992 692 994 z "},"^":{"ha":586,"x_min":21,"x_max":588,"o":"m 588 765 q 553 733 588 733 q 328 1018 492 733 q 201 822 254 943 q 178 769 186 788 q 125 726 157 726 q 57 752 93 726 q 21 799 21 778 q 73 954 21 851 q 193 1141 125 1057 q 300 1225 261 1225 q 428 1179 358 1225 q 450 1144 440 1169 q 481 1056 460 1118 q 544 892 501 993 q 588 765 588 792 z "},"_":{"ha":860,"x_min":33,"x_max":819,"o":"m 819 40 q 726 -12 819 3 q 497 -35 632 -28 q 328 -46 363 -43 q 226 -56 294 -49 q 115 -64 157 -64 q 61 -25 89 -64 q 33 53 33 14 q 432 111 33 111 q 765 86 689 111 q 819 40 819 71 z "},"`":{"ha":358,"x_min":14,"x_max":344,"o":"m 14 1101 q 44 1178 14 1142 q 107 1215 75 1215 q 163 1185 132 1215 q 198 1149 174 1174 q 264 1082 222 1124 q 325 1015 306 1040 q 344 965 344 990 q 327 922 344 940 q 292 903 310 903 q 260 911 275 903 q 215 942 244 919 q 165 976 185 964 q 129 998 146 988 q 103 1014 113 1008 q 81 1027 94 1019 q 61 1040 68 1035 q 45 1053 54 1046 q 31 1065 36 1060 q 22 1078 26 1071 q 14 1101 14 1089 z "},"a":{"ha":708,"x_min":28,"x_max":667,"o":"m 625 411 q 650 371 650 389 q 633 296 650 353 q 611 208 617 239 q 602 158 606 176 q 597 130 599 140 q 592 104 596 119 q 587 80 589 89 q 581 59 585 71 q 574 41 578 47 q 564 28 569 35 q 536 17 556 17 q 488 56 517 17 q 446 150 460 94 q 226 17 315 17 q 97 83 167 17 q 28 215 28 149 q 88 403 28 281 q 251 629 147 525 q 456 733 354 733 q 590 665 514 733 q 667 541 667 597 q 625 411 667 485 m 221 192 q 369 267 276 192 q 483 458 461 343 q 507 478 485 475 q 481 557 503 557 q 356 485 425 557 q 244 331 288 413 q 200 210 200 249 q 203 195 200 199 q 221 192 207 192 z "},"b":{"ha":788,"x_min":25,"x_max":753,"o":"m 574 732 q 695 661 638 732 q 753 526 753 590 q 724 376 753 463 q 646 210 694 290 q 524 74 597 129 q 370 18 450 18 q 189 94 290 18 q 143 17 161 17 q 69 65 114 17 q 25 144 25 114 q 71 344 25 175 q 208 1081 208 853 q 249 1122 208 1122 q 335 1062 281 1122 q 389 949 389 1001 q 318 564 389 825 q 574 732 476 732 m 349 178 q 505 297 425 178 q 585 532 585 417 q 581 542 585 540 q 563 544 578 544 q 399 453 486 544 q 246 224 313 361 q 349 178 304 178 z "},"c":{"ha":679,"x_min":35,"x_max":603,"o":"m 35 235 q 96 449 35 332 q 256 649 157 565 q 451 732 356 732 q 551 669 500 732 q 603 556 603 606 q 569 519 603 519 q 524 535 553 519 q 464 550 494 550 q 377 498 433 550 q 277 373 321 446 q 233 258 233 300 q 249 204 233 217 q 327 192 265 192 q 440 203 389 192 q 515 226 490 214 q 558 238 539 238 q 597 204 597 238 q 490 80 597 143 q 276 17 383 17 q 122 92 208 17 q 35 235 35 168 z "},"d":{"ha":749,"x_min":28,"x_max":769,"o":"m 628 1122 q 715 1062 661 1122 q 769 949 769 1001 q 721 729 769 922 q 663 496 672 536 q 500 17 551 17 q 435 51 471 17 q 399 119 399 86 q 400 131 399 126 q 201 17 261 17 q 84 81 140 17 q 28 199 28 146 q 42 316 28 251 q 88 453 57 381 q 158 588 118 525 q 253 692 197 651 q 369 733 310 733 q 515 643 458 733 q 588 1081 590 972 q 628 1122 588 1122 m 218 193 q 335 253 253 193 q 458 404 418 313 q 457 453 457 415 q 432 524 457 490 q 386 557 407 557 q 306 513 344 557 q 246 407 268 468 q 199 211 199 278 q 202 197 199 200 q 218 193 206 193 z "},"e":{"ha":678,"x_min":35,"x_max":657,"o":"m 657 474 q 565 351 657 406 q 375 297 472 297 q 215 311 278 297 q 203 236 203 274 q 215 183 203 199 q 278 167 228 167 q 456 186 382 167 q 533 206 531 206 q 590 168 590 206 q 501 65 590 114 q 294 17 411 17 q 106 90 176 17 q 35 265 35 164 q 94 475 35 365 q 242 659 153 585 q 419 733 331 733 q 582 647 507 733 q 657 474 657 560 m 496 496 q 467 536 496 510 q 412 563 438 563 q 346 526 386 563 q 269 431 306 489 q 306 429 282 429 q 496 496 496 429 z "},"f":{"ha":604,"x_min":14,"x_max":708,"o":"m 573 845 q 570 861 573 845 q 554 903 567 876 q 524 929 542 929 q 490 904 507 929 q 456 822 472 879 q 403 615 429 733 q 562 621 508 621 q 642 605 615 621 q 668 567 668 589 q 590 500 668 524 q 365 454 513 476 q 268 91 296 164 q 207 18 240 18 q 145 62 181 18 q 110 128 110 106 q 119 181 110 150 q 185 414 163 301 q 110 403 143 403 q 46 433 78 403 q 14 506 14 463 q 214 592 14 556 q 326 978 254 858 q 535 1099 399 1099 q 654 1035 600 1099 q 708 883 708 971 q 690 794 708 826 q 643 761 672 761 q 597 788 614 761 q 573 845 579 814 z "},"g":{"ha":668,"x_min":-32,"x_max":604,"o":"m 583 433 q 604 376 604 410 q 576 294 604 343 q 515 88 542 211 q 463 -110 489 -36 q 408 -237 438 -185 q 326 -325 378 -290 q 208 -360 275 -360 q 42 -299 115 -360 q -32 -194 -32 -237 q -8 -115 -32 -150 q 35 -79 15 -79 q 74 -101 56 -79 q 109 -149 93 -124 q 151 -197 125 -175 q 210 -219 178 -219 q 268 -178 242 -219 q 308 -87 294 -136 q 351 75 343 26 q 198 17 257 17 q 83 81 139 17 q 28 203 28 146 q 59 348 28 261 q 140 522 90 435 q 265 671 189 608 q 417 733 340 733 q 504 708 468 733 q 557 639 540 682 q 586 469 586 564 q 583 433 586 456 m 199 210 q 214 192 199 192 q 344 265 254 192 q 465 411 435 339 l 465 438 q 449 547 465 528 q 426 557 440 557 q 279 417 360 557 q 199 210 199 276 z "},"h":{"ha":782,"x_min":24,"x_max":740,"o":"m 208 1064 q 254 1122 208 1122 q 340 1060 292 1122 q 389 953 389 997 q 371 828 389 908 q 334 681 353 747 q 278 491 315 614 q 226 319 240 368 q 417 618 317 503 q 586 733 518 733 q 685 658 629 733 q 740 522 740 582 q 718 346 740 461 q 640 124 696 231 q 526 17 585 17 q 481 82 481 17 q 508 236 481 129 q 549 431 549 396 q 538 465 549 465 q 301 197 457 465 q 213 61 249 106 q 146 17 178 17 q 69 68 114 17 q 24 148 24 119 q 35 232 24 176 q 72 390 47 288 q 152 763 96 493 q 208 1064 208 1033 z "},"i":{"ha":361,"x_min":29,"x_max":385,"o":"m 171 907 q 171 925 171 907 q 203 981 171 943 q 267 1019 236 1019 q 342 944 299 1019 q 385 835 385 869 q 363 783 385 801 q 317 765 340 765 q 224 818 276 765 q 171 907 171 871 m 192 733 q 278 678 240 733 q 317 571 317 622 q 269 381 317 544 q 174 72 221 218 q 106 18 157 18 q 52 41 75 18 q 29 101 29 64 q 65 284 29 138 q 119 534 100 431 q 153 685 138 638 q 192 733 169 733 z "},"j":{"ha":361,"x_min":-361,"x_max":424,"o":"m -126 -207 q -33 -56 -82 -207 q 72 328 17 94 q 148 627 128 563 q 181 713 168 692 q 213 733 194 733 q 295 679 254 733 q 336 565 336 625 q 150 -99 336 540 q 33 -294 111 -232 q -147 -356 -44 -356 q -290 -296 -219 -356 q -361 -190 -361 -236 q -337 -119 -361 -158 q -290 -79 -314 -79 q -219 -136 -267 -79 q -204 -156 -207 -151 q -126 -207 -162 -207 m 242 981 q 259 1000 242 981 q 307 1019 275 1019 q 381 944 339 1019 q 424 825 424 869 q 401 784 424 803 q 357 765 379 765 q 263 818 315 765 q 210 907 210 871 q 242 981 210 943 z "},"k":{"ha":685,"x_min":36,"x_max":725,"o":"m 164 17 q 84 68 132 17 q 36 150 36 119 q 83 315 36 158 q 176 693 129 472 q 222 1079 222 914 q 261 1122 222 1122 q 349 1062 294 1122 q 404 949 404 1001 q 349 660 404 872 q 240 325 294 447 q 290 388 258 349 q 340 453 321 428 q 388 514 360 478 q 436 573 417 550 q 479 624 456 596 q 520 670 503 653 q 556 703 538 688 q 607 733 589 733 q 683 687 642 733 q 725 606 725 640 q 666 542 725 592 q 548 431 607 492 q 489 322 489 369 q 517 228 489 274 q 579 160 546 183 q 641 112 613 136 q 669 71 669 88 q 596 17 669 17 q 364 164 508 17 l 331 197 q 164 17 206 17 z "},"l":{"ha":369,"x_min":36,"x_max":369,"o":"m 231 1122 q 317 1061 264 1122 q 369 944 369 1000 q 353 747 369 889 q 318 519 336 604 q 157 17 203 17 q 81 66 126 17 q 36 147 36 115 q 74 292 36 150 q 149 656 111 433 q 188 1082 188 879 q 231 1122 188 1122 z "},"m":{"ha":1138,"x_min":21,"x_max":1096,"o":"m 969 733 q 1060 661 1024 733 q 1096 529 1096 589 q 1073 352 1096 469 q 1001 126 1050 235 q 894 17 951 17 q 849 79 849 17 q 885 283 849 142 q 921 469 921 425 q 907 514 921 514 q 838 450 878 514 q 741 279 797 386 q 671 142 685 172 q 648 93 657 111 q 628 56 639 75 q 510 56 583 -18 q 472 124 472 93 q 495 230 472 129 q 518 460 518 331 q 506 514 518 514 q 467 481 489 514 q 399 360 444 447 q 319 215 353 272 q 142 17 203 17 q 66 68 111 17 q 21 147 21 119 q 52 277 21 174 q 92 497 83 381 q 109 679 101 614 q 142 744 117 744 q 244 701 194 744 q 293 621 293 657 q 233 335 293 539 q 397 649 331 567 q 533 733 468 733 q 623 667 569 733 q 676 542 676 600 q 675 442 676 485 q 806 642 718 550 q 969 733 893 733 z "},"n":{"ha":769,"x_min":22,"x_max":728,"o":"m 546 733 q 673 669 618 733 q 728 531 728 604 q 690 284 728 413 q 606 86 651 156 q 515 17 561 17 q 468 82 468 17 q 514 283 468 132 q 549 463 549 408 q 535 517 549 517 q 499 499 517 517 q 471 467 482 481 q 445 431 460 453 q 420 392 431 410 q 394 348 410 375 q 368 303 378 321 q 343 258 358 286 q 140 17 214 17 q 67 67 111 17 q 22 142 22 118 q 42 208 22 157 q 72 285 63 258 q 87 343 81 313 q 97 409 93 374 q 103 464 101 444 q 108 525 106 483 q 130 725 121 706 q 150 744 139 744 q 251 701 203 744 q 300 621 300 657 q 256 374 300 535 q 420 633 346 532 q 546 733 494 733 z "},"o":{"ha":633,"x_min":28,"x_max":599,"o":"m 231 158 q 361 293 306 192 q 417 483 417 394 q 392 606 417 572 q 273 460 332 571 q 214 265 214 349 q 231 158 214 181 m 28 250 q 135 579 28 424 q 349 735 243 735 q 526 660 454 735 q 599 481 599 586 q 549 268 599 376 q 408 88 499 160 q 215 17 318 17 q 83 85 139 17 q 28 250 28 153 z "},"p":{"ha":747,"x_min":-36,"x_max":708,"o":"m 539 732 q 649 640 590 732 q 708 457 708 549 q 661 325 708 401 q 542 181 614 249 q 377 67 471 114 q 199 19 283 19 l 182 19 q 58 -344 94 -344 q -3 -296 29 -344 q -36 -215 -36 -247 q 4 -19 -36 -183 q 124 714 124 467 q 164 756 124 756 q 249 718 197 756 q 313 621 300 681 q 539 732 431 732 m 225 185 q 430 304 333 206 q 526 475 526 403 q 486 547 526 547 q 363 481 428 547 q 304 399 336 453 q 249 272 272 344 l 225 185 z "},"q":{"ha":721,"x_min":39,"x_max":665,"o":"m 485 -89 q 584 -58 550 -58 q 637 -79 618 -58 q 656 -119 656 -100 q 633 -158 656 -139 q 562 -208 611 -176 q 462 -278 513 -239 q 381 -336 411 -317 q 328 -356 351 -356 q 278 -315 306 -356 q 251 -241 251 -275 q 361 68 251 -207 q 226 17 285 17 q 103 87 168 17 q 39 214 39 157 q 76 357 39 271 q 171 527 113 443 q 311 672 229 611 q 466 733 393 733 q 600 668 539 733 q 661 546 661 603 q 625 507 661 507 q 572 535 610 507 q 513 564 533 564 q 375 490 451 564 q 249 331 299 415 q 199 210 199 247 q 203 194 199 197 q 224 192 207 192 q 370 273 278 193 q 489 468 463 353 q 523 492 494 492 q 608 453 551 492 q 665 394 665 415 q 640 306 665 372 q 566 119 615 240 q 485 -89 517 -3 z "},"r":{"ha":503,"x_min":36,"x_max":551,"o":"m 111 499 l 103 656 q 151 733 103 733 q 206 713 179 733 q 247 647 233 692 q 351 715 294 689 q 450 740 407 740 q 551 692 551 740 q 542 655 551 667 q 528 638 533 643 q 512 623 524 632 q 494 610 500 614 q 449 581 463 589 q 342 487 386 542 q 275 335 297 432 q 202 97 238 175 q 123 18 167 18 q 58 60 79 18 q 36 138 36 101 q 63 249 36 175 q 101 376 90 322 q 111 499 111 429 z "},"s":{"ha":649,"x_min":15,"x_max":633,"o":"m 478 732 q 582 669 531 732 q 633 557 633 607 q 604 524 633 524 q 556 537 588 524 q 491 550 524 550 q 395 528 458 550 q 332 469 332 506 q 369 429 332 456 q 451 375 407 403 q 533 298 496 347 q 571 191 571 249 q 487 75 571 133 q 290 17 403 17 q 96 68 176 17 q 15 174 15 119 q 60 228 15 228 q 103 214 78 228 q 276 174 172 174 q 379 201 379 174 q 340 263 379 229 q 253 326 300 297 q 167 398 207 356 q 128 481 128 440 q 264 644 128 556 q 478 732 400 732 z "},"t":{"ha":626,"x_min":21,"x_max":640,"o":"m 394 568 q 362 463 383 531 q 309 294 340 396 q 278 187 278 193 q 301 181 278 181 q 410 212 324 181 q 511 243 496 243 q 546 196 546 243 q 453 83 546 149 q 258 17 360 17 q 153 65 214 17 q 92 164 92 114 q 134 340 92 206 q 192 524 176 474 q 110 508 138 508 q 51 547 82 508 q 21 619 21 585 q 236 694 21 664 q 263 918 263 824 q 304 960 263 960 q 397 916 340 960 q 453 830 453 872 q 435 711 453 788 q 536 714 501 714 q 640 667 640 714 q 580 615 640 636 q 394 568 519 593 z "},"u":{"ha":675,"x_min":14,"x_max":688,"o":"m 522 699 q 567 733 533 733 q 644 676 600 733 q 688 578 688 619 q 624 374 688 563 q 525 75 560 185 q 460 17 506 17 q 413 37 432 17 q 394 100 394 57 q 411 222 394 143 q 183 17 268 17 q 76 74 139 17 q 14 186 14 132 q 90 526 14 319 q 232 733 165 733 q 303 697 272 733 q 335 618 335 661 q 300 525 335 601 q 194 201 194 296 q 201 193 194 193 q 280 259 222 193 q 409 448 338 325 q 522 699 481 571 z "},"v":{"ha":586,"x_min":42,"x_max":625,"o":"m 521 733 q 591 708 557 733 q 625 654 625 682 q 542 422 625 604 q 390 129 460 240 q 281 18 319 18 q 220 46 260 18 q 169 101 181 74 q 89 399 136 182 q 42 675 42 617 q 81 733 42 733 q 178 696 128 733 q 271 525 261 632 q 278 402 275 475 q 290 276 281 329 q 372 466 324 340 q 456 663 421 592 q 521 733 492 733 z "},"w":{"ha":986,"x_min":56,"x_max":1000,"o":"m 869 733 q 888 733 869 733 q 953 707 907 733 q 1000 651 1000 681 q 953 454 1000 622 q 805 152 906 286 q 656 18 704 18 q 597 46 636 18 q 542 108 558 74 q 513 442 513 165 q 376 133 453 247 q 253 18 300 18 q 192 46 232 18 q 142 101 153 74 q 83 388 111 176 q 56 676 56 599 q 94 733 56 733 q 203 669 147 733 q 258 569 258 606 q 263 249 258 368 q 363 460 318 333 q 436 660 408 586 q 494 733 464 733 q 615 674 556 733 q 675 554 675 615 q 666 439 675 526 q 657 307 657 351 q 663 233 657 263 q 742 368 708 279 q 792 536 776 457 q 869 733 831 733 z "},"x":{"ha":658,"x_min":0,"x_max":679,"o":"m 561 68 q 515 17 561 17 q 318 200 440 17 q 106 17 160 17 q 34 53 68 17 q 0 118 0 90 q 29 153 0 125 q 222 360 144 263 q 121 567 163 468 q 79 687 79 665 q 81 715 79 708 q 106 733 85 733 q 228 710 164 733 q 293 657 293 688 q 335 515 293 608 q 473 685 419 635 q 560 735 526 735 q 637 694 594 735 q 679 622 679 654 q 667 593 679 607 q 629 560 654 579 q 581 518 604 542 q 429 336 558 494 l 469 265 q 561 68 561 104 z "},"y":{"ha":722,"x_min":-22,"x_max":715,"o":"m 553 699 q 599 733 561 733 q 676 686 636 733 q 715 579 715 639 q 690 469 715 544 q 655 363 665 394 q 625 276 644 331 q 590 174 606 221 q 547 50 574 128 q 497 -94 519 -28 q 392 -287 454 -219 q 232 -356 331 -356 q 56 -303 133 -356 q -22 -199 -22 -251 q 6 -128 -22 -167 q 55 -89 35 -89 q 108 -122 75 -89 q 175 -187 140 -154 q 236 -219 210 -219 q 266 -203 254 -219 q 285 -173 278 -186 q 301 -137 293 -160 q 317 -94 310 -114 q 333 -43 324 -75 q 350 14 343 -11 q 390 147 374 89 q 296 52 344 88 q 206 17 247 17 q 105 78 165 17 q 44 215 44 140 q 77 414 44 289 q 158 636 110 539 q 244 733 207 733 q 326 697 288 733 q 364 626 364 660 q 330 517 364 592 q 261 353 296 442 q 226 201 226 264 q 233 193 226 193 q 310 260 251 193 q 441 452 368 328 q 553 699 514 576 z "},"z":{"ha":667,"x_min":0,"x_max":618,"o":"m 240 193 l 543 204 q 594 191 572 204 q 617 151 617 178 q 493 51 617 86 q 186 15 369 15 q 60 75 119 15 q 0 173 0 135 q 71 269 0 211 q 226 377 142 328 q 381 472 310 426 q 451 532 451 517 q 376 547 451 547 q 254 539 301 547 q 178 531 207 531 q 111 578 149 531 q 74 654 74 626 q 144 713 74 693 q 300 733 214 733 q 488 710 386 733 q 576 639 533 697 q 618 549 618 581 q 558 426 618 490 q 425 318 497 361 q 292 240 353 275 q 232 197 232 204 q 240 193 232 193 z "},"{":{"ha":642,"x_min":38,"x_max":700,"o":"m 217 592 q 275 651 275 592 q 257 721 275 679 q 201 965 201 849 q 280 1152 201 1082 q 482 1222 358 1222 q 633 1158 568 1222 q 700 1017 699 1094 q 666 943 700 990 q 607 896 632 896 q 581 924 585 896 q 576 1000 576 949 q 506 1056 576 1056 q 383 901 383 1056 q 415 728 385 813 q 444 613 444 643 q 403 503 444 553 q 290 444 361 454 l 290 429 q 256 276 290 376 q 221 100 221 175 q 256 33 221 53 q 354 14 290 14 q 444 0 418 14 q 469 -52 469 -14 q 422 -125 469 -90 q 314 -160 374 -160 q 119 -81 201 -160 q 38 98 38 -3 q 81 308 38 199 q 125 483 125 418 q 108 517 125 492 q 74 603 74 561 q 79 631 74 615 q 97 646 85 646 q 168 611 110 646 q 217 592 207 592 z "},"|":{"ha":633,"x_min":132,"x_max":540,"o":"m 260 -231 q 181 -178 231 -231 q 132 -103 132 -125 q 240 509 132 -81 q 349 1174 349 1099 q 390 1215 349 1215 q 482 1154 424 1215 q 540 1042 540 1093 q 531 969 540 1017 q 515 889 521 921 q 494 793 508 857 q 474 700 481 729 q 414 388 468 671 q 260 -231 293 -231 z "},"}":{"ha":869,"x_min":97,"x_max":751,"o":"m 526 549 l 617 554 q 661 532 661 554 q 601 446 661 479 q 521 192 535 400 q 501 31 515 110 q 440 -99 488 -47 q 305 -150 393 -150 q 157 -103 217 -150 q 97 -1 97 -57 q 126 38 97 38 q 187 12 151 38 q 282 -14 222 -14 q 333 60 324 -14 q 350 253 342 135 q 394 438 358 371 q 300 578 300 485 q 340 683 300 624 q 428 791 381 743 q 517 894 476 839 q 557 989 557 950 q 531 1050 557 1028 q 467 1072 506 1072 q 403 1053 429 1072 q 363 1014 378 1035 q 295 954 321 954 q 235 999 269 954 q 200 1069 200 1043 q 286 1169 200 1117 q 467 1222 372 1222 q 657 1147 563 1222 q 751 1006 751 1071 q 708 875 751 940 q 614 765 665 810 q 476 593 476 646 q 490 560 476 572 q 526 549 504 549 z "},"~":{"ha":814,"x_min":100,"x_max":747,"o":"m 100 375 q 171 531 100 451 q 318 611 242 611 q 443 563 397 611 q 478 519 463 542 q 540 453 518 463 q 580 499 560 463 q 625 563 600 535 q 689 592 650 592 q 747 519 747 592 q 683 365 747 446 q 564 285 618 285 q 451 335 510 285 q 353 467 393 386 q 299 424 321 453 q 267 369 276 396 q 235 323 257 343 q 182 303 214 303 q 100 375 100 303 z "}," ":{"ha":535,"x_min":0,"x_max":0,"o":""},"¡":{"ha":590,"x_min":125,"x_max":497,"o":"m 497 688 q 497 670 497 688 q 465 615 497 651 q 401 578 433 578 q 327 653 369 578 q 285 765 285 728 q 308 806 285 783 q 353 828 331 828 q 446 776 394 828 q 497 688 497 725 m 354 -274 q 311 -314 354 -314 q 197 -253 268 -314 q 125 -164 125 -192 q 190 215 125 -72 q 301 501 254 501 q 375 463 339 501 q 413 382 411 424 q 401 292 415 367 q 371 63 388 218 q 354 -274 354 -92 z "},"¢":{"ha":757,"x_min":35,"x_max":681,"o":"m 681 558 q 647 521 681 521 q 556 561 628 521 q 457 232 524 456 q 549 249 503 238 q 615 260 596 260 q 653 220 653 260 q 578 134 653 181 q 408 65 504 88 q 361 -58 381 -22 q 319 -94 342 -94 q 282 -80 296 -94 q 268 -44 268 -65 q 285 53 268 -22 q 123 140 211 67 q 35 275 35 214 q 102 484 35 368 q 273 683 169 600 q 468 767 376 767 q 493 763 481 767 q 581 872 546 872 q 628 808 628 872 q 599 696 628 783 q 681 558 681 624 m 233 289 q 325 226 233 232 q 424 578 371 419 q 296 446 358 540 q 233 289 233 351 z "},"£":{"ha":1017,"x_min":8,"x_max":932,"o":"m 749 694 l 754 758 q 711 814 754 814 q 658 771 682 814 q 599 599 635 728 q 718 597 632 597 q 854 550 854 597 q 557 447 853 476 l 521 308 q 482 214 511 268 q 593 163 540 163 q 696 197 646 163 q 785 265 746 231 q 855 300 825 300 q 908 269 885 300 q 932 194 932 238 q 817 60 932 126 q 618 -6 703 -6 q 392 97 503 -6 q 193 15 300 15 q 78 94 147 15 q 8 254 8 172 q 58 365 8 311 q 184 419 108 419 q 329 367 260 419 q 347 435 338 393 l 333 435 q 231 448 263 435 q 200 499 200 461 q 226 580 200 536 q 271 624 251 624 q 390 614 328 624 q 521 922 446 822 q 722 1022 596 1022 q 845 947 793 1022 q 897 786 897 871 q 851 703 897 747 q 774 658 806 658 q 749 694 749 658 m 207 161 q 271 228 232 161 q 211 268 235 268 q 171 225 171 268 q 184 185 171 210 q 207 161 197 161 z "},"¤":{"ha":833,"x_min":51,"x_max":808,"o":"m 692 544 q 719 438 719 496 q 640 240 719 319 q 701 100 701 128 q 656 49 701 49 q 506 167 600 49 q 424 158 472 158 q 324 178 375 158 q 162 47 203 47 q 86 84 121 47 q 51 149 51 121 q 106 209 51 156 q 190 294 160 263 q 164 420 164 344 q 221 564 164 496 q 166 640 199 599 q 115 704 133 681 q 96 740 96 728 q 97 760 96 753 q 122 778 101 778 q 246 761 185 778 q 326 711 307 744 q 343 689 328 708 q 368 657 358 669 q 449 668 410 668 q 525 660 489 668 q 619 744 571 711 q 696 778 668 778 q 766 737 724 778 q 808 669 808 696 q 774 615 808 642 q 692 544 740 589 m 458 547 q 431 547 458 547 q 364 509 403 547 q 325 413 325 471 q 356 325 325 354 q 442 296 386 296 q 537 338 499 296 q 575 428 575 379 q 542 513 571 478 q 458 547 514 547 z "},"¥":{"ha":854,"x_min":21,"x_max":868,"o":"m 86 518 q 286 571 83 556 q 135 933 135 867 q 172 1000 135 1000 q 273 960 222 1000 q 351 854 324 919 q 461 622 407 722 q 569 779 514 682 q 658 938 624 876 q 711 1000 692 1000 q 786 973 750 1000 q 822 915 822 946 q 638 581 822 854 q 771 568 674 579 q 868 510 868 557 q 535 429 868 457 q 526 369 533 408 q 700 376 640 376 q 856 332 856 376 q 501 215 856 276 q 484 102 489 156 q 476 31 479 49 q 456 -4 471 -4 q 372 40 426 -4 q 317 121 317 83 q 322 188 317 129 q 106 165 178 167 q 50 210 79 165 q 21 283 21 256 q 339 354 21 322 q 341 388 339 369 q 343 413 343 406 q 167 394 192 394 q 115 441 143 394 q 86 518 86 488 z "},"¦":{"ha":632,"x_min":132,"x_max":540,"o":"m 410 597 q 395 597 410 597 q 331 650 381 597 q 282 725 282 703 q 315 923 282 747 q 349 1174 349 1099 q 389 1215 349 1215 q 481 1154 422 1215 q 540 1040 540 1093 q 490 792 540 988 q 410 597 439 597 m 260 -231 q 245 -231 260 -231 q 181 -178 231 -231 q 132 -103 132 -125 q 165 95 132 -81 q 199 346 199 271 q 239 388 199 388 q 331 326 272 388 q 389 213 389 265 q 339 -35 389 160 q 260 -231 289 -231 z "},"§":{"ha":735,"x_min":-8,"x_max":738,"o":"m 536 964 q 454 928 490 964 q 418 853 418 893 q 462 785 418 829 q 558 694 506 740 q 656 570 611 647 q 700 416 700 493 q 638 276 700 339 q 479 182 575 213 q 529 38 529 118 q 455 -115 529 -43 q 244 -186 381 -186 q 68 -124 144 -186 q -8 -19 -8 -62 q 15 73 -8 25 q 61 121 39 121 q 94 103 81 121 q 120 67 107 86 q 140 40 133 49 q 239 -25 189 -25 q 315 -3 289 -25 q 340 51 340 18 q 314 116 340 83 q 249 180 288 149 q 173 246 211 211 q 108 328 135 281 q 82 440 82 376 q 145 574 82 503 q 301 700 208 646 q 233 840 233 778 q 351 1038 233 943 q 558 1132 468 1132 q 683 1076 628 1132 q 738 933 738 1019 q 719 840 738 872 q 673 807 701 807 q 624 831 644 807 q 593 886 603 856 q 536 964 568 964 m 376 278 q 472 333 433 292 q 511 434 511 375 q 418 583 511 493 q 272 429 272 507 q 322 325 272 375 q 376 278 342 306 z "},"¨":{"ha":465,"x_min":14,"x_max":451,"o":"m 261 1023 q 261 1039 261 1023 q 290 1090 261 1056 q 348 1125 319 1125 q 414 1057 376 1125 q 451 965 451 989 q 430 920 451 940 q 388 900 408 900 q 306 945 350 900 q 261 1023 261 990 m 14 1023 q 14 1039 14 1023 q 43 1090 14 1056 q 101 1125 72 1125 q 167 1057 129 1125 q 204 965 204 989 q 183 920 204 940 q 140 900 161 900 q 58 945 103 900 q 14 1023 14 990 z "},"©":{"ha":983,"x_min":81,"x_max":933,"o":"m 933 561 q 787 219 933 356 q 425 83 640 83 q 171 181 261 83 q 81 429 81 278 q 234 767 81 618 q 576 917 388 917 q 836 816 739 917 q 933 561 933 715 m 419 186 q 699 287 597 186 q 800 569 800 388 q 743 744 800 676 q 597 813 686 813 q 422 767 508 813 q 273 626 335 721 q 211 417 211 531 q 267 244 211 303 q 419 186 322 186 m 640 618 l 601 624 q 488 548 554 624 q 422 411 422 472 q 446 385 422 385 q 583 407 511 385 l 654 429 q 671 420 664 429 q 678 400 678 411 q 597 322 678 367 q 460 278 517 278 q 355 325 404 278 q 306 414 306 372 q 399 620 306 508 q 588 732 492 732 q 636 698 611 732 q 661 641 661 664 q 640 618 661 618 z "},"ª":{"ha":744,"x_min":163,"x_max":610,"o":"m 610 810 q 593 750 610 790 q 597 733 597 739 q 590 671 597 726 q 582 575 582 615 q 559 468 582 468 q 513 491 536 468 q 476 550 490 514 q 315 468 397 468 q 216 515 269 468 q 163 601 163 563 q 181 699 163 639 q 231 823 199 758 q 318 935 264 888 q 431 982 372 982 q 550 924 490 982 q 610 810 610 867 m 374 609 q 389 619 374 609 q 440 682 404 629 q 492 811 476 735 q 439 850 478 850 q 346 754 393 850 q 299 618 299 658 q 306 595 299 601 q 328 589 313 589 q 374 609 344 589 z "},"«":{"ha":592,"x_min":21,"x_max":878,"o":"m 778 660 q 840 628 803 660 q 878 575 878 597 q 835 542 878 546 q 572 450 572 513 q 683 367 572 415 q 760 324 725 349 q 794 279 794 300 q 742 242 790 242 q 534 317 650 242 q 418 464 418 393 q 438 510 418 481 q 496 564 457 539 q 628 624 535 589 q 778 660 722 660 m 67 549 q 208 646 121 596 q 331 696 296 696 q 403 672 365 696 q 442 628 442 649 q 401 586 442 599 q 231 517 294 553 q 168 460 168 481 q 234 394 168 429 q 365 330 300 360 q 431 281 431 300 q 367 238 431 238 q 151 310 282 238 q 21 446 21 382 q 37 503 21 468 q 67 549 53 538 z "},"¬":{"ha":689,"x_min":83,"x_max":872,"o":"m 581 526 l 215 514 q 125 569 167 514 q 83 662 83 625 q 115 699 83 699 l 572 699 q 776 683 701 699 q 844 622 817 675 q 872 517 872 569 q 822 362 872 464 q 699 176 772 260 q 569 93 625 93 q 531 128 531 93 q 569 211 531 140 q 688 511 688 429 q 581 526 688 526 z "},"­":{"ha":833,"x_min":69,"x_max":690,"o":"m 690 465 q 606 406 690 429 q 453 369 539 386 q 308 336 367 351 q 158 307 186 307 q 100 345 131 307 q 69 418 69 383 q 231 485 69 457 q 585 513 393 513 q 690 465 690 513 z "},"®":{"ha":932,"x_min":146,"x_max":786,"o":"m 146 625 q 261 878 146 767 q 508 990 376 990 q 713 915 640 990 q 786 724 786 840 q 676 467 786 569 q 404 365 567 365 q 214 438 282 365 q 146 625 146 511 m 400 443 q 610 518 533 443 q 686 729 686 593 q 643 861 686 810 q 535 913 600 913 q 336 828 428 913 q 244 610 244 743 q 286 486 244 529 q 400 443 328 443 m 389 529 q 383 529 389 529 q 362 546 378 529 q 346 572 346 563 q 365 643 346 582 q 388 757 383 704 q 366 780 376 765 q 356 801 356 794 q 392 829 356 814 q 461 844 428 844 q 586 769 586 844 q 522 675 586 724 q 500 654 500 660 q 517 620 500 636 q 553 589 533 604 q 588 549 588 560 q 558 529 588 529 q 491 563 529 529 q 432 633 453 596 q 389 529 400 529 m 504 744 q 513 765 513 756 q 488 775 513 775 q 447 768 464 775 q 456 742 456 758 q 450 701 456 725 q 469 713 460 706 q 485 726 478 721 q 497 735 493 732 q 504 744 500 739 z "},"¯":{"ha":524,"x_min":14,"x_max":510,"o":"m 510 900 q 466 861 510 874 q 335 834 422 849 q 200 811 247 819 q 90 795 117 794 q 39 827 64 796 q 14 885 14 858 q 110 932 14 922 q 400 942 206 942 q 510 900 510 942 z "},"°":{"ha":585,"x_min":124,"x_max":603,"o":"m 336 667 q 403 709 374 667 q 433 788 433 751 q 386 861 433 861 q 319 818 349 861 q 289 740 289 775 q 302 685 289 704 q 336 667 315 667 m 124 701 q 216 911 124 814 q 426 1008 308 1008 q 554 959 506 1008 q 603 833 603 910 q 510 624 603 721 q 300 528 417 528 q 172 576 219 528 q 124 701 124 625 z "},"±":{"ha":833,"x_min":111,"x_max":917,"o":"m 476 885 q 487 912 476 903 q 513 921 497 921 q 613 869 551 921 q 674 793 674 818 q 661 686 674 757 q 779 692 767 692 q 917 643 917 692 q 631 529 917 569 q 529 263 571 263 q 458 299 499 263 q 418 369 418 336 q 443 511 418 381 q 297 506 356 506 q 224 553 258 506 q 189 636 189 600 q 226 667 189 667 q 465 674 313 667 q 476 885 476 774 m 153 199 l 690 228 q 846 184 846 228 q 714 108 846 140 q 219 54 492 54 q 144 92 178 54 q 111 165 111 131 q 153 199 111 199 z "},"²":{"ha":465,"x_min":106,"x_max":488,"o":"m 335 875 q 285 845 307 875 q 263 815 264 815 q 216 838 247 815 q 185 872 185 861 q 228 951 185 914 q 337 989 272 989 q 433 952 401 989 q 464 847 464 915 q 390 692 464 779 q 247 574 315 604 q 413 597 339 597 q 488 564 488 597 q 376 505 488 535 q 204 475 265 475 q 142 508 178 475 q 106 565 106 540 q 168 632 106 581 q 294 746 231 683 q 357 849 357 808 q 335 875 357 875 z "},"³":{"ha":417,"x_min":57,"x_max":435,"o":"m 176 719 l 176 726 q 254 808 179 750 q 329 890 329 865 q 316 894 329 894 q 261 868 303 894 q 208 842 219 842 q 171 868 196 842 q 146 907 146 894 q 210 961 146 935 q 322 988 274 988 q 402 956 369 988 q 435 892 435 924 q 402 819 435 860 q 324 746 369 779 q 424 653 424 717 q 326 539 424 590 q 142 488 228 488 q 57 517 57 488 q 119 553 57 529 q 243 604 181 576 q 306 654 306 632 q 274 678 306 674 q 211 688 243 682 q 176 719 179 694 z "},"´":{"ha":369,"x_min":14,"x_max":356,"o":"m 69 903 q 57 903 69 903 q 30 923 46 903 q 14 970 14 943 q 31 1023 14 997 q 81 1077 47 1049 q 141 1128 115 1106 q 179 1162 167 1151 q 207 1185 192 1172 q 231 1203 222 1197 q 267 1214 251 1214 q 328 1176 300 1214 q 356 1107 356 1138 q 351 1063 356 1076 q 328 1038 346 1050 q 295 1017 311 1025 q 241 990 279 1008 q 180 958 203 971 q 133 931 157 946 q 69 903 92 903 z "},"µ":{"ha":610,"x_min":-225,"x_max":636,"o":"m 468 699 q 511 733 478 733 q 590 676 544 733 q 636 579 636 619 q 613 499 636 567 q 472 75 514 214 q 406 17 454 17 q 340 97 340 17 q 357 226 340 146 q 131 17 219 17 q 63 57 89 17 q -37 -167 18 -57 q -119 -278 -93 -278 q -189 -255 -153 -278 q -225 -215 -225 -232 q -203 -149 -225 -197 q -67 178 -110 56 q 13 446 -25 301 q 77 662 51 590 q 131 733 103 733 q 199 708 158 733 q 240 664 240 683 q 192 454 240 622 q 143 201 143 286 q 147 193 143 193 q 237 271 172 193 q 372 472 301 349 q 468 699 442 594 z "},"¶":{"ha":822,"x_min":115,"x_max":875,"o":"m 364 561 q 253 506 299 506 q 162 556 208 506 q 115 656 115 607 q 192 908 115 781 q 388 1072 268 1035 q 707 1118 533 1118 q 785 1107 758 1118 q 844 1044 813 1097 q 875 950 875 992 q 842 749 875 908 q 785 503 810 590 q 608 17 650 17 q 549 45 582 17 q 515 95 515 74 q 556 236 515 117 q 651 565 597 356 q 732 988 706 775 q 589 954 660 964 q 590 924 590 949 q 563 763 590 900 q 501 503 535 625 q 326 17 369 17 q 265 44 299 17 q 232 97 232 72 q 250 178 232 121 q 364 561 329 433 z "},"·":{"ha":329,"x_min":46,"x_max":275,"o":"m 200 331 q 101 385 156 331 q 46 478 46 439 q 81 558 46 518 q 151 597 115 597 q 231 519 186 597 q 275 401 275 442 q 249 356 275 381 q 200 331 224 331 z "},"¸":{"ha":418,"x_min":14,"x_max":404,"o":"m 113 -283 q 43 -265 72 -283 q 14 -229 14 -247 q 47 -202 14 -211 q 140 -183 81 -193 q 238 -153 199 -172 q 195 -136 225 -143 q 144 -122 165 -129 q 122 -104 122 -115 q 158 -5 122 -81 q 200 83 194 71 q 266 111 210 111 q 322 78 322 111 q 272 -37 322 44 q 358 -69 313 -43 q 404 -126 404 -96 q 313 -235 403 -186 q 113 -283 222 -283 z "},"¹":{"ha":224,"x_min":94,"x_max":275,"o":"m 147 981 q 169 1001 147 1001 q 233 968 192 1001 q 275 921 275 935 q 253 774 275 863 q 222 640 232 685 q 206 569 213 596 q 192 515 200 543 q 157 461 175 461 q 117 483 139 461 q 94 525 94 506 q 121 676 94 526 q 147 981 147 825 z "},"º":{"ha":628,"x_min":185,"x_max":607,"o":"m 451 860 q 356 778 399 847 q 314 658 314 708 q 343 579 314 608 q 433 655 385 590 q 481 781 481 719 q 451 860 481 842 m 458 982 q 565 921 524 982 q 607 803 607 860 q 527 573 607 679 q 321 467 447 467 q 227 519 269 467 q 185 640 185 572 q 265 878 185 775 q 458 982 344 982 z "},"»":{"ha":1157,"x_min":128,"x_max":954,"o":"m 572 631 q 603 674 572 651 q 660 696 633 696 q 830 611 706 696 q 954 478 954 526 q 939 417 954 453 q 903 367 924 382 q 728 272 818 307 q 576 238 638 238 q 515 274 515 238 q 588 324 515 294 q 733 390 660 354 q 806 457 806 425 q 792 490 806 472 q 733 536 779 508 q 611 588 686 564 q 572 631 572 600 m 246 540 q 221 543 246 540 q 186 553 196 546 q 176 581 176 561 q 214 630 176 600 q 284 660 251 660 q 390 631 317 660 q 526 557 464 601 q 589 472 589 513 q 511 374 589 431 q 337 281 433 318 q 182 244 240 244 q 142 256 157 244 q 128 285 128 267 q 204 345 128 311 q 357 413 281 379 q 433 469 433 446 q 365 513 433 493 q 246 540 296 533 z "},"¼":{"ha":1143,"x_min":94,"x_max":1051,"o":"m 940 443 q 1008 407 964 443 q 1051 347 1051 371 q 990 77 1051 282 q 883 -128 929 -128 q 842 -103 860 -128 q 825 -51 825 -78 q 869 138 825 -24 q 738 121 808 121 q 620 157 667 121 q 574 250 574 193 q 622 398 574 307 q 728 558 671 489 q 811 626 786 626 q 865 597 836 626 q 894 546 894 567 q 807 405 894 525 q 719 263 719 285 q 724 249 719 251 q 747 246 728 246 q 796 255 767 246 q 857 278 825 264 q 903 297 889 293 q 911 415 911 353 q 940 443 911 443 m 813 1106 q 876 1062 843 1106 q 910 979 910 1018 q 885 911 910 951 q 840 842 860 871 q 785 765 821 814 q 717 674 749 715 q 632 561 686 633 q 546 447 578 489 q 482 360 514 404 q 429 289 450 317 q 330 158 350 183 q 286 103 310 133 q 246 56 263 74 q 213 21 229 38 q 162 -11 181 -11 q 119 15 143 -11 q 94 66 94 40 q 216 272 94 92 q 536 733 338 453 q 765 1058 735 1014 q 802 1103 796 1101 q 813 1106 808 1106 m 274 509 q 268 491 274 509 q 251 456 263 472 q 221 439 239 439 q 176 467 203 439 q 150 521 150 494 q 167 622 150 547 q 215 1101 215 839 q 244 1129 215 1129 q 326 1086 274 1129 q 379 1025 379 1043 q 333 760 379 949 q 313 669 325 726 q 292 578 300 611 q 274 509 285 546 z "},"½":{"ha":1192,"x_min":103,"x_max":1051,"o":"m 757 100 q 965 125 879 125 q 1051 83 1051 125 q 910 6 1051 44 q 689 -32 769 -32 q 610 9 656 -32 q 564 85 564 50 q 725 239 564 113 q 835 346 785 288 q 885 440 885 404 q 858 476 885 476 q 812 458 832 476 q 781 419 792 439 q 764 400 769 400 q 706 429 746 400 q 665 474 665 458 q 720 575 665 528 q 858 622 775 622 q 982 575 942 622 q 1022 442 1022 528 q 934 251 1022 357 q 757 100 846 144 m 822 1106 q 884 1063 850 1106 q 918 976 918 1021 q 843 831 918 933 q 802 774 821 800 q 751 704 783 747 q 691 626 718 661 q 621 535 664 592 q 550 441 578 478 q 490 361 522 404 q 435 290 457 318 q 385 222 414 261 q 335 158 356 183 q 291 103 315 133 q 251 56 267 74 q 219 21 235 38 q 171 -11 188 -11 q 128 14 154 -11 q 103 72 103 39 q 229 284 103 104 q 532 706 356 464 q 783 1072 708 949 q 805 1101 797 1096 q 822 1106 813 1106 m 282 509 q 276 491 282 509 q 259 456 271 472 q 229 439 247 439 q 185 467 211 439 q 158 518 158 494 q 175 614 158 542 q 224 1101 224 822 q 253 1129 224 1129 q 335 1086 282 1129 q 388 1025 388 1043 q 342 760 388 949 q 321 669 333 726 q 301 578 308 611 q 282 509 293 546 z "},"¾":{"ha":1336,"x_min":128,"x_max":1238,"o":"m 1133 443 q 1198 407 1158 443 q 1238 347 1238 371 q 1176 78 1238 283 q 1069 -128 1114 -128 q 1032 -103 1046 -128 q 1018 -51 1018 -79 q 1063 138 1018 -24 q 932 121 1003 121 q 815 158 861 121 q 768 251 768 194 q 817 398 768 307 q 922 558 865 489 q 1004 626 979 626 q 1058 597 1029 626 q 1088 546 1088 567 q 1001 405 1088 525 q 914 263 914 285 q 918 249 914 251 q 942 246 922 246 q 990 255 961 246 q 1050 278 1018 264 q 1096 297 1082 293 q 1104 415 1104 353 q 1133 443 1104 443 m 1007 1106 q 1069 1063 1035 1106 q 1103 976 1103 1021 q 1028 831 1103 933 q 987 774 1006 800 q 935 704 968 747 q 876 626 903 661 q 806 535 849 592 q 735 441 763 478 q 674 361 707 404 q 620 290 642 318 q 569 222 599 261 q 520 158 540 183 q 476 103 500 133 q 435 56 451 74 q 403 21 419 38 q 356 -11 372 -11 q 313 14 339 -11 q 288 72 288 39 q 414 284 288 104 q 717 706 540 464 q 968 1072 893 949 q 990 1101 982 1096 q 1007 1106 997 1106 m 278 771 l 278 778 q 383 889 278 814 q 474 989 474 954 q 468 993 474 993 q 381 960 439 993 q 313 928 324 928 q 272 963 303 928 q 240 1011 240 997 q 322 1082 240 1047 q 464 1117 403 1117 q 567 1075 525 1117 q 608 982 608 1033 q 568 901 608 951 q 471 808 528 851 q 594 690 594 778 q 469 543 594 610 q 219 476 344 476 q 128 517 128 476 q 206 562 128 533 q 363 626 285 590 q 442 690 442 661 q 403 719 442 714 q 323 733 364 725 q 278 771 282 740 z "},"¿":{"ha":550,"x_min":6,"x_max":556,"o":"m 411 828 q 504 776 453 828 q 556 688 556 725 q 524 615 556 651 q 460 578 492 578 q 385 653 428 578 q 343 765 343 728 q 366 806 343 783 q 411 828 389 828 m 482 -74 q 405 -220 482 -156 q 231 -285 328 -285 q 70 -226 135 -285 q 6 -67 6 -168 q 40 55 6 -6 q 119 156 75 115 q 281 339 249 272 q 332 447 319 425 q 382 488 356 488 q 432 356 432 488 q 407 257 432 306 q 346 172 382 208 q 274 100 310 135 q 188 -43 188 17 q 204 -78 188 -65 q 249 -92 221 -92 q 297 -74 276 -92 q 317 -24 317 -57 q 338 19 317 8 q 387 36 371 36 q 442 -6 403 36 q 482 -74 482 -49 z "},"À":{"ha":876,"x_min":43,"x_max":810,"o":"m 706 539 q 785 528 761 539 q 810 490 810 518 q 689 414 810 453 q 692 212 692 308 q 676 67 692 115 q 628 19 661 19 q 576 53 594 19 q 545 165 557 88 q 521 371 533 243 q 317 319 379 339 q 172 19 208 19 q 95 58 143 19 q 47 139 47 97 q 101 286 47 163 q 60 330 78 301 q 43 385 43 358 q 181 472 43 431 q 203 535 192 500 q 263 701 215 571 q 339 919 311 832 q 426 997 351 961 q 542 1033 500 1033 q 628 899 590 1033 q 682 539 667 764 l 706 539 m 385 515 q 506 529 426 521 q 492 667 501 569 q 479 807 483 764 q 385 515 456 729 m 286 1296 q 317 1373 286 1336 q 379 1410 347 1410 q 435 1379 404 1410 q 470 1343 446 1368 q 536 1276 494 1318 q 597 1210 578 1235 q 617 1160 617 1185 q 599 1116 617 1135 q 565 1097 582 1097 q 532 1106 547 1097 q 487 1136 517 1114 q 438 1170 457 1158 q 401 1192 418 1182 q 376 1208 385 1203 q 353 1222 367 1214 q 333 1235 340 1229 q 317 1247 326 1240 q 303 1260 308 1254 q 294 1272 299 1265 q 286 1296 286 1283 z "},"Á":{"ha":876,"x_min":43,"x_max":810,"o":"m 706 539 q 785 528 761 539 q 810 490 810 518 q 689 414 810 453 q 692 212 692 308 q 676 67 692 115 q 628 19 661 19 q 576 53 594 19 q 545 165 557 88 q 521 371 533 243 q 317 319 379 339 q 172 19 208 19 q 95 58 143 19 q 47 139 47 97 q 101 286 47 163 q 60 330 78 301 q 43 385 43 358 q 181 472 43 431 q 203 535 192 500 q 263 701 215 571 q 339 919 311 832 q 426 997 351 961 q 542 1033 500 1033 q 628 899 590 1033 q 682 539 667 764 l 706 539 m 385 515 q 506 529 426 521 q 492 667 501 569 q 479 807 483 764 q 385 515 456 729 m 560 1124 q 548 1116 560 1124 q 523 1103 536 1108 q 492 1097 510 1097 q 458 1117 474 1097 q 442 1165 442 1138 q 458 1217 442 1192 q 509 1272 475 1243 q 569 1323 543 1300 q 607 1356 594 1346 q 635 1379 619 1367 q 658 1397 650 1392 q 694 1408 679 1408 q 756 1370 728 1408 q 783 1301 783 1332 q 778 1258 783 1271 q 756 1232 774 1244 q 723 1211 739 1219 q 669 1184 707 1203 q 608 1153 631 1165 q 560 1124 585 1140 z "},"Â":{"ha":876,"x_min":43,"x_max":810,"o":"m 706 539 q 785 528 761 539 q 810 490 810 518 q 689 414 810 453 q 692 212 692 308 q 676 67 692 115 q 628 19 661 19 q 576 53 594 19 q 545 165 557 88 q 521 371 533 243 q 317 319 379 339 q 172 19 208 19 q 95 58 143 19 q 47 139 47 97 q 101 286 47 163 q 60 330 78 301 q 43 385 43 358 q 181 472 43 431 q 203 535 192 500 q 263 701 215 571 q 339 919 311 832 q 426 997 351 961 q 542 1033 500 1033 q 628 899 590 1033 q 682 539 667 764 l 706 539 m 385 515 q 506 529 426 521 q 492 667 501 569 q 479 807 483 764 q 385 515 456 729 m 433 1174 q 416 1161 433 1174 q 378 1133 399 1147 q 332 1119 357 1119 q 290 1139 307 1119 q 274 1188 274 1158 q 375 1313 274 1254 q 413 1335 390 1321 q 449 1357 435 1349 q 478 1374 463 1365 q 526 1390 511 1390 q 556 1375 542 1390 q 590 1328 569 1360 q 624 1283 610 1297 q 673 1233 638 1268 q 723 1176 708 1199 q 738 1135 738 1154 q 724 1105 738 1117 q 696 1093 711 1093 q 602 1133 658 1093 q 507 1221 546 1172 q 433 1174 468 1201 z "},"Ã":{"ha":876,"x_min":43,"x_max":810,"o":"m 706 539 q 785 528 761 539 q 810 490 810 518 q 689 414 810 453 q 692 212 692 308 q 676 67 692 115 q 628 19 661 19 q 576 53 594 19 q 545 165 557 88 q 521 371 533 243 q 317 319 379 339 q 172 19 208 19 q 95 58 143 19 q 47 139 47 97 q 101 286 47 163 q 60 330 78 301 q 43 385 43 358 q 181 472 43 431 q 203 535 192 500 q 263 701 215 571 q 339 919 311 832 q 426 997 351 961 q 542 1033 500 1033 q 628 899 590 1033 q 682 539 667 764 l 706 539 m 385 515 q 506 529 426 521 q 492 667 501 569 q 479 807 483 764 q 385 515 456 729 m 394 1188 q 384 1171 394 1188 q 354 1128 375 1154 q 301 1103 333 1103 q 248 1120 269 1103 q 226 1169 226 1138 q 287 1300 226 1232 q 407 1368 347 1368 q 501 1342 467 1368 q 559 1281 536 1315 q 596 1240 582 1247 q 625 1278 608 1247 q 718 1353 667 1353 q 774 1289 774 1353 q 719 1156 774 1225 q 616 1088 664 1088 q 520 1128 568 1088 q 438 1233 472 1168 q 394 1188 413 1221 z "},"Ä":{"ha":876,"x_min":43,"x_max":810,"o":"m 706 539 q 785 528 761 539 q 810 490 810 518 q 689 414 810 453 q 692 212 692 308 q 676 67 692 115 q 628 19 661 19 q 576 53 594 19 q 545 165 557 88 q 521 371 533 243 q 317 319 379 339 q 172 19 208 19 q 95 58 143 19 q 47 139 47 97 q 101 286 47 163 q 60 330 78 301 q 43 385 43 358 q 181 472 43 431 q 203 535 192 500 q 263 701 215 571 q 339 919 311 832 q 426 997 351 961 q 542 1033 500 1033 q 628 899 590 1033 q 682 539 667 764 l 706 539 m 385 515 q 506 529 426 521 q 492 667 501 569 q 479 807 483 764 q 385 515 456 729 m 413 1110 q 331 1155 375 1110 q 286 1233 286 1200 q 315 1300 286 1265 q 373 1335 344 1335 q 439 1267 401 1335 q 476 1174 476 1199 q 455 1130 476 1150 q 413 1110 433 1110 m 660 1110 q 578 1155 622 1110 q 533 1233 533 1200 q 563 1300 533 1265 q 620 1335 592 1335 q 686 1267 649 1335 q 724 1174 724 1199 q 702 1130 724 1150 q 660 1110 681 1110 z "},"Å":{"ha":876,"x_min":43,"x_max":810,"o":"m 706 539 q 785 528 761 539 q 810 490 810 518 q 689 414 810 453 q 692 212 692 308 q 676 67 692 115 q 628 19 661 19 q 576 53 594 19 q 545 165 557 88 q 521 371 533 243 q 317 319 379 339 q 172 19 208 19 q 95 58 143 19 q 47 139 47 97 q 101 286 47 163 q 60 330 78 301 q 43 385 43 358 q 181 472 43 431 q 203 535 192 500 q 263 701 215 571 q 339 919 311 832 q 426 997 351 961 q 542 1033 500 1033 q 628 899 590 1033 q 682 539 667 764 l 706 539 m 385 515 q 506 529 426 521 q 492 667 501 569 q 479 807 483 764 q 385 515 456 729 m 682 1254 q 682 1222 682 1254 q 633 1140 682 1189 q 522 1092 583 1092 q 422 1133 461 1092 q 382 1240 382 1175 q 431 1354 382 1306 q 542 1403 481 1403 q 642 1361 603 1403 q 682 1254 682 1319 m 558 1284 q 553 1291 558 1284 q 533 1297 549 1297 q 506 1281 518 1297 q 494 1242 494 1264 q 505 1206 494 1219 q 530 1192 515 1192 q 556 1209 544 1192 q 568 1249 568 1226 q 558 1284 568 1271 z "},"Æ":{"ha":1249,"x_min":47,"x_max":1304,"o":"m 1304 924 q 1196 870 1304 889 q 925 851 1088 851 l 856 851 q 863 825 863 835 q 832 610 863 729 q 961 613 899 613 q 1136 550 1136 613 q 1119 517 1136 528 q 1088 500 1101 506 q 1051 489 1074 494 q 1009 479 1028 483 q 959 471 990 475 q 906 464 928 467 q 785 447 860 456 q 729 232 729 272 q 753 208 729 208 q 1078 250 911 208 q 1144 265 1136 265 q 1171 228 1171 265 q 1097 131 1171 178 q 913 56 1024 83 q 694 28 801 28 q 579 76 631 28 q 528 187 528 124 q 572 413 528 250 q 343 376 413 385 q 164 21 206 21 q 91 60 135 21 q 47 138 47 100 q 117 332 47 163 q 208 557 188 501 q 368 929 325 871 q 505 1005 411 988 q 783 1022 599 1022 q 1057 1015 967 1022 q 1200 993 1147 1007 q 1304 924 1304 965 m 619 589 q 671 842 658 738 q 546 811 565 831 q 415 560 501 764 q 619 589 531 581 z "},"Ç":{"ha":874,"x_min":51,"x_max":776,"o":"m 776 286 q 635 126 776 217 q 365 19 494 35 q 335 -37 357 1 q 421 -69 375 -43 q 467 -126 467 -96 q 375 -235 465 -186 q 175 -283 285 -283 q 106 -265 135 -283 q 76 -229 76 -247 q 110 -202 76 -211 q 202 -183 143 -193 q 300 -153 261 -172 q 258 -136 288 -143 q 206 -122 228 -129 q 185 -101 185 -115 q 244 44 185 -86 q 110 168 169 85 q 51 321 51 251 q 136 622 51 453 q 355 914 221 790 q 613 1038 489 1038 q 697 969 651 1038 q 743 856 743 900 q 725 811 743 811 q 690 817 717 811 q 643 822 663 822 q 481 733 574 822 q 322 521 388 644 q 256 307 256 397 q 269 242 256 263 q 319 222 283 222 q 514 251 415 222 q 676 310 613 281 q 749 340 740 340 q 767 324 758 340 q 776 286 776 308 z "},"È":{"ha":765,"x_min":35,"x_max":821,"o":"m 344 601 q 503 609 418 601 q 608 617 588 617 q 640 607 628 617 q 651 583 651 597 q 536 486 651 522 q 290 444 421 450 q 236 232 236 276 q 260 208 236 208 q 586 250 418 208 q 651 265 643 265 q 678 228 678 265 q 604 131 678 178 q 419 56 531 83 q 201 28 308 28 q 86 76 138 28 q 35 188 35 124 q 106 513 35 253 q 182 904 178 772 q 181 921 181 908 q 186 951 181 940 q 271 1001 201 990 q 521 1011 340 1011 q 821 944 821 1011 q 747 885 821 901 q 610 864 697 874 q 369 819 475 849 q 336 601 369 725 l 344 601 m 301 1296 q 332 1373 301 1336 q 394 1410 363 1410 q 450 1379 419 1410 q 485 1343 461 1368 q 551 1276 510 1318 q 613 1210 593 1235 q 632 1160 632 1185 q 615 1116 632 1135 q 580 1097 597 1097 q 547 1106 563 1097 q 502 1136 532 1114 q 453 1170 472 1158 q 417 1192 433 1182 q 391 1208 400 1203 q 369 1222 382 1214 q 349 1235 356 1229 q 333 1247 342 1240 q 319 1260 324 1254 q 310 1272 314 1265 q 301 1296 301 1283 z "},"É":{"ha":765,"x_min":35,"x_max":821,"o":"m 344 601 q 503 609 418 601 q 608 617 588 617 q 640 607 628 617 q 651 583 651 597 q 536 486 651 522 q 290 444 421 450 q 236 232 236 276 q 260 208 236 208 q 586 250 418 208 q 651 265 643 265 q 678 228 678 265 q 604 131 678 178 q 419 56 531 83 q 201 28 308 28 q 86 76 138 28 q 35 188 35 124 q 106 513 35 253 q 182 904 178 772 q 181 921 181 908 q 186 951 181 940 q 271 1001 201 990 q 521 1011 340 1011 q 821 944 821 1011 q 747 885 821 901 q 610 864 697 874 q 369 819 475 849 q 336 601 369 725 l 344 601 m 576 1124 q 564 1116 576 1124 q 538 1103 551 1108 q 507 1097 525 1097 q 473 1117 489 1097 q 457 1165 457 1138 q 474 1217 457 1192 q 524 1272 490 1243 q 584 1323 558 1300 q 622 1356 610 1346 q 650 1379 635 1367 q 674 1397 665 1392 q 710 1408 694 1408 q 771 1370 743 1408 q 799 1301 799 1332 q 794 1258 799 1271 q 772 1232 789 1244 q 738 1211 754 1219 q 684 1184 722 1203 q 623 1153 646 1165 q 576 1124 600 1140 z "},"Ê":{"ha":765,"x_min":35,"x_max":821,"o":"m 344 601 q 503 609 418 601 q 608 617 588 617 q 640 607 628 617 q 651 583 651 597 q 536 486 651 522 q 290 444 421 450 q 236 232 236 276 q 260 208 236 208 q 586 250 418 208 q 651 265 643 265 q 678 228 678 265 q 604 131 678 178 q 419 56 531 83 q 201 28 308 28 q 86 76 138 28 q 35 188 35 124 q 106 513 35 253 q 182 904 178 772 q 181 921 181 908 q 186 951 181 940 q 271 1001 201 990 q 521 1011 340 1011 q 821 944 821 1011 q 747 885 821 901 q 610 864 697 874 q 369 819 475 849 q 336 601 369 725 l 344 601 m 449 1174 q 431 1161 449 1174 q 393 1133 414 1147 q 347 1119 372 1119 q 306 1139 322 1119 q 289 1188 289 1158 q 390 1313 289 1254 q 428 1335 406 1321 q 464 1357 450 1349 q 494 1374 478 1365 q 542 1390 526 1390 q 571 1375 557 1390 q 605 1328 585 1360 q 639 1283 625 1297 q 688 1233 653 1268 q 738 1176 724 1199 q 753 1135 753 1154 q 740 1105 753 1117 q 711 1093 726 1093 q 617 1133 674 1093 q 522 1221 561 1172 q 449 1174 483 1201 z "},"Ë":{"ha":765,"x_min":35,"x_max":821,"o":"m 344 601 q 503 609 418 601 q 608 617 588 617 q 640 607 628 617 q 651 583 651 597 q 536 486 651 522 q 290 444 421 450 q 236 232 236 276 q 260 208 236 208 q 586 250 418 208 q 651 265 643 265 q 678 228 678 265 q 604 131 678 178 q 419 56 531 83 q 201 28 308 28 q 86 76 138 28 q 35 188 35 124 q 106 513 35 253 q 182 904 178 772 q 181 921 181 908 q 186 951 181 940 q 271 1001 201 990 q 521 1011 340 1011 q 821 944 821 1011 q 747 885 821 901 q 610 864 697 874 q 369 819 475 849 q 336 601 369 725 l 344 601 m 428 1110 q 346 1155 390 1110 q 301 1233 301 1200 q 331 1300 301 1265 q 388 1335 360 1335 q 454 1267 417 1335 q 492 1174 492 1199 q 470 1130 492 1150 q 428 1110 449 1110 m 675 1110 q 593 1155 638 1110 q 549 1233 549 1200 q 578 1300 549 1265 q 635 1335 607 1335 q 701 1267 664 1335 q 739 1174 739 1199 q 717 1130 739 1150 q 675 1110 696 1110 z "},"Ì":{"ha":429,"x_min":69,"x_max":482,"o":"m 151 1296 q 182 1373 151 1336 q 244 1410 213 1410 q 300 1379 269 1410 q 335 1343 311 1368 q 401 1276 360 1318 q 463 1210 443 1235 q 482 1160 482 1185 q 465 1116 482 1135 q 430 1097 447 1097 q 397 1106 413 1097 q 352 1136 382 1114 q 303 1170 322 1158 q 267 1192 283 1182 q 241 1208 250 1203 q 219 1222 232 1214 q 199 1235 206 1229 q 183 1247 192 1240 q 169 1260 174 1254 q 160 1272 164 1265 q 151 1296 151 1283 m 192 18 q 117 76 164 18 q 69 160 69 133 q 138 547 69 186 q 210 989 207 907 q 253 1035 213 1035 q 342 968 286 1035 q 397 843 397 901 q 359 655 397 818 q 308 427 321 492 q 285 312 294 363 q 269 232 275 261 q 208 28 231 54 q 192 18 200 18 z "},"Í":{"ha":429,"x_min":69,"x_max":649,"o":"m 362 1097 q 350 1097 362 1097 q 323 1117 339 1097 q 307 1165 307 1138 q 324 1217 307 1192 q 374 1272 340 1243 q 434 1323 408 1300 q 472 1356 460 1346 q 500 1379 485 1367 q 524 1397 515 1392 q 560 1408 544 1408 q 621 1370 593 1408 q 649 1301 649 1332 q 644 1258 649 1271 q 622 1232 639 1244 q 588 1211 604 1219 q 534 1184 572 1203 q 473 1153 496 1165 q 425 1125 450 1140 q 362 1097 385 1097 m 192 18 q 117 76 164 18 q 69 160 69 133 q 138 547 69 186 q 210 989 207 907 q 253 1035 213 1035 q 342 968 286 1035 q 397 843 397 901 q 359 655 397 818 q 308 427 321 492 q 285 312 294 363 q 269 232 275 261 q 208 28 231 54 q 192 18 200 18 z "},"Î":{"ha":429,"x_min":69,"x_max":603,"o":"m 344 1374 q 352 1378 344 1374 q 372 1386 360 1382 q 395 1390 383 1390 q 421 1375 407 1390 q 455 1328 435 1360 q 489 1283 475 1297 q 538 1233 503 1268 q 588 1176 574 1199 q 603 1135 603 1154 q 590 1105 603 1117 q 561 1093 576 1093 q 467 1133 524 1093 q 372 1221 411 1172 q 299 1174 333 1201 q 243 1133 264 1147 q 197 1119 222 1119 q 156 1139 172 1119 q 139 1188 139 1158 q 240 1313 139 1254 q 278 1335 256 1321 q 314 1357 300 1349 q 344 1374 328 1365 m 192 18 q 117 76 164 18 q 69 160 69 133 q 138 547 69 186 q 210 989 207 907 q 253 1035 213 1035 q 342 968 286 1035 q 397 843 397 901 q 359 655 397 818 q 308 427 321 492 q 285 312 294 363 q 269 232 275 261 q 208 28 231 54 q 192 18 200 18 z "},"Ï":{"ha":429,"x_min":69,"x_max":589,"o":"m 399 1233 q 399 1249 399 1233 q 428 1300 399 1265 q 485 1335 457 1335 q 551 1267 514 1335 q 589 1174 589 1199 q 567 1130 589 1150 q 525 1110 546 1110 q 443 1155 488 1110 q 399 1233 399 1200 m 151 1233 q 151 1249 151 1233 q 181 1300 151 1265 q 238 1335 210 1335 q 304 1267 267 1335 q 342 1174 342 1199 q 320 1130 342 1150 q 278 1110 299 1110 q 196 1155 240 1110 q 151 1233 151 1200 m 192 18 q 117 76 164 18 q 69 160 69 133 q 138 547 69 186 q 210 989 207 907 q 253 1035 213 1035 q 342 968 286 1035 q 397 843 397 901 q 359 655 397 818 q 308 427 321 492 q 285 312 294 363 q 269 232 275 261 q 208 28 231 54 q 192 18 200 18 z "},"Ð":{"ha":901,"x_min":24,"x_max":947,"o":"m 213 1047 q 449 1003 321 1047 q 688 886 578 958 q 873 713 799 814 q 947 507 947 611 q 822 313 947 429 q 531 113 696 197 q 260 28 365 28 q 184 90 236 28 q 132 181 132 151 q 178 393 132 232 q 144 390 150 390 q 58 421 93 390 q 24 494 24 451 q 100 561 24 553 q 231 579 147 565 q 301 856 279 743 q 218 935 251 889 q 185 1015 185 982 q 213 1047 185 1047 m 747 546 q 665 663 747 590 q 475 785 583 736 q 438 603 471 726 q 535 576 493 603 q 576 511 576 549 q 485 442 576 461 q 383 422 447 433 q 340 283 353 326 q 322 225 328 239 q 603 380 458 271 q 747 546 747 489 z "},"Ñ":{"ha":876,"x_min":44,"x_max":867,"o":"m 296 1169 q 356 1300 296 1232 q 476 1368 417 1368 q 571 1342 536 1368 q 628 1281 606 1315 q 665 1240 651 1247 q 694 1278 678 1247 q 788 1353 736 1353 q 843 1289 843 1353 q 788 1156 843 1225 q 685 1088 733 1088 q 590 1128 638 1088 q 507 1233 542 1168 q 463 1188 482 1221 q 424 1128 444 1154 q 371 1103 403 1103 q 317 1120 339 1103 q 296 1169 296 1138 m 728 1042 q 817 1000 768 1042 q 867 932 867 958 q 826 628 867 844 q 721 215 785 413 q 606 18 657 18 q 551 41 585 18 q 507 95 518 64 q 464 225 496 126 q 325 600 390 451 q 299 482 315 558 q 274 362 283 406 q 250 256 264 318 q 226 158 236 194 q 203 86 215 122 q 161 18 181 18 q 89 69 133 18 q 44 156 44 119 q 124 543 44 193 q 211 982 204 893 q 243 1035 215 1035 q 303 1007 267 1035 q 367 940 340 979 q 465 682 394 900 q 578 369 536 464 q 678 856 632 531 q 701 1013 696 985 q 728 1042 707 1042 z "},"Ò":{"ha":860,"x_min":44,"x_max":843,"o":"m 457 1296 q 488 1373 457 1336 q 550 1410 518 1410 q 606 1379 575 1410 q 641 1343 617 1368 q 707 1276 665 1318 q 768 1210 749 1235 q 788 1160 788 1185 q 770 1116 788 1135 q 735 1097 753 1097 q 703 1106 718 1097 q 658 1136 688 1114 q 608 1170 628 1158 q 572 1192 589 1182 q 547 1208 556 1203 q 524 1222 538 1214 q 504 1235 511 1229 q 488 1247 497 1240 q 474 1260 479 1254 q 465 1272 469 1265 q 457 1296 457 1283 m 446 258 q 486 293 446 258 q 586 438 526 329 q 646 647 646 547 q 621 801 646 747 q 551 856 596 856 q 435 776 507 856 q 306 567 364 696 q 249 319 249 438 q 265 223 249 260 q 307 186 282 186 q 446 258 365 186 m 308 18 q 125 119 206 18 q 44 319 44 219 q 93 581 44 447 q 215 813 142 715 q 375 974 288 911 q 536 1038 463 1038 q 757 923 671 1038 q 843 665 843 808 q 771 376 843 522 q 572 124 699 229 q 308 18 444 18 z "},"Ó":{"ha":860,"x_min":44,"x_max":954,"o":"m 667 1097 q 656 1097 667 1097 q 628 1117 644 1097 q 613 1165 613 1138 q 629 1217 613 1192 q 680 1272 646 1243 q 740 1323 714 1300 q 778 1356 765 1346 q 806 1379 790 1367 q 829 1397 821 1392 q 865 1408 850 1408 q 926 1370 899 1408 q 954 1301 954 1332 q 949 1258 954 1271 q 927 1232 944 1244 q 894 1211 910 1219 q 840 1184 878 1203 q 778 1153 801 1165 q 731 1125 756 1140 q 667 1097 690 1097 m 446 258 q 486 293 446 258 q 586 438 526 329 q 646 647 646 547 q 621 801 646 747 q 551 856 596 856 q 435 776 507 856 q 306 567 364 696 q 249 319 249 438 q 265 223 249 260 q 307 186 282 186 q 446 258 365 186 m 308 18 q 125 119 206 18 q 44 319 44 219 q 93 581 44 447 q 215 813 142 715 q 375 974 288 911 q 536 1038 463 1038 q 757 923 671 1038 q 843 665 843 808 q 771 376 843 522 q 572 124 699 229 q 308 18 444 18 z "},"Ô":{"ha":860,"x_min":44,"x_max":908,"o":"m 649 1374 q 657 1378 649 1374 q 677 1386 665 1382 q 701 1390 689 1390 q 726 1375 713 1390 q 760 1328 740 1360 q 794 1283 781 1297 q 844 1233 808 1268 q 894 1176 879 1199 q 908 1135 908 1154 q 895 1105 908 1117 q 867 1093 882 1093 q 773 1133 829 1093 q 678 1221 717 1172 q 604 1174 639 1201 q 549 1133 569 1147 q 503 1119 528 1119 q 461 1139 478 1119 q 444 1188 444 1158 q 546 1313 444 1254 q 583 1335 561 1321 q 619 1357 606 1349 q 649 1374 633 1365 m 446 258 q 486 293 446 258 q 586 438 526 329 q 646 647 646 547 q 621 801 646 747 q 551 856 596 856 q 435 776 507 856 q 306 567 364 696 q 249 319 249 438 q 265 223 249 260 q 307 186 282 186 q 446 258 365 186 m 308 18 q 125 119 206 18 q 44 319 44 219 q 93 581 44 447 q 215 813 142 715 q 375 974 288 911 q 536 1038 463 1038 q 757 923 671 1038 q 843 665 843 808 q 771 376 843 522 q 572 124 699 229 q 308 18 444 18 z "},"Õ":{"ha":860,"x_min":44,"x_max":944,"o":"m 397 1169 q 458 1300 397 1232 q 578 1368 518 1368 q 672 1342 638 1368 q 730 1281 707 1315 q 767 1240 753 1247 q 796 1278 779 1247 q 889 1353 838 1353 q 944 1289 944 1353 q 890 1156 944 1225 q 787 1088 835 1088 q 691 1128 739 1088 q 608 1233 643 1168 q 565 1188 583 1221 q 525 1128 546 1154 q 472 1103 504 1103 q 419 1120 440 1103 q 397 1169 397 1138 m 446 258 q 486 293 446 258 q 586 438 526 329 q 646 647 646 547 q 621 801 646 747 q 551 856 596 856 q 435 776 507 856 q 306 567 364 696 q 249 319 249 438 q 265 223 249 260 q 307 186 282 186 q 446 258 365 186 m 308 18 q 125 119 206 18 q 44 319 44 219 q 93 581 44 447 q 215 813 142 715 q 375 974 288 911 q 536 1038 463 1038 q 757 923 671 1038 q 843 665 843 808 q 771 376 843 522 q 572 124 699 229 q 308 18 444 18 z "},"Ö":{"ha":860,"x_min":44,"x_max":894,"o":"m 704 1233 q 704 1249 704 1233 q 733 1300 704 1265 q 791 1335 763 1335 q 857 1267 819 1335 q 894 1174 894 1199 q 873 1130 894 1150 q 831 1110 851 1110 q 749 1155 793 1110 q 704 1233 704 1200 m 457 1233 q 457 1249 457 1233 q 486 1300 457 1265 q 544 1335 515 1335 q 610 1267 572 1335 q 647 1174 647 1199 q 626 1130 647 1150 q 583 1110 604 1110 q 501 1155 546 1110 q 457 1233 457 1200 m 446 258 q 486 293 446 258 q 586 438 526 329 q 646 647 646 547 q 621 801 646 747 q 551 856 596 856 q 435 776 507 856 q 306 567 364 696 q 249 319 249 438 q 265 223 249 260 q 307 186 282 186 q 446 258 365 186 m 308 18 q 125 119 206 18 q 44 319 44 219 q 93 581 44 447 q 215 813 142 715 q 375 974 288 911 q 536 1038 463 1038 q 757 923 671 1038 q 843 665 843 808 q 771 376 843 522 q 572 124 699 229 q 308 18 444 18 z "},"×":{"ha":601,"x_min":25,"x_max":689,"o":"m 689 671 q 603 576 689 656 q 444 422 543 521 q 476 380 456 407 q 508 338 497 353 q 536 300 519 322 q 562 264 553 278 q 581 233 571 250 q 597 188 597 203 q 553 135 597 135 q 331 307 476 135 q 172 152 199 169 q 132 135 146 135 q 60 172 94 135 q 25 238 25 208 q 47 269 25 247 q 124 342 68 290 q 226 442 179 393 q 110 627 157 540 q 63 739 63 714 q 67 773 63 764 q 88 782 71 782 q 219 758 149 782 q 290 704 290 735 q 342 568 290 654 q 416 651 394 626 q 476 714 438 675 q 586 783 546 783 q 651 743 613 783 q 689 671 689 703 z "},"Ø":{"ha":860,"x_min":44,"x_max":911,"o":"m 864 654 q 792 376 864 522 q 592 124 719 229 q 329 18 465 18 q 169 86 247 18 q 88 15 108 15 q 57 31 68 15 q 46 65 46 47 q 103 161 46 83 q 44 319 44 244 q 93 581 44 447 q 215 813 142 715 q 375 974 288 911 q 536 1038 463 1038 q 747 944 654 1038 q 860 1025 825 1025 q 897 1012 882 1025 q 911 978 911 999 q 851 874 911 939 l 821 840 q 864 654 864 751 m 625 810 q 557 856 594 856 q 470 810 519 856 q 374 694 421 764 q 291 528 326 624 q 250 347 256 433 q 313 424 271 374 q 451 597 354 475 q 625 810 547 718 m 667 640 q 665 669 667 660 q 279 217 482 464 q 328 186 303 186 q 467 258 386 186 q 607 438 547 329 q 667 640 667 547 z "},"Ù":{"ha":803,"x_min":64,"x_max":800,"o":"m 242 1296 q 272 1373 242 1336 q 335 1410 303 1410 q 390 1379 360 1410 q 426 1343 401 1368 q 492 1276 450 1318 q 553 1210 533 1235 q 572 1160 572 1185 q 555 1116 572 1135 q 520 1097 538 1097 q 488 1106 503 1097 q 442 1136 472 1114 q 393 1170 413 1158 q 357 1192 374 1182 q 331 1208 340 1203 q 309 1222 322 1214 q 289 1235 296 1229 q 273 1247 282 1240 q 259 1260 264 1254 q 250 1272 254 1265 q 242 1296 242 1283 m 217 1038 q 305 988 251 1038 q 358 890 358 938 q 308 642 358 842 q 258 366 258 442 q 277 250 258 290 q 330 210 296 210 q 410 259 364 210 q 498 387 456 308 q 569 574 540 465 q 597 777 597 683 q 588 928 597 871 q 579 996 579 985 q 615 1039 579 1039 q 730 964 660 1039 q 800 785 800 889 q 764 548 800 682 q 667 294 728 414 q 512 96 606 175 q 320 17 418 17 q 143 119 222 17 q 64 329 64 222 q 92 577 64 436 q 147 831 119 718 q 175 990 175 943 q 217 1038 175 1038 z "},"Ú":{"ha":803,"x_min":64,"x_max":800,"o":"m 452 1097 q 441 1097 452 1097 q 413 1117 429 1097 q 397 1165 397 1138 q 414 1217 397 1192 q 465 1272 431 1243 q 524 1323 499 1300 q 563 1356 550 1346 q 590 1379 575 1367 q 614 1397 606 1392 q 650 1408 635 1408 q 711 1370 683 1408 q 739 1301 739 1332 q 734 1258 739 1271 q 712 1232 729 1244 q 678 1211 694 1219 q 624 1184 663 1203 q 563 1153 586 1165 q 517 1125 540 1140 q 452 1097 475 1097 m 217 1038 q 305 988 251 1038 q 358 890 358 938 q 308 642 358 842 q 258 366 258 442 q 277 250 258 290 q 330 210 296 210 q 410 259 364 210 q 498 387 456 308 q 569 574 540 465 q 597 777 597 683 q 588 928 597 871 q 579 996 579 985 q 615 1039 579 1039 q 730 964 660 1039 q 800 785 800 889 q 764 548 800 682 q 667 294 728 414 q 512 96 606 175 q 320 17 418 17 q 143 119 222 17 q 64 329 64 222 q 92 577 64 436 q 147 831 119 718 q 175 990 175 943 q 217 1038 175 1038 z "},"Û":{"ha":803,"x_min":64,"x_max":800,"o":"m 434 1374 q 442 1378 434 1374 q 462 1386 450 1382 q 485 1390 474 1390 q 511 1375 497 1390 q 545 1328 525 1360 q 579 1283 565 1297 q 628 1233 593 1268 q 678 1176 664 1199 q 693 1135 693 1154 q 680 1105 693 1117 q 651 1093 667 1093 q 558 1133 614 1093 q 463 1221 501 1172 q 389 1174 424 1201 q 333 1133 354 1147 q 288 1119 313 1119 q 246 1139 263 1119 q 229 1188 229 1158 q 331 1313 229 1254 q 368 1335 346 1321 q 404 1357 390 1349 q 434 1374 418 1365 m 217 1038 q 305 988 251 1038 q 358 890 358 938 q 308 642 358 842 q 258 366 258 442 q 277 250 258 290 q 330 210 296 210 q 410 259 364 210 q 498 387 456 308 q 569 574 540 465 q 597 777 597 683 q 588 928 597 871 q 579 996 579 985 q 615 1039 579 1039 q 730 964 660 1039 q 800 785 800 889 q 764 548 800 682 q 667 294 728 414 q 512 96 606 175 q 320 17 418 17 q 143 119 222 17 q 64 329 64 222 q 92 577 64 436 q 147 831 119 718 q 175 990 175 943 q 217 1038 175 1038 z "},"Ü":{"ha":803,"x_min":64,"x_max":800,"o":"m 489 1233 q 489 1249 489 1233 q 518 1300 489 1265 q 576 1335 547 1335 q 642 1267 604 1335 q 679 1174 679 1199 q 658 1130 679 1150 q 615 1110 636 1110 q 533 1155 578 1110 q 489 1233 489 1200 m 242 1233 q 242 1249 242 1233 q 271 1300 242 1265 q 328 1335 300 1335 q 394 1267 357 1335 q 432 1174 432 1199 q 410 1130 432 1150 q 368 1110 389 1110 q 286 1155 331 1110 q 242 1233 242 1200 m 217 1038 q 305 988 251 1038 q 358 890 358 938 q 308 642 358 842 q 258 366 258 442 q 277 250 258 290 q 330 210 296 210 q 410 259 364 210 q 498 387 456 308 q 569 574 540 465 q 597 777 597 683 q 588 928 597 871 q 579 996 579 985 q 615 1039 579 1039 q 730 964 660 1039 q 800 785 800 889 q 764 548 800 682 q 667 294 728 414 q 512 96 606 175 q 320 17 418 17 q 143 119 222 17 q 64 329 64 222 q 92 577 64 436 q 147 831 119 718 q 175 990 175 943 q 217 1038 175 1038 z "},"Ý":{"ha":779,"x_min":103,"x_max":843,"o":"m 503 1097 q 492 1097 503 1097 q 465 1117 481 1097 q 449 1165 449 1138 q 465 1217 449 1192 q 516 1272 482 1243 q 576 1323 550 1300 q 614 1356 601 1346 q 642 1379 626 1367 q 665 1397 657 1392 q 701 1408 686 1408 q 763 1370 735 1408 q 790 1301 790 1332 q 785 1258 790 1271 q 763 1232 781 1244 q 730 1211 746 1219 q 676 1184 714 1203 q 615 1153 638 1165 q 567 1125 592 1140 q 503 1097 526 1097 m 419 561 q 508 681 444 561 q 636 919 571 800 q 733 1038 701 1038 q 812 994 781 1038 q 843 892 843 951 q 771 731 843 850 q 588 438 699 613 q 417 140 476 263 q 358 60 399 101 q 281 18 318 18 q 225 107 225 18 q 331 353 225 160 q 354 399 347 383 q 243 476 293 422 q 164 599 193 531 q 103 876 103 742 q 122 999 103 960 q 199 1038 140 1038 q 244 995 229 1038 q 272 874 260 953 q 308 734 285 794 q 365 617 331 674 q 419 561 399 561 z "},"Þ":{"ha":743,"x_min":56,"x_max":725,"o":"m 407 860 l 407 857 q 458 860 443 860 q 637 767 549 860 q 725 604 725 675 q 630 407 725 494 q 385 283 535 319 q 264 265 331 269 q 211 64 229 114 q 160 14 193 14 q 92 67 128 14 q 56 156 56 121 q 89 333 56 190 q 193 997 193 768 q 236 1043 193 1043 q 343 992 279 1043 q 407 860 407 940 m 542 614 q 508 649 542 633 q 439 665 475 665 q 367 654 403 665 q 338 546 358 621 q 307 432 317 471 q 367 444 332 436 q 542 614 542 494 z "},"ß":{"ha":832,"x_min":39,"x_max":769,"o":"m 364 176 l 422 174 q 553 217 503 174 q 582 285 582 242 q 556 363 582 328 q 500 417 531 399 q 419 514 419 468 q 463 566 419 535 q 549 634 506 597 q 593 714 593 671 q 553 792 593 757 q 469 826 513 826 q 399 778 425 826 q 354 636 372 729 q 133 14 229 14 q 72 49 104 14 q 39 115 39 85 q 65 240 39 144 q 127 470 90 335 q 182 706 164 606 q 488 1006 236 1006 q 685 908 601 1006 q 769 724 769 811 q 748 645 769 683 q 701 583 726 607 q 633 499 633 519 q 653 472 633 490 q 697 433 674 454 q 741 369 721 413 q 761 269 761 325 q 676 94 761 172 q 471 17 590 17 q 358 49 399 17 q 317 129 317 82 q 364 176 317 176 z "},"à":{"ha":719,"x_min":40,"x_max":689,"o":"m 468 733 q 603 665 526 733 q 679 541 679 597 q 638 411 679 485 q 663 371 663 389 q 646 296 663 353 q 624 208 629 239 q 615 158 618 176 q 610 130 611 140 q 605 104 608 119 q 599 80 601 89 q 594 59 597 71 q 586 41 590 47 q 578 28 582 35 q 549 17 568 17 q 501 56 529 17 q 458 150 472 94 q 239 17 328 17 q 110 83 179 17 q 40 215 40 149 q 100 403 40 281 q 263 629 160 525 q 468 733 367 733 m 233 192 q 381 267 289 192 q 496 458 474 343 q 519 478 497 475 q 493 557 515 557 q 369 485 438 557 q 256 331 300 413 q 213 210 213 249 q 216 195 213 199 q 233 192 219 192 m 358 968 q 389 1045 358 1008 q 451 1082 419 1082 q 507 1051 476 1082 q 542 1015 518 1040 q 608 949 567 990 q 669 882 650 907 q 689 832 689 857 q 672 788 689 807 q 637 769 654 769 q 604 778 619 769 q 559 808 589 786 q 510 842 529 831 q 474 865 490 854 q 448 881 457 875 q 426 894 439 886 q 406 907 413 901 q 390 919 399 913 q 376 932 381 926 q 367 944 371 938 q 358 968 358 956 z "},"á":{"ha":719,"x_min":40,"x_max":856,"o":"m 767 1081 q 828 1042 800 1081 q 856 974 856 1004 q 851 930 856 943 q 828 904 846 917 q 795 883 811 892 q 741 856 779 875 q 680 825 703 838 q 633 797 657 813 q 569 769 592 769 q 530 790 546 769 q 514 837 514 810 q 531 890 514 864 q 581 944 547 915 q 641 995 615 972 q 679 1028 667 1018 q 707 1051 692 1039 q 731 1069 722 1064 q 767 1081 751 1081 m 468 733 q 603 665 526 733 q 679 541 679 597 q 638 411 679 485 q 663 371 663 389 q 646 296 663 353 q 624 208 629 239 q 615 158 618 176 q 610 130 611 140 q 605 104 608 119 q 599 80 601 89 q 594 59 597 71 q 586 41 590 47 q 578 28 582 35 q 549 17 568 17 q 501 56 529 17 q 458 150 472 94 q 239 17 328 17 q 110 83 179 17 q 40 215 40 149 q 100 403 40 281 q 263 629 160 525 q 468 733 367 733 m 233 192 q 381 267 289 192 q 496 458 474 343 q 519 478 497 475 q 493 557 515 557 q 369 485 438 557 q 256 331 300 413 q 213 210 213 249 q 216 195 213 199 q 233 192 219 192 z "},"â":{"ha":719,"x_min":40,"x_max":810,"o":"m 745 906 q 763 888 745 906 q 795 849 781 871 q 810 808 810 826 q 797 777 810 789 q 768 765 783 765 q 674 805 731 765 q 579 893 618 844 q 506 847 540 874 q 450 806 471 819 q 404 792 429 792 q 363 811 379 792 q 346 860 346 831 q 447 985 346 926 q 485 1007 463 993 q 521 1029 507 1021 q 550 1046 535 1038 q 598 1063 582 1063 q 628 1047 614 1063 q 662 1001 642 1032 q 696 955 682 969 q 745 906 710 940 m 468 733 q 603 665 526 733 q 679 541 679 597 q 638 411 679 485 q 663 371 663 389 q 646 296 663 353 q 624 208 629 239 q 615 158 618 176 q 610 130 611 140 q 605 104 608 119 q 599 80 601 89 q 594 59 597 71 q 586 41 590 47 q 578 28 582 35 q 549 17 568 17 q 501 56 529 17 q 458 150 472 94 q 239 17 328 17 q 110 83 179 17 q 40 215 40 149 q 100 403 40 281 q 263 629 160 525 q 468 733 367 733 m 233 192 q 381 267 289 192 q 496 458 474 343 q 519 478 497 475 q 493 557 515 557 q 369 485 438 557 q 256 331 300 413 q 213 210 213 249 q 216 195 213 199 q 233 192 219 192 z "},"ã":{"ha":719,"x_min":40,"x_max":846,"o":"m 790 1025 q 846 961 846 1025 q 791 828 846 897 q 688 760 736 760 q 592 800 640 760 q 510 906 544 840 q 466 860 485 893 q 426 801 447 826 q 374 775 406 775 q 320 792 342 775 q 299 842 299 810 q 359 972 299 904 q 479 1040 419 1040 q 574 1014 539 1040 q 631 953 608 988 q 668 913 654 919 q 697 950 681 919 q 790 1025 739 1025 m 468 733 q 603 665 526 733 q 679 541 679 597 q 638 411 679 485 q 663 371 663 389 q 646 296 663 353 q 624 208 629 239 q 615 158 618 176 q 610 130 611 140 q 605 104 608 119 q 599 80 601 89 q 594 59 597 71 q 586 41 590 47 q 578 28 582 35 q 549 17 568 17 q 501 56 529 17 q 458 150 472 94 q 239 17 328 17 q 110 83 179 17 q 40 215 40 149 q 100 403 40 281 q 263 629 160 525 q 468 733 367 733 m 233 192 q 381 267 289 192 q 496 458 474 343 q 519 478 497 475 q 493 557 515 557 q 369 485 438 557 q 256 331 300 413 q 213 210 213 249 q 216 195 213 199 q 233 192 219 192 z "},"ä":{"ha":719,"x_min":40,"x_max":796,"o":"m 606 905 q 606 921 606 905 q 635 972 606 938 q 692 1007 664 1007 q 758 939 721 1007 q 796 847 796 871 q 774 802 796 822 q 732 782 753 782 q 650 827 694 782 q 606 905 606 872 m 468 733 q 603 665 526 733 q 679 541 679 597 q 638 411 679 485 q 663 371 663 389 q 646 296 663 353 q 624 208 629 239 q 615 158 618 176 q 610 130 611 140 q 605 104 608 119 q 599 80 601 89 q 594 59 597 71 q 586 41 590 47 q 578 28 582 35 q 549 17 568 17 q 501 56 529 17 q 458 150 472 94 q 239 17 328 17 q 110 83 179 17 q 40 215 40 149 q 100 403 40 281 q 263 629 160 525 q 468 733 367 733 m 233 192 q 381 267 289 192 q 496 458 474 343 q 519 478 497 475 q 493 557 515 557 q 369 485 438 557 q 256 331 300 413 q 213 210 213 249 q 216 195 213 199 q 233 192 219 192 m 485 782 q 403 827 447 782 q 358 905 358 872 q 388 972 358 938 q 445 1007 417 1007 q 511 939 474 1007 q 549 847 549 871 q 527 802 549 822 q 485 782 506 782 z "},"å":{"ha":719,"x_min":40,"x_max":754,"o":"m 454 913 q 454 945 454 913 q 503 1026 454 978 q 614 1075 553 1075 q 715 1033 675 1075 q 754 926 754 992 q 705 813 754 861 q 594 764 656 764 q 494 806 533 764 q 454 913 454 847 m 567 914 q 567 903 567 914 q 577 878 567 892 q 602 864 588 864 q 628 881 617 864 q 640 921 640 899 q 631 956 640 943 q 606 969 621 969 q 578 953 590 969 q 567 914 567 936 m 468 733 q 603 665 526 733 q 679 541 679 597 q 638 411 679 485 q 663 371 663 389 q 646 296 663 353 q 624 208 629 239 q 615 158 618 176 q 610 130 611 140 q 605 104 608 119 q 599 80 601 89 q 594 59 597 71 q 586 41 590 47 q 578 28 582 35 q 549 17 568 17 q 501 56 529 17 q 458 150 472 94 q 239 17 328 17 q 110 83 179 17 q 40 215 40 149 q 100 403 40 281 q 263 629 160 525 q 468 733 367 733 m 233 192 q 381 267 289 192 q 496 458 474 343 q 519 478 497 475 q 493 557 515 557 q 369 485 438 557 q 256 331 300 413 q 213 210 213 249 q 216 195 213 199 q 233 192 219 192 z "},"æ":{"ha":1069,"x_min":40,"x_max":1082,"o":"m 499 557 q 315 416 418 557 q 213 210 213 275 q 244 192 213 192 q 351 236 276 192 q 471 351 425 281 q 528 488 486 415 q 499 557 519 557 m 921 496 q 895 539 921 515 q 840 563 869 563 q 769 524 811 563 q 692 429 726 486 q 731 428 704 428 q 921 496 921 428 m 244 17 q 112 83 183 17 q 40 215 40 150 q 102 402 40 279 q 269 629 164 525 q 474 733 374 733 q 558 706 508 733 q 643 638 607 678 q 838 733 743 733 q 1007 647 932 733 q 1082 474 1082 560 q 990 351 1082 406 q 799 297 897 297 q 639 311 701 297 q 628 235 628 271 q 640 183 628 199 q 703 167 653 167 q 881 186 807 167 q 958 206 956 206 q 1015 168 1015 206 q 926 65 1015 114 q 732 17 836 17 q 481 161 550 17 q 244 17 333 17 z "},"ç":{"ha":685,"x_min":28,"x_max":603,"o":"m 558 238 q 597 204 597 238 q 508 90 597 149 q 317 19 418 32 q 286 -39 299 -19 q 372 -71 326 -44 q 418 -128 418 -97 q 326 -236 417 -187 q 126 -285 236 -285 q 57 -267 86 -285 q 28 -231 28 -249 q 61 -203 28 -212 q 153 -184 94 -194 q 251 -154 213 -174 q 209 -137 239 -144 q 158 -124 179 -131 q 136 -106 136 -117 q 196 42 136 -81 q 84 130 133 74 q 35 235 35 186 q 96 449 35 332 q 256 649 157 565 q 451 732 356 732 q 551 669 500 732 q 603 556 603 606 q 569 519 603 519 q 524 535 553 519 q 464 550 494 550 q 377 498 433 550 q 277 373 321 446 q 233 258 233 300 q 249 204 233 217 q 327 192 265 192 q 440 203 389 192 q 515 226 490 214 q 558 238 539 238 z "},"è":{"ha":631,"x_min":21,"x_max":643,"o":"m 643 474 q 551 351 643 406 q 361 297 458 297 q 201 311 264 297 q 189 236 189 274 q 201 183 189 199 q 264 167 214 167 q 442 186 368 167 q 519 206 517 206 q 576 168 576 206 q 487 65 576 114 q 280 17 397 17 q 92 90 163 17 q 21 265 21 164 q 80 475 21 365 q 228 659 139 585 q 405 733 317 733 q 568 647 493 733 q 643 474 643 560 m 482 496 q 453 536 482 510 q 398 563 424 563 q 332 526 372 563 q 256 431 292 489 q 292 429 268 429 q 482 496 482 429 m 178 968 q 208 1045 178 1008 q 271 1082 239 1082 q 326 1051 296 1082 q 362 1015 338 1040 q 428 949 386 990 q 489 882 469 907 q 508 832 508 857 q 491 788 508 807 q 456 769 474 769 q 424 778 439 769 q 378 808 408 786 q 329 842 349 831 q 293 865 310 854 q 267 881 276 875 q 245 894 258 886 q 225 907 232 901 q 209 919 218 913 q 195 932 200 926 q 186 944 190 938 q 178 968 178 956 z "},"é":{"ha":631,"x_min":21,"x_max":675,"o":"m 586 1081 q 647 1042 619 1081 q 675 974 675 1004 q 670 930 675 943 q 648 904 665 917 q 615 883 631 892 q 560 856 599 875 q 499 825 522 838 q 453 797 476 813 q 388 769 411 769 q 349 790 365 769 q 333 837 333 810 q 350 890 333 864 q 401 944 367 915 q 460 995 435 972 q 499 1028 486 1018 q 526 1051 511 1039 q 550 1069 542 1064 q 586 1081 571 1081 m 80 475 q 109 530 80 475 q 228 659 139 585 q 405 733 317 733 q 568 647 493 733 q 643 474 643 560 q 551 351 643 406 q 361 297 458 297 q 201 311 264 297 q 189 236 189 274 q 201 183 189 199 q 264 167 214 167 q 442 186 368 167 q 519 206 517 206 q 576 168 576 206 q 487 65 576 114 q 280 17 397 17 q 92 90 163 17 q 21 265 21 164 q 80 475 21 365 m 292 429 q 482 496 482 429 q 453 536 482 510 q 398 563 424 563 q 332 526 372 563 q 256 431 292 489 q 292 429 268 429 z "},"ê":{"ha":631,"x_min":21,"x_max":643,"o":"m 643 474 q 551 351 643 406 q 361 297 458 297 q 201 311 264 297 q 189 236 189 274 q 201 183 189 199 q 264 167 214 167 q 442 186 368 167 q 519 206 517 206 q 576 168 576 206 q 487 65 576 114 q 280 17 397 17 q 92 90 163 17 q 21 265 21 164 q 80 475 21 365 q 228 659 139 585 q 405 733 317 733 q 568 647 493 733 q 643 474 643 560 m 482 496 q 453 536 482 510 q 398 563 424 563 q 332 526 372 563 q 256 431 292 489 q 292 429 268 429 q 482 496 482 429 m 325 847 q 308 833 325 847 q 269 806 290 819 q 224 792 249 792 q 182 811 199 792 q 165 860 165 831 q 267 985 165 926 q 304 1007 282 993 q 340 1029 326 1021 q 369 1046 354 1038 q 417 1063 401 1063 q 447 1047 433 1063 q 481 1001 461 1032 q 515 955 501 969 q 565 906 529 940 q 615 849 600 871 q 629 808 629 826 q 616 777 629 789 q 588 765 603 765 q 494 805 550 765 q 399 893 438 844 q 325 847 360 874 z "},"ë":{"ha":631,"x_min":21,"x_max":643,"o":"m 643 474 q 551 351 643 406 q 361 297 458 297 q 201 311 264 297 q 189 236 189 274 q 201 183 189 199 q 264 167 214 167 q 442 186 368 167 q 519 206 517 206 q 576 168 576 206 q 487 65 576 114 q 280 17 397 17 q 92 90 163 17 q 21 265 21 164 q 80 475 21 365 q 228 659 139 585 q 405 733 317 733 q 568 647 493 733 q 643 474 643 560 m 482 496 q 453 536 482 510 q 398 563 424 563 q 332 526 372 563 q 256 431 292 489 q 292 429 268 429 q 482 496 482 429 m 304 782 q 222 827 267 782 q 178 905 178 872 q 207 972 178 938 q 265 1007 236 1007 q 331 939 293 1007 q 368 847 368 871 q 347 802 368 822 q 304 782 325 782 m 551 782 q 469 827 514 782 q 425 905 425 872 q 454 972 425 938 q 512 1007 483 1007 q 578 939 540 1007 q 615 847 615 871 q 594 802 615 822 q 551 782 572 782 z "},"ì":{"ha":361,"x_min":61,"x_max":411,"o":"m 81 968 q 111 1045 81 1008 q 174 1082 142 1082 q 229 1051 199 1082 q 265 1015 240 1040 q 331 949 289 990 q 392 882 372 907 q 411 832 411 857 q 394 788 411 807 q 359 769 376 769 q 326 778 342 769 q 281 808 311 786 q 232 842 251 831 q 196 865 213 854 q 170 881 179 875 q 148 894 161 886 q 128 907 135 901 q 112 919 121 913 q 98 932 103 926 q 89 944 93 938 q 81 968 81 956 m 222 733 q 309 678 271 733 q 347 571 347 622 q 299 381 347 544 q 204 72 251 218 q 133 18 188 18 q 82 41 103 18 q 61 93 61 64 q 69 165 61 122 q 95 278 78 207 q 120 388 113 349 q 138 482 128 426 q 156 574 149 538 q 172 651 163 611 q 222 733 194 733 z "},"í":{"ha":361,"x_min":61,"x_max":578,"o":"m 222 733 q 309 678 271 733 q 347 571 347 622 q 299 381 347 544 q 204 72 251 218 q 133 18 188 18 q 82 41 103 18 q 61 93 61 64 q 69 165 61 122 q 95 278 78 207 q 120 388 113 349 q 138 482 128 426 q 156 574 149 538 q 172 651 163 611 q 222 733 194 733 m 291 769 q 280 769 291 769 q 252 790 268 769 q 236 837 236 810 q 253 890 236 864 q 303 944 269 915 q 363 995 338 972 q 401 1028 389 1018 q 429 1051 414 1039 q 453 1069 444 1064 q 489 1081 474 1081 q 550 1042 522 1081 q 578 974 578 1004 q 573 930 578 943 q 551 904 568 917 q 517 883 533 892 q 463 856 501 875 q 402 825 425 838 q 356 797 379 813 q 291 769 314 769 z "},"î":{"ha":361,"x_min":61,"x_max":532,"o":"m 222 733 q 309 678 271 733 q 347 571 347 622 q 299 381 347 544 q 204 72 251 218 q 133 18 188 18 q 82 41 103 18 q 61 93 61 64 q 69 165 61 122 q 95 278 78 207 q 120 388 113 349 q 138 482 128 426 q 156 574 149 538 q 172 651 163 611 q 222 733 194 733 m 273 1046 q 281 1050 273 1046 q 301 1058 289 1054 q 324 1063 313 1063 q 350 1047 336 1063 q 384 1001 364 1032 q 418 955 404 969 q 467 906 432 940 q 517 849 503 871 q 532 808 532 826 q 519 777 532 789 q 490 765 506 765 q 397 805 453 765 q 301 893 340 844 q 228 847 263 874 q 172 806 193 819 q 126 792 151 792 q 85 811 101 792 q 68 860 68 831 q 169 985 68 926 q 207 1007 185 993 q 243 1029 229 1021 q 273 1046 257 1038 z "},"ï":{"ha":361,"x_min":61,"x_max":518,"o":"m 222 733 q 309 678 271 733 q 347 571 347 622 q 299 381 347 544 q 204 72 251 218 q 133 18 188 18 q 82 41 103 18 q 61 93 61 64 q 69 165 61 122 q 95 278 78 207 q 120 388 113 349 q 138 482 128 426 q 156 574 149 538 q 172 651 163 611 q 222 733 194 733 m 328 905 q 328 921 328 905 q 357 972 328 938 q 415 1007 386 1007 q 481 939 443 1007 q 518 847 518 871 q 497 802 518 822 q 454 782 475 782 q 372 827 417 782 q 328 905 328 872 m 81 905 q 81 921 81 905 q 110 972 81 938 q 167 1007 139 1007 q 233 939 196 1007 q 271 847 271 871 q 249 802 271 822 q 207 782 228 782 q 125 827 169 782 q 81 905 81 872 z "},"ð":{"ha":628,"x_min":11,"x_max":656,"o":"m 656 883 q 557 806 656 854 q 615 562 615 696 q 570 303 615 428 q 432 97 525 178 q 215 17 339 17 q 74 87 138 17 q 11 250 11 157 q 110 531 11 418 q 324 644 208 644 q 417 607 369 644 q 389 742 413 681 q 233 706 278 706 q 189 739 189 706 q 224 783 189 765 q 292 810 258 800 q 328 822 326 821 q 332 823 329 822 q 338 825 335 824 q 322 842 333 831 q 253 879 288 879 q 219 871 244 879 q 183 863 194 863 q 153 903 153 863 q 199 978 153 944 q 294 1013 246 1013 q 400 977 342 1013 q 507 881 458 942 q 617 914 600 914 q 644 904 633 914 q 656 883 656 894 m 240 158 q 347 259 283 158 q 418 492 411 360 q 369 517 393 517 q 261 442 325 517 q 197 275 197 367 q 209 197 197 236 q 240 158 221 158 z "},"ñ":{"ha":767,"x_min":21,"x_max":726,"o":"m 544 733 q 672 669 617 733 q 726 531 726 604 q 688 284 726 413 q 605 86 650 156 q 513 17 560 17 q 467 82 467 17 q 513 283 467 132 q 547 463 547 408 q 533 517 547 517 q 498 499 515 517 q 469 467 481 481 q 444 431 458 453 q 419 392 429 410 q 392 348 408 375 q 367 303 376 321 q 342 258 357 286 q 139 17 213 17 q 65 67 110 17 q 21 142 21 118 q 41 208 21 157 q 70 285 61 258 q 85 343 79 313 q 96 409 92 374 q 102 464 100 444 q 107 525 104 483 q 128 725 119 706 q 149 744 138 744 q 250 701 201 744 q 299 621 299 657 q 254 374 299 535 q 419 633 344 532 q 544 733 493 733 m 331 860 q 322 843 331 860 q 292 801 313 826 q 239 775 271 775 q 185 792 207 775 q 164 842 164 810 q 224 972 164 904 q 344 1040 285 1040 q 439 1014 404 1040 q 497 953 474 988 q 533 913 519 919 q 563 950 546 919 q 656 1025 604 1025 q 711 961 711 1025 q 656 828 711 897 q 553 760 601 760 q 458 800 506 760 q 375 906 410 840 q 331 860 350 893 z "},"ò":{"ha":628,"x_min":28,"x_max":599,"o":"m 225 968 q 256 1045 225 1008 q 318 1082 286 1082 q 374 1051 343 1082 q 409 1015 385 1040 q 475 949 433 990 q 536 882 517 907 q 556 832 556 857 q 538 788 556 807 q 503 769 521 769 q 471 778 486 769 q 426 808 456 786 q 376 842 396 831 q 340 865 357 854 q 315 881 324 875 q 292 894 306 886 q 272 907 279 901 q 256 919 265 913 q 242 932 247 926 q 233 944 238 938 q 225 968 225 956 m 231 158 q 361 293 306 192 q 417 483 417 394 q 392 606 417 572 q 273 460 332 571 q 214 265 214 349 q 231 158 214 181 m 28 250 q 135 579 28 424 q 349 735 243 735 q 526 660 454 735 q 599 481 599 586 q 549 268 599 376 q 408 88 499 160 q 215 17 318 17 q 83 85 139 17 q 28 250 28 153 z "},"ó":{"ha":628,"x_min":28,"x_max":722,"o":"m 231 158 q 361 293 306 192 q 417 483 417 394 q 392 606 417 572 q 273 460 332 571 q 214 265 214 349 q 231 158 214 181 m 28 250 q 135 579 28 424 q 349 735 243 735 q 526 660 454 735 q 599 481 599 586 q 549 268 599 376 q 408 88 499 160 q 215 17 318 17 q 83 85 139 17 q 28 250 28 153 m 435 769 q 424 769 435 769 q 397 790 413 769 q 381 837 381 810 q 397 890 381 864 q 448 944 414 915 q 508 995 482 972 q 546 1028 533 1018 q 574 1051 558 1039 q 597 1069 589 1064 q 633 1081 618 1081 q 694 1042 667 1081 q 722 974 722 1004 q 717 930 722 943 q 695 904 713 917 q 662 883 678 892 q 608 856 646 875 q 547 825 569 838 q 500 797 524 813 q 435 769 458 769 z "},"ô":{"ha":628,"x_min":28,"x_max":676,"o":"m 231 158 q 361 293 306 192 q 417 483 417 394 q 392 606 417 572 q 273 460 332 571 q 214 265 214 349 q 231 158 214 181 m 28 250 q 135 579 28 424 q 349 735 243 735 q 526 660 454 735 q 599 481 599 586 q 549 268 599 376 q 408 88 499 160 q 215 17 318 17 q 83 85 139 17 q 28 250 28 153 m 417 1046 q 425 1050 417 1046 q 445 1058 433 1054 q 469 1063 457 1063 q 494 1047 481 1063 q 528 1001 508 1032 q 563 955 549 969 q 612 906 576 940 q 662 849 647 871 q 676 808 676 826 q 663 777 676 789 q 635 765 650 765 q 541 805 597 765 q 446 893 485 844 q 372 847 407 874 q 317 806 338 819 q 271 792 296 792 q 229 811 246 792 q 213 860 213 831 q 314 985 213 926 q 351 1007 329 993 q 388 1029 374 1021 q 417 1046 401 1038 z "},"õ":{"ha":628,"x_min":28,"x_max":713,"o":"m 165 842 q 226 972 165 904 q 346 1040 286 1040 q 440 1014 406 1040 q 498 953 475 988 q 535 913 521 919 q 564 950 547 919 q 657 1025 606 1025 q 713 961 713 1025 q 658 828 713 897 q 555 760 603 760 q 459 800 507 760 q 376 906 411 840 q 333 860 351 893 q 293 801 314 826 q 240 775 272 775 q 187 792 208 775 q 165 842 165 810 m 231 158 q 361 293 306 192 q 417 483 417 394 q 392 606 417 572 q 273 460 332 571 q 214 265 214 349 q 231 158 214 181 m 28 250 q 135 579 28 424 q 349 735 243 735 q 526 660 454 735 q 599 481 599 586 q 549 268 599 376 q 408 88 499 160 q 215 17 318 17 q 83 85 139 17 q 28 250 28 153 z "},"ö":{"ha":628,"x_min":28,"x_max":663,"o":"m 231 158 q 361 293 306 192 q 417 483 417 394 q 392 606 417 572 q 273 460 332 571 q 214 265 214 349 q 231 158 214 181 m 28 250 q 135 579 28 424 q 349 735 243 735 q 526 660 454 735 q 599 481 599 586 q 549 268 599 376 q 408 88 499 160 q 215 17 318 17 q 83 85 139 17 q 28 250 28 153 m 472 905 q 472 921 472 905 q 501 972 472 938 q 559 1007 531 1007 q 625 939 588 1007 q 663 847 663 871 q 641 802 663 822 q 599 782 619 782 q 517 827 561 782 q 472 905 472 872 m 225 905 q 225 921 225 905 q 254 972 225 938 q 312 1007 283 1007 q 378 939 340 1007 q 415 847 415 871 q 394 802 415 822 q 351 782 372 782 q 269 827 314 782 q 225 905 225 872 z "},"÷":{"ha":833,"x_min":26,"x_max":918,"o":"m 567 610 q 468 664 522 610 q 414 758 414 718 q 448 838 414 797 q 517 878 482 878 q 597 799 553 878 q 642 681 642 721 q 617 635 642 660 q 567 610 592 610 m 414 53 q 316 107 371 53 q 261 200 261 161 q 296 279 261 239 q 365 319 331 319 q 445 241 400 319 q 490 133 490 163 q 465 78 490 103 q 414 53 439 53 m 918 522 q 826 446 918 478 q 594 399 733 414 q 132 371 340 371 q 58 412 89 371 q 26 491 26 453 q 69 529 26 529 q 347 546 74 529 q 769 563 619 563 q 918 522 918 563 z "},"ø":{"ha":628,"x_min":14,"x_max":713,"o":"m 682 490 q 619 276 682 386 q 454 91 557 165 q 249 17 351 17 q 131 64 196 17 q 42 14 69 14 q 14 40 14 14 q 69 126 14 57 q 28 250 28 186 q 90 469 28 356 q 249 659 151 583 q 432 735 346 735 q 581 688 518 735 q 661 735 635 735 q 700 723 688 735 q 713 693 713 711 q 660 596 713 654 l 658 594 q 682 490 682 543 m 185 261 l 485 590 q 444 606 465 606 q 338 541 399 606 q 233 394 276 476 q 185 261 189 313 m 249 139 q 417 246 332 139 q 529 456 501 353 q 226 149 350 268 q 249 139 239 139 z "},"ù":{"ha":665,"x_min":10,"x_max":683,"o":"m 518 699 q 563 733 529 733 q 640 676 596 733 q 683 578 683 619 q 619 374 683 563 q 521 75 556 185 q 456 17 501 17 q 409 37 428 17 q 390 100 390 57 q 407 222 390 143 q 179 17 264 17 q 72 74 135 17 q 10 186 10 132 q 85 526 10 319 q 228 733 161 733 q 299 697 268 733 q 331 618 331 661 q 296 525 331 601 q 190 201 190 290 q 197 193 190 193 q 276 259 218 193 q 405 448 333 325 q 518 699 476 571 m 221 968 q 251 1045 221 1008 q 314 1082 282 1082 q 369 1051 339 1082 q 405 1015 381 1040 q 471 949 429 990 q 532 882 513 907 q 551 832 551 857 q 534 788 551 807 q 499 769 517 769 q 467 778 482 769 q 422 808 451 786 q 372 842 392 831 q 336 865 353 854 q 310 881 319 875 q 288 894 301 886 q 268 907 275 901 q 252 919 261 913 q 238 932 243 926 q 229 944 233 938 q 221 968 221 956 z "},"ú":{"ha":665,"x_min":10,"x_max":718,"o":"m 629 1081 q 690 1042 663 1081 q 718 974 718 1004 q 713 930 718 943 q 691 904 708 917 q 658 883 674 892 q 603 856 642 875 q 542 825 565 838 q 494 797 519 813 q 431 769 454 769 q 392 790 408 769 q 376 837 376 810 q 393 890 376 864 q 444 944 410 915 q 503 995 478 972 q 542 1028 529 1018 q 569 1051 554 1039 q 593 1069 585 1064 q 629 1081 614 1081 m 518 699 q 563 733 529 733 q 640 676 596 733 q 683 578 683 619 q 619 374 683 563 q 521 75 556 185 q 456 17 501 17 q 409 37 428 17 q 390 100 390 57 q 407 222 390 143 q 179 17 264 17 q 72 74 135 17 q 10 186 10 132 q 85 526 10 319 q 228 733 161 733 q 299 697 268 733 q 331 618 331 661 q 296 525 331 601 q 190 201 190 290 q 197 193 190 193 q 276 259 218 193 q 405 448 333 325 q 518 699 476 571 z "},"û":{"ha":665,"x_min":10,"x_max":683,"o":"m 518 699 q 563 733 529 733 q 640 676 596 733 q 683 578 683 619 q 619 374 683 563 q 521 75 556 185 q 456 17 501 17 q 409 37 428 17 q 390 100 390 57 q 407 222 390 143 q 179 17 264 17 q 72 74 135 17 q 10 186 10 132 q 85 526 10 319 q 228 733 161 733 q 299 697 268 733 q 331 618 331 661 q 296 525 331 601 q 190 201 190 290 q 197 193 190 193 q 276 259 218 193 q 405 448 333 325 q 518 699 476 571 m 368 847 q 351 833 368 847 q 313 806 333 819 q 267 792 292 792 q 225 811 242 792 q 208 860 208 831 q 310 985 208 926 q 347 1007 325 993 q 383 1029 369 1021 q 414 1046 397 1038 q 460 1063 444 1063 q 490 1047 476 1063 q 524 1001 504 1032 q 558 955 544 969 q 608 906 572 940 q 658 849 643 871 q 672 808 672 826 q 659 777 672 789 q 631 765 646 765 q 537 805 593 765 q 442 893 481 844 q 368 847 403 874 z "},"ü":{"ha":665,"x_min":10,"x_max":683,"o":"m 518 699 q 563 733 529 733 q 640 676 596 733 q 683 578 683 619 q 619 374 683 563 q 521 75 556 185 q 456 17 501 17 q 409 37 428 17 q 390 100 390 57 q 407 222 390 143 q 179 17 264 17 q 72 74 135 17 q 10 186 10 132 q 85 526 10 319 q 228 733 161 733 q 299 697 268 733 q 331 618 331 661 q 296 525 331 601 q 190 201 190 290 q 197 193 190 193 q 276 259 218 193 q 405 448 333 325 q 518 699 476 571 m 347 782 q 265 827 310 782 q 221 905 221 872 q 250 972 221 938 q 308 1007 279 1007 q 374 939 336 1007 q 411 847 411 871 q 390 802 411 822 q 347 782 368 782 m 594 782 q 513 827 557 782 q 468 905 468 872 q 497 972 468 938 q 555 1007 526 1007 q 621 939 583 1007 q 658 847 658 871 q 637 802 658 822 q 594 782 615 782 z "},"ý":{"ha":722,"x_min":-22,"x_max":754,"o":"m 665 1081 q 726 1042 699 1081 q 754 974 754 1004 q 749 930 754 943 q 727 904 744 917 q 694 883 710 892 q 640 856 678 875 q 578 825 601 838 q 531 797 556 813 q 467 769 490 769 q 428 790 444 769 q 413 837 413 810 q 429 890 413 864 q 480 944 446 915 q 540 995 514 972 q 578 1028 565 1018 q 606 1051 590 1039 q 629 1069 621 1064 q 665 1081 650 1081 m 553 699 q 599 733 561 733 q 676 686 636 733 q 715 579 715 639 q 690 469 715 544 q 655 363 665 394 q 625 276 644 331 q 590 174 606 221 q 547 50 574 128 q 497 -94 519 -28 q 392 -287 454 -219 q 232 -356 331 -356 q 56 -303 133 -356 q -22 -199 -22 -251 q 6 -128 -22 -167 q 55 -89 35 -89 q 108 -122 75 -89 q 175 -187 140 -154 q 236 -219 210 -219 q 266 -203 254 -219 q 285 -173 278 -186 q 301 -137 293 -160 q 317 -94 310 -114 q 333 -43 324 -75 q 350 14 343 -11 q 390 147 374 89 q 296 52 344 88 q 206 17 247 17 q 105 78 165 17 q 44 215 44 140 q 77 414 44 289 q 158 636 110 539 q 244 733 207 733 q 326 697 288 733 q 364 626 364 660 q 330 517 364 592 q 261 353 296 442 q 226 201 226 264 q 233 193 226 193 q 310 260 251 193 q 441 452 368 328 q 553 699 514 576 z "},"þ":{"ha":731,"x_min":-37,"x_max":719,"o":"m 339 683 q 481 711 419 711 q 631 623 542 711 q 719 451 719 535 q 640 285 719 368 q 459 157 560 203 q 283 111 358 111 q 208 126 243 111 q 79 -278 106 -278 q 6 -229 50 -278 q -37 -151 -37 -181 q 22 106 -37 -121 q 140 619 81 333 q 200 1079 200 906 q 240 1121 200 1121 q 328 1060 274 1121 q 382 947 382 1000 q 339 683 382 894 m 272 257 q 381 285 315 257 q 500 363 446 313 q 554 464 554 413 q 525 517 554 497 q 460 536 496 536 q 375 516 425 536 q 293 472 325 496 q 240 257 256 317 l 272 257 z "},"ÿ":{"ha":722,"x_min":-22,"x_max":715,"o":"m 553 699 q 599 733 561 733 q 676 686 636 733 q 715 579 715 639 q 690 469 715 544 q 655 363 665 394 q 625 276 644 331 q 590 174 606 221 q 547 50 574 128 q 497 -94 519 -28 q 392 -287 454 -219 q 232 -356 331 -356 q 56 -303 133 -356 q -22 -199 -22 -251 q 6 -128 -22 -167 q 55 -89 35 -89 q 108 -122 75 -89 q 175 -187 140 -154 q 236 -219 210 -219 q 266 -203 254 -219 q 285 -173 278 -186 q 301 -137 293 -160 q 317 -94 310 -114 q 333 -43 324 -75 q 350 14 343 -11 q 390 147 374 89 q 296 52 344 88 q 206 17 247 17 q 105 78 165 17 q 44 215 44 140 q 77 414 44 289 q 158 636 110 539 q 244 733 207 733 q 326 697 288 733 q 364 626 364 660 q 330 517 364 592 q 261 353 296 442 q 226 201 226 264 q 233 193 226 193 q 310 260 251 193 q 441 452 368 328 q 553 699 514 576 m 383 782 q 301 827 346 782 q 257 905 257 872 q 286 972 257 938 q 344 1007 315 1007 q 410 939 372 1007 q 447 847 447 871 q 426 802 447 822 q 383 782 404 782 m 631 782 q 549 827 593 782 q 504 905 504 872 q 533 972 504 938 q 591 1007 563 1007 q 657 939 619 1007 q 694 847 694 871 q 673 802 694 822 q 631 782 651 782 z "},"Ā":{"ha":876,"x_min":43,"x_max":810,"o":"m 706 539 q 785 528 761 539 q 810 490 810 518 q 689 414 810 453 q 692 212 692 308 q 676 67 692 115 q 628 19 661 19 q 576 53 594 19 q 545 165 557 88 q 521 371 533 243 q 317 319 379 339 q 172 19 208 19 q 95 58 143 19 q 47 139 47 97 q 101 286 47 163 q 60 330 78 301 q 43 385 43 358 q 181 472 43 431 q 203 535 192 500 q 263 701 215 571 q 339 919 311 832 q 426 997 351 961 q 542 1033 500 1033 q 628 899 590 1033 q 682 539 667 764 l 706 539 m 385 515 q 506 529 426 521 q 492 667 501 569 q 479 807 483 764 q 385 515 456 729 m 247 1213 q 343 1260 247 1250 q 633 1269 439 1269 q 743 1228 743 1269 q 699 1189 743 1201 q 568 1162 656 1176 q 433 1139 481 1147 q 324 1123 350 1122 q 272 1155 297 1124 q 247 1213 247 1186 z "},"ā":{"ha":719,"x_min":40,"x_max":815,"o":"m 706 942 q 815 900 815 942 q 772 861 815 874 q 640 834 728 849 q 506 811 553 819 q 396 795 422 794 q 344 827 369 796 q 319 885 319 858 q 415 932 319 922 q 706 942 511 942 m 468 733 q 603 665 526 733 q 679 541 679 597 q 638 411 679 485 q 663 371 663 389 q 646 296 663 353 q 624 208 629 239 q 615 158 618 176 q 610 130 611 140 q 605 104 608 119 q 599 80 601 89 q 594 59 597 71 q 586 41 590 47 q 578 28 582 35 q 549 17 568 17 q 501 56 529 17 q 458 150 472 94 q 239 17 328 17 q 110 83 179 17 q 40 215 40 149 q 100 403 40 281 q 263 629 160 525 q 468 733 367 733 m 233 192 q 381 267 289 192 q 496 458 474 343 q 519 478 497 475 q 493 557 515 557 q 369 485 438 557 q 256 331 300 413 q 213 210 213 249 q 216 195 213 199 q 233 192 219 192 z "},"Ă":{"ha":876,"x_min":43,"x_max":810,"o":"m 706 539 q 785 528 761 539 q 810 490 810 518 q 689 414 810 453 q 692 212 692 308 q 676 67 692 115 q 628 19 661 19 q 576 53 594 19 q 545 165 557 88 q 521 371 533 243 q 317 319 379 339 q 172 19 208 19 q 95 58 143 19 q 47 139 47 97 q 101 286 47 163 q 60 330 78 301 q 43 385 43 358 q 181 472 43 431 q 203 535 192 500 q 263 701 215 571 q 339 919 311 832 q 426 997 351 961 q 542 1033 500 1033 q 628 899 590 1033 q 682 539 667 764 l 706 539 m 385 515 q 506 529 426 521 q 492 667 501 569 q 479 807 483 764 q 385 515 456 729 m 769 1288 q 688 1159 769 1224 q 517 1094 607 1094 q 367 1154 428 1094 q 307 1274 307 1214 q 340 1363 307 1335 q 403 1392 372 1392 q 450 1311 431 1392 q 481 1257 458 1282 q 543 1232 504 1232 q 615 1257 582 1232 q 675 1307 649 1282 q 724 1332 701 1332 q 758 1319 746 1332 q 769 1288 769 1307 z "},"ă":{"ha":719,"x_min":40,"x_max":842,"o":"m 688 929 q 704 942 688 929 q 747 979 721 954 q 796 1004 774 1004 q 830 992 818 1004 q 842 960 842 979 q 760 831 842 896 q 590 767 679 767 q 440 826 500 767 q 379 947 379 886 q 412 1035 379 1007 q 475 1064 444 1064 q 522 983 503 1064 q 553 929 531 954 q 615 904 576 904 q 688 929 654 904 m 468 733 q 603 665 526 733 q 679 541 679 597 q 638 411 679 485 q 663 371 663 389 q 646 296 663 353 q 624 208 629 239 q 615 158 618 176 q 610 130 611 140 q 605 104 608 119 q 599 80 601 89 q 594 59 597 71 q 586 41 590 47 q 578 28 582 35 q 549 17 568 17 q 501 56 529 17 q 458 150 472 94 q 239 17 328 17 q 110 83 179 17 q 40 215 40 149 q 100 403 40 281 q 263 629 160 525 q 468 733 367 733 m 233 192 q 381 267 289 192 q 496 458 474 343 q 519 478 497 475 q 493 557 515 557 q 369 485 438 557 q 256 331 300 413 q 213 210 213 249 q 216 195 213 199 q 233 192 219 192 z "},"Ą":{"ha":876,"x_min":43,"x_max":810,"o":"m 554 118 q 521 371 539 192 q 317 319 379 339 q 172 19 208 19 q 95 58 143 19 q 47 139 47 97 q 101 286 47 163 q 60 330 78 301 q 43 385 43 358 q 181 472 43 431 q 203 535 192 500 q 263 701 215 571 q 339 919 311 832 q 426 997 351 961 q 542 1033 500 1033 q 628 899 590 1033 q 682 539 667 764 l 706 539 q 785 528 761 539 q 810 490 810 518 q 689 414 810 453 q 692 246 692 308 q 650 26 692 53 q 610 -15 636 8 q 565 -55 583 -37 q 547 -83 547 -72 q 590 -99 547 -99 l 642 -94 q 684 -115 664 -94 q 704 -156 704 -136 q 493 -235 704 -235 q 408 -208 444 -235 q 371 -149 371 -182 q 433 -5 371 -92 q 554 118 494 82 m 385 515 q 506 529 426 521 q 492 667 501 569 q 479 807 483 764 q 385 515 456 729 z "},"ą":{"ha":719,"x_min":40,"x_max":679,"o":"m 517 -100 l 568 -96 q 610 -116 589 -96 q 631 -157 631 -136 q 419 -236 631 -236 q 334 -210 371 -236 q 297 -150 297 -183 q 354 -13 297 -96 q 471 110 411 69 q 458 150 463 128 q 239 17 328 17 q 110 83 179 17 q 40 215 40 149 q 100 403 40 281 q 263 629 160 525 q 468 733 367 733 q 603 665 526 733 q 679 541 679 597 q 638 411 679 485 q 663 371 663 389 q 646 296 663 353 q 615 161 629 239 q 593 58 601 83 q 530 -22 586 26 q 474 -85 474 -71 q 517 -100 474 -100 m 233 192 q 381 267 289 192 q 496 458 474 343 q 519 478 497 475 q 493 557 515 557 q 369 485 438 557 q 256 331 300 413 q 213 210 213 249 q 216 195 213 199 q 233 192 219 192 z "},"Ć":{"ha":874,"x_min":51,"x_max":935,"o":"m 648 1097 q 636 1097 648 1097 q 609 1117 625 1097 q 593 1165 593 1138 q 610 1217 593 1192 q 660 1272 626 1243 q 720 1323 694 1300 q 758 1356 746 1346 q 786 1379 771 1367 q 810 1397 801 1392 q 846 1408 831 1408 q 907 1370 879 1408 q 935 1301 935 1332 q 930 1258 935 1271 q 908 1232 925 1244 q 874 1211 890 1219 q 820 1184 858 1203 q 759 1153 782 1165 q 711 1125 736 1140 q 648 1097 671 1097 m 613 1038 q 697 969 651 1038 q 743 856 743 900 q 725 811 743 811 q 690 817 717 811 q 643 822 663 822 q 481 733 574 822 q 322 521 388 644 q 256 307 256 397 q 269 242 256 263 q 319 222 283 222 q 514 251 415 222 q 676 310 613 281 q 749 340 740 340 q 767 324 758 340 q 776 286 776 308 q 701 174 776 239 q 520 64 626 110 q 328 18 414 18 q 147 122 242 18 q 51 321 51 226 q 136 622 51 453 q 355 914 221 790 q 613 1038 489 1038 z "},"ć":{"ha":685,"x_min":50,"x_max":742,"o":"m 50 235 q 111 449 50 332 q 272 649 172 565 q 467 732 371 732 q 567 669 515 732 q 618 556 618 606 q 585 519 618 519 q 539 535 568 519 q 479 550 510 550 q 392 498 449 550 q 292 373 336 446 q 249 258 249 300 q 265 204 249 217 q 342 192 281 192 q 455 203 404 192 q 530 226 506 214 q 574 238 554 238 q 613 204 613 238 q 506 80 613 143 q 292 17 399 17 q 137 92 224 17 q 50 235 50 168 m 455 769 q 443 769 455 769 q 416 790 432 769 q 400 837 400 810 q 417 890 400 864 q 467 944 433 915 q 527 995 501 972 q 565 1028 553 1018 q 593 1051 578 1039 q 617 1069 608 1064 q 653 1081 638 1081 q 714 1042 686 1081 q 742 974 742 1004 q 737 930 742 943 q 715 904 732 917 q 681 883 697 892 q 627 856 665 875 q 566 825 589 838 q 519 797 543 813 q 455 769 478 769 z "},"Č":{"ha":874,"x_min":51,"x_max":882,"o":"m 831 1339 q 882 1290 882 1339 q 860 1247 882 1267 q 824 1218 838 1228 q 788 1192 811 1208 q 751 1166 765 1176 q 717 1138 738 1156 q 683 1111 696 1121 q 632 1086 654 1086 q 512 1173 600 1086 q 424 1311 424 1260 q 441 1365 424 1343 q 486 1386 458 1386 q 535 1370 514 1386 q 588 1317 556 1354 q 650 1256 619 1281 q 831 1339 765 1339 m 613 1038 q 697 969 651 1038 q 743 856 743 900 q 725 811 743 811 q 690 817 717 811 q 643 822 663 822 q 481 733 574 822 q 322 521 388 644 q 256 307 256 397 q 269 242 256 263 q 319 222 283 222 q 514 251 415 222 q 676 310 613 281 q 749 340 740 340 q 767 324 758 340 q 776 286 776 308 q 701 174 776 239 q 520 64 626 110 q 328 18 414 18 q 147 122 242 18 q 51 321 51 226 q 136 622 51 453 q 355 914 221 790 q 613 1038 489 1038 z "},"č":{"ha":685,"x_min":50,"x_max":689,"o":"m 50 235 q 111 449 50 332 q 272 649 172 565 q 467 732 371 732 q 567 669 515 732 q 618 556 618 606 q 585 519 618 519 q 539 535 568 519 q 479 550 510 550 q 392 498 449 550 q 292 373 336 446 q 249 258 249 300 q 265 204 249 217 q 342 192 281 192 q 455 203 404 192 q 530 226 506 214 q 574 238 554 238 q 613 204 613 238 q 506 80 613 143 q 292 17 399 17 q 137 92 224 17 q 50 235 50 168 m 638 1011 q 689 963 689 1011 q 667 919 689 939 q 631 890 644 900 q 595 865 618 881 q 558 838 572 849 q 524 810 544 828 q 492 783 503 793 q 439 758 461 758 q 319 845 407 758 q 231 983 231 932 q 248 1037 231 1015 q 293 1058 265 1058 q 342 1042 321 1058 q 394 990 363 1026 q 457 928 426 953 q 638 1011 572 1011 z "},"Ď":{"ha":925,"x_min":72,"x_max":888,"o":"m 153 1038 q 390 993 261 1038 q 628 876 518 949 q 813 703 739 804 q 888 497 888 601 q 762 303 888 419 q 471 103 636 188 q 200 18 306 18 q 124 80 176 18 q 72 171 72 142 q 148 488 72 228 q 242 846 224 749 q 158 926 192 879 q 125 1005 125 972 q 153 1038 125 1038 m 688 536 q 606 653 688 581 q 415 775 524 726 q 297 329 407 671 q 280 270 292 311 q 263 215 268 229 q 543 370 399 261 q 688 536 688 479 m 617 1003 q 497 1090 585 1003 q 408 1228 408 1176 q 426 1281 408 1260 q 471 1303 443 1303 q 519 1287 499 1303 q 572 1234 540 1271 q 635 1172 604 1197 q 815 1256 750 1256 q 867 1207 867 1256 q 844 1164 867 1183 q 809 1135 822 1144 q 773 1109 796 1125 q 736 1083 750 1093 q 701 1055 722 1072 q 669 1028 681 1038 q 617 1003 639 1003 z "},"ď":{"ha":1082,"x_min":56,"x_max":1082,"o":"m 946 1101 q 1041 1062 1000 1101 q 1082 981 1082 1022 q 1006 836 1082 908 q 850 764 931 764 q 801 807 801 764 q 856 878 801 835 q 928 949 910 921 q 840 1013 840 949 q 878 1070 840 1039 q 946 1101 917 1101 m 426 119 l 426 129 q 230 17 292 17 q 112 81 168 17 q 56 199 56 146 q 70 316 56 251 q 115 453 85 381 q 185 588 146 525 q 281 692 225 651 q 397 733 338 733 q 543 642 486 733 q 615 1081 615 958 q 656 1122 615 1122 q 743 1062 689 1122 q 797 949 797 1001 q 749 729 797 922 q 690 496 700 536 q 528 17 579 17 q 463 51 499 17 q 426 119 426 86 m 246 193 q 363 253 281 193 q 486 404 446 313 q 485 453 485 415 q 460 524 485 490 q 414 557 435 557 q 334 513 372 557 q 274 407 296 468 q 226 211 226 278 q 230 197 226 200 q 246 193 233 193 z "},"Đ":{"ha":925,"x_min":25,"x_max":888,"o":"m 153 1038 q 390 993 261 1038 q 628 876 518 949 q 813 703 739 804 q 888 497 888 601 q 762 303 888 419 q 471 103 636 188 q 200 18 306 18 q 124 80 176 18 q 72 171 72 142 q 121 392 72 222 q 51 425 76 399 q 25 496 25 451 q 100 561 25 553 q 138 565 113 563 q 171 569 164 568 q 242 846 221 740 q 158 926 192 879 q 125 1005 125 972 q 153 1038 125 1038 m 688 536 q 606 653 688 581 q 415 775 524 726 q 379 600 411 721 q 419 603 413 603 q 531 578 486 603 q 576 508 576 554 q 551 466 576 485 q 497 443 526 447 q 325 414 467 439 q 281 275 294 321 q 263 215 268 229 q 543 370 399 261 q 688 536 688 479 z "},"đ":{"ha":706,"x_min":56,"x_max":986,"o":"m 876 939 q 986 897 986 939 q 944 858 986 871 q 771 825 901 846 q 690 496 701 540 q 528 17 579 17 q 463 51 499 17 q 426 119 426 86 q 428 131 426 126 q 228 17 289 17 q 112 81 168 17 q 56 199 56 146 q 70 316 56 251 q 115 453 85 381 q 185 588 146 525 q 281 692 225 651 q 397 733 338 733 q 543 643 486 733 q 575 792 565 743 l 568 792 q 515 824 540 793 q 490 882 490 856 q 601 931 490 919 q 616 1076 617 1029 q 656 1122 615 1122 q 743 1062 689 1122 q 797 949 797 1001 q 796 939 797 943 l 876 939 m 246 193 q 363 253 281 193 q 486 404 446 313 q 485 453 485 415 q 460 524 485 490 q 414 557 435 557 q 334 513 372 557 q 274 407 296 468 q 226 211 226 278 q 230 197 226 200 q 246 193 233 193 z "},"Ē":{"ha":765,"x_min":35,"x_max":821,"o":"m 344 601 q 503 609 418 601 q 608 617 588 617 q 640 607 628 617 q 651 583 651 597 q 536 486 651 522 q 290 444 421 450 q 236 232 236 276 q 260 208 236 208 q 586 250 418 208 q 651 265 643 265 q 678 228 678 265 q 604 131 678 178 q 419 56 531 83 q 201 28 308 28 q 86 76 138 28 q 35 188 35 124 q 106 513 35 253 q 182 904 178 772 q 181 921 181 908 q 186 951 181 940 q 271 1001 201 990 q 521 1011 340 1011 q 821 944 821 1011 q 747 885 821 901 q 610 864 697 874 q 369 819 475 849 q 336 601 369 725 l 344 601 m 263 1213 q 358 1260 263 1250 q 649 1269 454 1269 q 758 1228 758 1269 q 715 1189 758 1201 q 583 1162 671 1176 q 449 1139 496 1147 q 339 1123 365 1122 q 288 1155 313 1124 q 263 1213 263 1186 z "},"ē":{"ha":631,"x_min":21,"x_max":643,"o":"m 643 474 q 551 351 643 406 q 361 297 458 297 q 201 311 264 297 q 189 236 189 274 q 201 183 189 199 q 264 167 214 167 q 442 186 368 167 q 519 206 517 206 q 576 168 576 206 q 487 65 576 114 q 280 17 397 17 q 92 90 163 17 q 21 265 21 164 q 80 475 21 365 q 228 659 139 585 q 405 733 317 733 q 568 647 493 733 q 643 474 643 560 m 482 496 q 453 536 482 510 q 398 563 424 563 q 332 526 372 563 q 256 431 292 489 q 292 429 268 429 q 482 496 482 429 m 139 885 q 235 932 139 922 q 525 942 331 942 q 635 900 635 942 q 591 861 635 874 q 460 834 547 849 q 325 811 372 819 q 215 795 242 794 q 164 827 189 796 q 139 885 139 858 z "},"Ė":{"ha":765,"x_min":35,"x_max":821,"o":"m 344 601 q 503 609 418 601 q 608 617 588 617 q 640 607 628 617 q 651 583 651 597 q 536 486 651 522 q 290 444 421 450 q 236 232 236 276 q 260 208 236 208 q 586 250 418 208 q 651 265 643 265 q 678 228 678 265 q 604 131 678 178 q 419 56 531 83 q 201 28 308 28 q 86 76 138 28 q 35 188 35 124 q 106 513 35 253 q 182 904 178 772 q 181 921 181 908 q 186 951 181 940 q 271 1001 201 990 q 521 1011 340 1011 q 821 944 821 1011 q 747 885 821 901 q 610 864 697 874 q 369 819 475 849 q 336 601 369 725 l 344 601 m 543 1090 q 461 1135 506 1090 q 417 1212 417 1179 q 445 1278 417 1244 q 502 1311 474 1311 q 568 1246 531 1311 q 606 1156 606 1181 q 585 1110 606 1131 q 543 1090 564 1090 z "},"ė":{"ha":631,"x_min":21,"x_max":643,"o":"m 643 474 q 551 351 643 406 q 361 297 458 297 q 201 311 264 297 q 189 236 189 274 q 201 183 189 199 q 264 167 214 167 q 442 186 368 167 q 519 206 517 206 q 576 168 576 206 q 487 65 576 114 q 280 17 397 17 q 92 90 163 17 q 21 265 21 164 q 80 475 21 365 q 228 659 139 585 q 405 733 317 733 q 568 647 493 733 q 643 474 643 560 m 482 496 q 453 536 482 510 q 398 563 424 563 q 332 526 372 563 q 256 431 292 489 q 292 429 268 429 q 482 496 482 429 m 419 763 q 338 807 382 763 q 293 884 293 851 q 322 950 293 917 q 378 983 350 983 q 444 918 407 983 q 482 828 482 853 q 461 783 482 803 q 419 763 440 763 z "},"Ę":{"ha":765,"x_min":35,"x_max":821,"o":"m 651 31 l 703 35 q 745 15 725 35 q 765 -26 765 -6 q 554 -106 765 -106 q 469 -79 506 -106 q 432 -17 432 -53 q 458 68 432 18 q 201 28 331 28 q 86 76 138 28 q 35 188 35 124 q 106 513 35 253 q 182 904 178 772 q 181 921 181 908 q 186 951 181 940 q 271 1001 201 990 q 521 1011 340 1011 q 821 944 821 1011 q 747 885 821 901 q 610 864 697 874 q 369 819 475 849 q 336 601 369 725 l 344 601 q 503 609 418 601 q 608 617 588 617 q 640 607 628 617 q 651 583 651 597 q 536 486 651 522 q 290 444 421 450 q 236 232 236 276 q 260 208 236 208 q 586 250 418 208 q 651 265 643 265 q 664 263 658 265 q 708 241 688 260 q 729 201 729 222 q 710 154 729 179 q 669 111 692 129 q 608 46 608 67 q 651 31 608 31 z "},"ę":{"ha":631,"x_min":21,"x_max":643,"o":"m 522 -25 l 574 -21 q 615 -41 594 -21 q 636 -82 636 -61 q 425 -161 636 -161 q 340 -135 376 -161 q 303 -74 303 -108 q 333 19 303 -39 q 293 17 306 17 q 92 90 163 17 q 21 265 21 164 q 80 475 21 365 q 228 659 139 585 q 405 733 317 733 q 568 647 493 733 q 643 474 643 560 q 551 351 643 406 q 361 297 458 297 q 201 311 264 297 q 189 236 189 274 q 201 183 189 199 q 276 167 214 167 q 393 176 339 167 q 476 194 447 185 q 531 207 510 207 q 576 188 553 207 q 600 143 600 168 q 569 86 600 118 q 509 28 539 54 q 479 -11 479 3 q 522 -25 479 -25 m 482 496 q 453 536 482 510 q 398 563 424 563 q 332 526 372 563 q 256 431 292 489 q 292 429 268 429 q 482 496 482 429 z "},"Ě":{"ha":765,"x_min":35,"x_max":821,"o":"m 344 601 q 503 609 418 601 q 608 617 588 617 q 640 607 628 617 q 651 583 651 597 q 536 486 651 522 q 290 444 421 450 q 236 232 236 276 q 260 208 236 208 q 586 250 418 208 q 651 265 643 265 q 678 228 678 265 q 604 131 678 178 q 419 56 531 83 q 201 28 308 28 q 86 76 138 28 q 35 188 35 124 q 106 513 35 253 q 182 904 178 772 q 181 921 181 908 q 186 951 181 940 q 271 1001 201 990 q 521 1011 340 1011 q 821 944 821 1011 q 747 885 821 901 q 610 864 697 874 q 369 819 475 849 q 336 601 369 725 l 344 601 m 496 1086 q 376 1173 464 1086 q 288 1311 288 1260 q 305 1365 288 1343 q 350 1386 322 1386 q 399 1370 378 1386 q 451 1317 419 1354 q 514 1256 483 1281 q 694 1339 629 1339 q 746 1290 746 1339 q 724 1247 746 1267 q 688 1218 701 1228 q 652 1192 675 1208 q 615 1166 629 1176 q 581 1138 601 1156 q 547 1111 560 1121 q 496 1086 518 1086 z "},"ě":{"ha":631,"x_min":21,"x_max":643,"o":"m 643 474 q 551 351 643 406 q 361 297 458 297 q 201 311 264 297 q 189 236 189 274 q 201 183 189 199 q 264 167 214 167 q 442 186 368 167 q 519 206 517 206 q 576 168 576 206 q 487 65 576 114 q 280 17 397 17 q 92 90 163 17 q 21 265 21 164 q 80 475 21 365 q 228 659 139 585 q 405 733 317 733 q 568 647 493 733 q 643 474 643 560 m 482 496 q 453 536 482 510 q 398 563 424 563 q 332 526 372 563 q 256 431 292 489 q 292 429 268 429 q 482 496 482 429 m 372 758 q 252 845 340 758 q 164 983 164 932 q 181 1037 164 1015 q 226 1058 199 1058 q 275 1042 254 1058 q 328 990 296 1026 q 390 928 360 953 q 571 1011 506 1011 q 622 963 622 1011 q 600 919 622 939 q 565 890 578 900 q 528 865 551 881 q 492 838 506 849 q 457 810 478 828 q 425 783 436 793 q 372 758 394 758 z "},"Ğ":{"ha":829,"x_min":29,"x_max":950,"o":"m 796 1229 q 813 1242 796 1229 q 856 1279 829 1254 q 904 1304 882 1304 q 938 1292 926 1304 q 950 1260 950 1279 q 869 1131 950 1196 q 698 1067 788 1067 q 548 1126 608 1067 q 488 1247 488 1186 q 520 1335 488 1307 q 583 1364 553 1364 q 631 1283 611 1364 q 662 1229 639 1254 q 724 1204 685 1204 q 796 1229 763 1204 m 385 472 q 385 487 385 472 q 451 519 385 501 q 596 538 518 538 q 715 475 674 538 q 756 336 756 413 q 691 73 756 260 q 579 -114 626 -114 q 547 -102 560 -114 q 533 -72 533 -90 q 589 214 533 28 q 447 79 524 131 q 288 28 369 28 q 118 99 207 28 q 29 254 29 169 q 118 587 29 404 q 343 899 207 769 q 600 1028 479 1028 q 687 963 642 1028 q 732 843 732 897 q 714 818 732 818 q 688 824 711 818 q 629 829 664 829 q 439 734 536 829 q 281 500 342 639 q 219 239 219 361 q 267 203 219 203 q 427 261 332 203 q 574 392 522 319 q 499 390 543 390 q 420 417 456 390 q 385 472 385 443 z "},"ğ":{"ha":654,"x_min":-47,"x_max":747,"o":"m 593 929 q 610 942 593 929 q 653 979 626 954 q 701 1004 679 1004 q 735 992 724 1004 q 747 960 747 979 q 666 831 747 896 q 495 767 585 767 q 345 826 406 767 q 285 947 285 886 q 317 1035 285 1007 q 381 1064 350 1064 q 428 983 408 1064 q 459 929 436 954 q 521 904 482 904 q 593 929 560 904 m 568 433 q 589 376 589 410 q 561 294 589 343 q 500 88 526 211 q 448 -110 474 -36 q 392 -237 422 -185 q 311 -325 363 -290 q 193 -360 260 -360 q 26 -299 100 -360 q -47 -194 -47 -237 q -24 -115 -47 -150 q 20 -79 0 -79 q 59 -101 40 -79 q 94 -149 78 -124 q 136 -197 110 -175 q 194 -219 163 -219 q 253 -178 226 -219 q 294 -87 279 -136 q 336 75 328 28 q 183 17 242 17 q 68 81 124 17 q 13 203 13 146 q 44 348 13 261 q 124 522 75 435 q 249 671 174 608 q 401 733 325 733 q 489 708 453 733 q 542 639 525 682 q 571 469 571 564 q 568 433 571 456 m 183 210 q 199 192 183 192 q 329 265 239 192 q 450 411 419 339 l 450 438 q 433 547 450 528 q 411 557 425 557 q 264 417 344 557 q 183 210 183 276 z "},"Ģ":{"ha":829,"x_min":29,"x_max":756,"o":"m 385 472 q 385 487 385 472 q 451 519 385 501 q 596 538 518 538 q 715 475 674 538 q 756 336 756 413 q 691 73 756 260 q 579 -114 626 -114 q 547 -102 560 -114 q 533 -72 533 -90 q 589 214 533 28 q 447 79 524 131 q 288 28 369 28 q 118 99 207 28 q 29 254 29 169 q 118 587 29 404 q 343 899 207 769 q 600 1028 479 1028 q 687 963 642 1028 q 732 843 732 897 q 714 818 732 818 q 688 824 711 818 q 629 829 664 829 q 439 734 536 829 q 281 500 342 639 q 219 239 219 361 q 267 203 219 203 q 427 261 332 203 q 574 392 522 319 q 499 390 543 390 q 420 417 456 390 q 385 472 385 443 m 299 -18 q 394 -58 353 -18 q 435 -139 435 -97 q 359 -283 435 -211 q 203 -356 283 -356 q 154 -312 154 -356 q 208 -242 154 -285 q 281 -171 263 -199 q 218 -156 243 -176 q 193 -108 193 -136 q 231 -49 193 -81 q 299 -18 269 -18 z "},"ģ":{"ha":654,"x_min":-47,"x_max":603,"o":"m 568 433 q 589 375 589 410 q 557 283 589 340 q 515 137 538 233 q 470 -37 492 40 q 415 -192 449 -114 q 193 -360 344 -360 q 26 -299 100 -360 q -47 -194 -47 -237 q -24 -115 -47 -150 q 20 -79 0 -79 q 59 -101 40 -79 q 94 -149 78 -124 q 136 -197 110 -175 q 190 -219 163 -219 q 238 -201 218 -219 q 276 -131 257 -183 q 336 74 303 -62 q 182 17 240 17 q 68 81 124 17 q 13 203 13 146 q 44 348 13 261 q 124 522 75 435 q 249 671 174 608 q 401 733 325 733 q 571 469 571 733 q 568 433 571 456 m 183 210 q 200 192 183 192 q 328 261 239 192 q 450 404 418 331 q 449 438 449 414 q 448 478 449 463 q 444 514 447 493 q 411 557 438 557 q 264 417 344 557 q 183 210 183 276 m 458 767 q 363 806 404 767 q 322 888 322 846 q 398 1032 322 960 q 554 1104 474 1104 q 603 1061 603 1104 q 549 990 603 1033 q 476 919 494 947 q 540 901 517 919 q 564 856 564 883 q 526 798 564 829 q 458 767 488 767 z "},"Ī":{"ha":429,"x_min":69,"x_max":608,"o":"m 608 1228 q 565 1189 608 1201 q 433 1162 521 1176 q 299 1139 346 1147 q 189 1123 215 1122 q 138 1155 163 1124 q 113 1213 113 1186 q 208 1260 113 1250 q 499 1269 304 1269 q 608 1228 608 1269 m 192 18 q 117 76 164 18 q 69 160 69 133 q 138 547 69 186 q 210 989 207 907 q 253 1035 213 1035 q 342 968 286 1035 q 397 843 397 901 q 359 655 397 818 q 308 427 321 492 q 285 312 294 363 q 269 232 275 261 q 208 28 231 54 q 192 18 200 18 z "},"ī":{"ha":361,"x_min":42,"x_max":538,"o":"m 538 900 q 494 861 538 874 q 363 834 450 849 q 228 811 275 819 q 118 795 144 794 q 67 827 92 796 q 42 885 42 858 q 138 932 42 922 q 428 942 233 942 q 538 900 538 942 m 222 733 q 309 678 271 733 q 347 571 347 622 q 299 381 347 544 q 204 72 251 218 q 133 18 188 18 q 82 41 103 18 q 61 93 61 64 q 69 165 61 122 q 95 278 78 207 q 120 388 113 349 q 138 482 128 426 q 156 574 149 538 q 172 651 163 611 q 222 733 194 733 z "},"Į":{"ha":429,"x_min":-72,"x_max":397,"o":"m 147 -99 l 199 -94 q 240 -115 219 -94 q 261 -156 261 -136 q 50 -235 261 -235 q -35 -208 1 -235 q -72 -149 -72 -182 q -18 -17 -72 -96 q 94 107 36 63 q 69 165 69 143 q 138 547 69 186 q 210 989 207 907 q 253 1035 213 1035 q 342 968 286 1035 q 397 843 397 901 q 359 655 397 818 q 308 426 321 492 q 281 297 294 361 q 262 200 268 232 q 244 126 256 168 q 210 28 225 47 q 167 -14 194 10 q 122 -55 140 -37 q 104 -83 104 -72 q 147 -99 104 -99 z "},"į":{"ha":361,"x_min":-106,"x_max":347,"o":"m 114 -100 l 165 -96 q 207 -116 186 -96 q 228 -157 228 -136 q 17 -236 228 -236 q -69 -210 -32 -236 q -106 -150 -106 -183 q -51 -18 -106 -97 q 61 106 3 61 q 88 249 63 149 q 120 388 113 350 q 138 482 128 426 q 156 574 149 538 q 172 651 163 611 q 222 733 194 733 q 309 678 271 733 q 347 571 347 622 q 299 381 347 544 q 204 72 251 218 q 179 32 197 47 q 138 -12 167 13 q 90 -55 110 -36 q 71 -85 71 -74 q 114 -100 71 -100 z "},"İ":{"ha":429,"x_min":69,"x_max":456,"o":"m 393 1090 q 311 1135 356 1090 q 267 1212 267 1179 q 295 1278 267 1244 q 352 1311 324 1311 q 418 1246 381 1311 q 456 1156 456 1181 q 435 1110 456 1131 q 393 1090 414 1090 m 192 18 q 117 76 164 18 q 69 160 69 133 q 138 547 69 186 q 210 989 207 907 q 253 1035 213 1035 q 342 968 286 1035 q 397 843 397 901 q 359 655 397 818 q 308 427 321 492 q 285 312 294 363 q 269 232 275 261 q 208 28 231 54 q 192 18 200 18 z "},"ı":{"ha":361,"x_min":61,"x_max":347,"o":"m 222 733 q 309 678 271 733 q 347 571 347 622 q 299 381 347 544 q 204 72 251 218 q 133 18 188 18 q 82 41 103 18 q 61 93 61 64 q 69 165 61 122 q 95 278 78 207 q 120 388 113 349 q 138 482 128 426 q 156 574 149 538 q 172 651 163 611 q 222 733 194 733 z "},"Ķ":{"ha":836,"x_min":40,"x_max":797,"o":"m 165 18 l 163 18 q 86 74 132 18 q 40 173 40 131 q 122 553 40 215 q 203 979 203 890 q 243 1035 203 1035 q 324 969 276 1035 q 371 843 371 903 q 335 658 371 807 q 549 912 449 810 q 685 1014 649 1014 q 760 983 722 1014 q 797 928 797 951 q 726 839 797 906 q 551 669 656 772 q 390 478 447 567 q 514 263 390 371 q 614 197 551 231 q 712 138 676 163 q 747 89 747 114 q 647 18 747 18 q 432 99 547 18 q 260 315 317 181 q 215 166 224 213 q 203 104 207 119 q 197 80 200 89 q 192 60 194 71 q 186 42 189 49 q 181 31 183 36 q 165 18 172 18 m 336 -18 q 431 -58 390 -18 q 472 -139 472 -97 q 397 -283 472 -211 q 240 -356 321 -356 q 192 -312 192 -356 q 246 -242 192 -285 q 318 -171 300 -199 q 256 -156 281 -176 q 231 -108 231 -136 q 269 -49 231 -81 q 336 -18 307 -18 z "},"ķ":{"ha":688,"x_min":36,"x_max":725,"o":"m 164 17 q 84 68 132 17 q 36 150 36 119 q 83 315 36 158 q 176 693 129 472 q 222 1079 222 914 q 261 1122 222 1122 q 349 1062 294 1122 q 404 949 404 1001 q 349 660 404 872 q 240 325 294 447 q 290 388 258 349 q 340 453 321 428 q 388 514 360 478 q 436 573 417 550 q 479 624 456 596 q 520 670 503 653 q 556 703 538 688 q 607 733 589 733 q 683 687 642 733 q 725 606 725 640 q 666 542 725 592 q 548 431 607 492 q 489 322 489 369 q 517 228 489 274 q 579 160 546 183 q 641 112 613 136 q 669 71 669 88 q 596 17 669 17 q 364 164 508 17 l 331 197 q 164 17 206 17 m 372 -10 q 467 -49 426 -10 q 508 -131 508 -89 q 433 -276 508 -204 q 276 -347 357 -347 q 228 -304 228 -347 q 283 -234 228 -276 q 354 -162 338 -192 q 290 -144 313 -162 q 267 -99 267 -126 q 305 -41 267 -72 q 372 -10 343 -10 z "},"Ĺ":{"ha":758,"x_min":57,"x_max":793,"o":"m 506 1097 q 495 1097 506 1097 q 467 1117 483 1097 q 451 1165 451 1138 q 468 1217 451 1192 q 519 1272 485 1243 q 578 1323 553 1300 q 617 1356 604 1346 q 644 1379 629 1367 q 668 1397 660 1392 q 704 1408 689 1408 q 765 1370 738 1408 q 793 1301 793 1332 q 788 1258 793 1271 q 766 1232 783 1244 q 733 1211 749 1219 q 678 1184 717 1203 q 617 1153 640 1165 q 569 1125 594 1140 q 506 1097 529 1097 m 303 1056 q 388 1010 338 1056 q 438 915 438 964 q 300 399 438 782 q 253 211 253 264 q 256 203 253 204 q 307 201 258 201 q 441 216 356 201 q 580 244 526 231 q 643 258 633 258 q 678 214 678 258 q 545 73 678 126 q 238 19 413 19 q 113 70 169 19 q 57 182 57 121 q 160 577 57 243 q 263 1010 263 911 q 303 1056 263 1056 z "},"ĺ":{"ha":325,"x_min":35,"x_max":657,"o":"m 229 1122 q 315 1061 263 1122 q 368 944 368 1000 q 351 747 368 889 q 317 519 335 604 q 156 17 201 17 q 80 66 125 17 q 35 147 35 115 q 72 292 35 150 q 148 656 110 433 q 186 1082 186 879 q 229 1122 186 1122 m 370 1083 q 359 1083 370 1083 q 331 1103 347 1083 q 315 1151 315 1124 q 332 1203 315 1178 q 383 1258 349 1229 q 442 1309 417 1286 q 481 1342 468 1332 q 508 1365 493 1353 q 532 1383 524 1378 q 568 1394 553 1394 q 629 1356 601 1394 q 657 1288 657 1318 q 652 1244 657 1257 q 630 1218 647 1231 q 597 1197 613 1206 q 542 1170 581 1189 q 481 1139 504 1151 q 433 1111 458 1126 q 370 1083 393 1083 z "},"Ļ":{"ha":758,"x_min":57,"x_max":678,"o":"m 303 1056 q 388 1010 338 1056 q 438 915 438 964 q 300 399 438 782 q 253 211 253 264 q 256 203 253 204 q 307 201 258 201 q 441 216 356 201 q 580 244 526 231 q 643 258 633 258 q 678 214 678 258 q 545 73 678 126 q 238 19 413 19 q 113 70 169 19 q 57 182 57 121 q 160 577 57 243 q 263 1010 263 911 q 303 1056 263 1056 m 149 -312 q 203 -242 149 -285 q 275 -171 257 -199 q 213 -156 238 -176 q 188 -108 188 -136 q 226 -49 188 -81 q 293 -18 264 -18 q 388 -58 347 -18 q 429 -139 429 -97 q 353 -283 429 -211 q 197 -356 278 -356 q 149 -312 149 -356 z "},"ļ":{"ha":325,"x_min":-79,"x_max":369,"o":"m 231 1122 q 317 1061 264 1122 q 369 944 369 1000 q 353 747 369 889 q 318 519 336 604 q 157 17 203 17 q 81 66 126 17 q 36 147 36 115 q 74 292 36 150 q 149 656 111 433 q 188 1082 188 879 q 231 1122 188 1122 m 201 -179 q 126 -324 201 -253 q -31 -396 50 -396 q -79 -353 -79 -396 q -24 -283 -79 -325 q 47 -211 31 -240 q -17 -193 6 -211 q -40 -148 -40 -175 q -2 -90 -40 -121 q 65 -58 36 -58 q 160 -98 119 -58 q 201 -179 201 -137 z "},"Ľ":{"ha":758,"x_min":57,"x_max":758,"o":"m 303 1056 q 388 1010 338 1056 q 438 915 438 964 q 300 399 438 782 q 253 211 253 264 q 256 203 253 204 q 307 201 258 201 q 441 216 356 201 q 580 244 526 231 q 643 258 633 258 q 678 214 678 258 q 545 73 678 126 q 238 19 413 19 q 113 70 169 19 q 57 182 57 121 q 160 577 57 243 q 263 1010 263 911 q 303 1056 263 1056 m 478 756 q 533 826 478 783 q 604 897 588 868 q 540 915 563 897 q 517 960 517 933 q 555 1019 517 988 q 622 1050 593 1050 q 717 1010 676 1050 q 758 929 758 971 q 683 784 758 856 q 526 713 607 713 q 478 756 478 713 z "},"ľ":{"ha":696,"x_min":36,"x_max":671,"o":"m 231 1122 q 317 1061 264 1122 q 369 944 369 1000 q 353 747 369 889 q 318 519 336 604 q 157 17 203 17 q 81 66 126 17 q 36 147 36 115 q 74 292 36 150 q 149 656 111 433 q 188 1082 188 879 q 231 1122 188 1122 m 671 981 q 595 835 671 907 q 439 764 519 764 q 390 807 390 764 q 445 877 390 835 q 517 949 500 919 q 452 967 475 949 q 429 1012 429 985 q 467 1070 429 1039 q 535 1101 506 1101 q 630 1062 589 1101 q 671 981 671 1022 z "},"Ł":{"ha":758,"x_min":0,"x_max":678,"o":"m 643 258 q 678 214 678 258 q 545 73 678 126 q 238 19 413 19 q 113 70 169 19 q 57 181 57 121 q 128 472 57 242 q 85 467 89 467 q 26 496 53 467 q 0 546 0 525 q 174 624 0 583 q 263 1010 263 917 q 303 1056 263 1056 q 388 1010 338 1056 q 438 915 438 964 q 388 660 438 822 q 494 671 474 671 q 556 642 556 671 q 509 590 556 613 q 346 529 463 567 q 296 385 339 506 q 253 211 253 264 q 256 203 253 204 q 307 201 258 201 q 441 216 356 201 q 580 244 526 231 q 643 258 633 258 z "},"ł":{"ha":532,"x_min":64,"x_max":568,"o":"m 238 17 q 162 66 207 17 q 117 147 117 115 q 128 197 117 156 q 199 486 179 394 q 149 475 163 475 q 90 504 117 475 q 64 554 64 533 q 226 632 64 593 q 268 1082 268 875 q 311 1122 268 1122 q 397 1061 344 1122 q 450 947 450 1000 q 424 668 450 857 q 507 676 486 676 q 568 647 568 676 q 530 601 568 622 q 406 553 492 581 l 399 519 q 238 17 283 17 z "},"Ń":{"ha":876,"x_min":44,"x_max":867,"o":"m 566 1097 q 555 1097 566 1097 q 527 1117 543 1097 q 511 1165 511 1138 q 528 1217 511 1192 q 578 1272 544 1243 q 638 1323 613 1300 q 676 1356 664 1346 q 704 1379 689 1367 q 728 1397 719 1392 q 764 1408 749 1408 q 825 1370 797 1408 q 853 1301 853 1332 q 848 1258 853 1271 q 826 1232 843 1244 q 792 1211 808 1219 q 738 1184 776 1203 q 677 1153 700 1165 q 631 1125 654 1140 q 566 1097 589 1097 m 728 1042 q 817 1000 768 1042 q 867 932 867 958 q 826 628 867 844 q 721 215 785 413 q 606 18 657 18 q 551 41 585 18 q 507 95 518 64 q 464 225 496 126 q 325 600 390 451 q 299 482 315 558 q 274 362 283 406 q 250 256 264 318 q 226 158 236 194 q 203 86 215 122 q 161 18 181 18 q 89 69 133 18 q 44 156 44 119 q 124 543 44 193 q 211 982 204 893 q 243 1035 215 1035 q 303 1007 267 1035 q 367 940 340 979 q 465 682 394 900 q 578 369 536 464 q 678 856 632 531 q 701 1013 696 985 q 728 1042 707 1042 z "},"ń":{"ha":767,"x_min":21,"x_max":726,"o":"m 544 733 q 672 669 617 733 q 726 531 726 604 q 688 284 726 413 q 605 86 650 156 q 513 17 560 17 q 467 82 467 17 q 513 283 467 132 q 547 463 547 408 q 533 517 547 517 q 498 499 515 517 q 469 467 481 481 q 444 431 458 453 q 419 392 429 410 q 392 348 408 375 q 367 303 376 321 q 342 258 357 286 q 139 17 213 17 q 65 67 110 17 q 21 142 21 118 q 41 208 21 157 q 70 285 61 258 q 85 343 79 313 q 96 409 92 374 q 102 464 100 444 q 107 525 104 483 q 128 725 119 706 q 149 744 138 744 q 250 701 201 744 q 299 621 299 657 q 254 374 299 535 q 419 633 344 532 q 544 733 493 733 m 498 797 q 486 789 498 797 q 460 775 474 781 q 429 769 447 769 q 395 790 411 769 q 379 837 379 810 q 396 890 379 864 q 447 944 413 915 q 506 995 481 972 q 544 1028 532 1018 q 572 1051 557 1039 q 596 1069 588 1064 q 632 1081 617 1081 q 693 1042 665 1081 q 721 974 721 1004 q 716 930 721 943 q 694 904 711 917 q 660 883 676 892 q 606 856 644 875 q 545 825 568 838 q 498 797 522 813 z "},"Ņ":{"ha":876,"x_min":44,"x_max":867,"o":"m 728 1042 q 817 1000 768 1042 q 867 932 867 958 q 826 628 867 844 q 721 215 785 413 q 606 18 657 18 q 551 41 585 18 q 507 95 518 64 q 464 225 496 126 q 325 600 390 451 q 299 482 315 558 q 274 362 283 406 q 250 256 264 318 q 226 158 236 194 q 203 86 215 122 q 161 18 181 18 q 89 69 133 18 q 44 156 44 119 q 124 543 44 193 q 211 982 204 893 q 243 1035 215 1035 q 303 1007 267 1035 q 367 940 340 979 q 465 682 394 900 q 578 369 536 464 q 678 856 632 531 q 701 1013 696 985 q 728 1042 707 1042 m 188 -312 q 242 -242 188 -285 q 314 -171 296 -199 q 251 -156 276 -176 q 226 -108 226 -136 q 265 -49 226 -81 q 332 -18 303 -18 q 427 -58 386 -18 q 468 -139 468 -97 q 392 -283 468 -211 q 236 -356 317 -356 q 188 -312 188 -356 z "},"ņ":{"ha":767,"x_min":22,"x_max":728,"o":"m 546 733 q 673 669 618 733 q 728 531 728 604 q 690 284 728 413 q 606 86 651 156 q 515 17 561 17 q 468 82 468 17 q 514 283 468 132 q 549 463 549 408 q 535 517 549 517 q 499 499 517 517 q 471 467 482 481 q 445 431 460 453 q 420 392 431 410 q 394 348 410 375 q 368 303 378 321 q 343 258 358 286 q 140 17 214 17 q 67 67 111 17 q 22 142 22 118 q 42 208 22 157 q 72 285 63 258 q 87 343 81 313 q 97 409 93 374 q 103 464 101 444 q 108 525 106 483 q 130 725 121 706 q 150 744 139 744 q 251 701 203 744 q 300 621 300 657 q 256 374 300 535 q 420 633 346 532 q 546 733 494 733 m 311 -10 q 406 -49 365 -10 q 447 -131 447 -89 q 372 -276 447 -204 q 215 -347 296 -347 q 167 -304 167 -347 q 222 -234 167 -276 q 293 -162 276 -192 q 228 -144 251 -162 q 206 -99 206 -126 q 244 -41 206 -72 q 311 -10 282 -10 z "},"Ň":{"ha":876,"x_min":44,"x_max":867,"o":"m 749 1339 q 800 1290 800 1339 q 778 1247 800 1267 q 742 1218 756 1228 q 706 1192 729 1208 q 669 1166 683 1176 q 635 1138 656 1156 q 603 1111 614 1121 q 550 1086 572 1086 q 430 1173 518 1086 q 342 1311 342 1260 q 359 1365 342 1343 q 404 1386 376 1386 q 453 1370 432 1386 q 506 1317 474 1354 q 568 1256 538 1281 q 749 1339 683 1339 m 728 1042 q 817 1000 768 1042 q 867 932 867 958 q 826 628 867 844 q 721 215 785 413 q 606 18 657 18 q 551 41 585 18 q 507 95 518 64 q 464 225 496 126 q 325 600 390 451 q 299 482 315 558 q 274 362 283 406 q 250 256 264 318 q 226 158 236 194 q 203 86 215 122 q 161 18 181 18 q 89 69 133 18 q 44 156 44 119 q 124 543 44 193 q 211 982 204 893 q 243 1035 215 1035 q 303 1007 267 1035 q 367 940 340 979 q 465 682 394 900 q 578 369 536 464 q 678 856 632 531 q 701 1013 696 985 q 728 1042 707 1042 z "},"ň":{"ha":767,"x_min":21,"x_max":726,"o":"m 544 733 q 672 669 617 733 q 726 531 726 604 q 688 284 726 413 q 605 86 650 156 q 513 17 560 17 q 467 82 467 17 q 513 283 467 132 q 547 463 547 408 q 533 517 547 517 q 498 499 515 517 q 469 467 481 481 q 444 431 458 453 q 419 392 429 410 q 392 348 408 375 q 367 303 376 321 q 342 258 357 286 q 139 17 213 17 q 65 67 110 17 q 21 142 21 118 q 41 208 21 157 q 70 285 61 258 q 85 343 79 313 q 96 409 92 374 q 102 464 100 444 q 107 525 104 483 q 128 725 119 706 q 149 744 138 744 q 250 701 201 744 q 299 621 299 657 q 254 374 299 535 q 419 633 344 532 q 544 733 493 733 m 418 758 q 298 845 386 758 q 210 983 210 932 q 227 1037 210 1015 q 272 1058 244 1058 q 321 1042 300 1058 q 374 990 342 1026 q 436 928 406 953 q 617 1011 551 1011 q 668 963 668 1011 q 646 919 668 939 q 610 890 624 900 q 574 865 597 881 q 538 838 551 849 q 503 810 524 828 q 469 783 482 793 q 418 758 440 758 z "},"Ō":{"ha":860,"x_min":44,"x_max":914,"o":"m 914 1228 q 870 1189 914 1201 q 739 1162 826 1176 q 604 1139 651 1147 q 494 1123 521 1122 q 443 1155 468 1124 q 418 1213 418 1186 q 514 1260 418 1250 q 804 1269 610 1269 q 914 1228 914 1269 m 446 258 q 486 293 446 258 q 586 438 526 329 q 646 647 646 547 q 621 801 646 747 q 551 856 596 856 q 435 776 507 856 q 306 567 364 696 q 249 319 249 438 q 265 223 249 260 q 307 186 282 186 q 446 258 365 186 m 308 18 q 125 119 206 18 q 44 319 44 219 q 93 581 44 447 q 215 813 142 715 q 375 974 288 911 q 536 1038 463 1038 q 757 923 671 1038 q 843 665 843 808 q 771 376 843 522 q 572 124 699 229 q 308 18 444 18 z "},"ō":{"ha":628,"x_min":28,"x_max":682,"o":"m 231 158 q 361 293 306 192 q 417 483 417 394 q 392 606 417 572 q 273 460 332 571 q 214 265 214 349 q 231 158 214 181 m 28 250 q 135 579 28 424 q 349 735 243 735 q 526 660 454 735 q 599 481 599 586 q 549 268 599 376 q 408 88 499 160 q 215 17 318 17 q 83 85 139 17 q 28 250 28 153 m 682 900 q 638 861 682 874 q 507 834 594 849 q 372 811 419 819 q 263 795 289 794 q 211 827 236 796 q 186 885 186 858 q 282 932 186 922 q 572 942 378 942 q 682 900 682 942 z "},"Ő":{"ha":860,"x_min":44,"x_max":975,"o":"m 889 1410 q 951 1380 926 1410 q 975 1319 975 1350 q 972 1274 975 1288 q 957 1246 968 1260 q 938 1225 946 1232 q 909 1201 931 1218 q 879 1176 888 1183 q 858 1158 871 1169 q 839 1141 844 1146 q 822 1127 833 1136 q 805 1114 811 1118 q 789 1106 799 1110 q 756 1096 772 1096 q 728 1115 739 1096 q 718 1156 718 1133 q 769 1282 718 1201 q 790 1315 778 1296 q 807 1342 801 1333 q 821 1364 813 1351 q 834 1382 829 1376 q 846 1394 839 1388 q 858 1403 853 1401 q 889 1410 878 1410 m 516 1276 q 532 1319 516 1276 q 573 1394 549 1363 q 632 1426 597 1426 q 692 1393 667 1426 q 718 1329 718 1360 q 711 1281 718 1299 q 698 1254 704 1263 q 669 1222 692 1246 q 620 1166 647 1197 q 570 1115 593 1135 q 526 1094 547 1094 q 494 1113 506 1094 q 483 1161 483 1132 q 516 1276 483 1190 m 446 258 q 486 293 446 258 q 586 438 526 329 q 646 647 646 547 q 621 801 646 747 q 551 856 596 856 q 435 776 507 856 q 306 567 364 696 q 249 319 249 438 q 265 223 249 260 q 307 186 282 186 q 446 258 365 186 m 308 18 q 125 119 206 18 q 44 319 44 219 q 93 581 44 447 q 215 813 142 715 q 375 974 288 911 q 536 1038 463 1038 q 757 923 671 1038 q 843 665 843 808 q 771 376 843 522 q 572 124 699 229 q 308 18 444 18 z "},"ő":{"ha":628,"x_min":28,"x_max":743,"o":"m 231 158 q 361 293 306 192 q 417 483 417 394 q 392 606 417 572 q 273 460 332 571 q 214 265 214 349 q 231 158 214 181 m 28 250 q 135 579 28 424 q 349 735 243 735 q 526 660 454 735 q 599 481 599 586 q 549 268 599 376 q 408 88 499 160 q 215 17 318 17 q 83 85 139 17 q 28 250 28 153 m 657 1082 q 719 1052 694 1082 q 743 991 743 1022 q 740 946 743 960 q 725 918 736 932 q 706 897 714 904 q 677 873 699 890 q 647 849 656 856 q 626 830 639 842 q 607 813 613 818 q 590 799 601 808 q 573 786 579 790 q 558 778 567 782 q 524 768 540 768 q 497 787 507 768 q 486 828 486 806 q 538 954 486 874 q 558 987 546 968 q 575 1015 569 1006 q 589 1036 581 1024 q 602 1054 597 1049 q 614 1067 607 1060 q 628 1075 621 1074 q 657 1082 646 1082 m 284 949 q 300 992 284 949 q 341 1067 317 1035 q 400 1099 365 1099 q 460 1065 435 1099 q 486 1001 486 1032 q 479 953 486 971 q 466 926 472 935 q 438 894 460 918 q 388 838 415 869 q 338 787 361 807 q 294 767 315 767 q 263 785 274 767 q 251 833 251 804 q 284 949 251 863 z "},"Œ":{"ha":1319,"x_min":44,"x_max":1336,"o":"m 860 601 q 1018 609 933 601 q 1123 617 1103 617 q 1155 607 1143 617 q 1167 583 1167 597 q 1051 486 1167 522 q 806 444 936 450 q 751 232 751 276 q 775 208 751 208 q 1100 250 933 208 q 1167 265 1158 265 q 1193 228 1193 265 q 1119 131 1193 178 q 935 56 1046 83 q 717 28 824 28 q 631 53 672 28 q 567 119 589 79 q 308 18 443 18 q 125 119 206 18 q 44 319 44 219 q 93 581 44 447 q 215 813 142 715 q 375 974 288 911 q 536 1038 463 1038 q 714 969 638 1038 q 808 1003 739 996 q 1036 1011 878 1011 q 1336 944 1336 1011 q 1261 885 1336 901 q 1125 864 1213 874 q 885 819 990 849 q 851 601 885 725 l 860 601 m 646 640 q 621 801 646 747 q 551 856 596 856 q 435 776 507 856 q 306 567 364 696 q 249 319 249 438 q 265 223 249 260 q 307 186 282 186 q 483 296 381 186 q 626 532 585 406 q 646 640 646 603 z "},"œ":{"ha":1258,"x_min":28,"x_max":1003,"o":"m 842 496 q 813 536 842 510 q 757 563 783 563 q 690 526 731 563 q 614 431 650 489 q 651 429 626 429 q 842 496 842 429 m 231 158 q 361 288 306 194 q 417 476 417 381 q 392 606 417 572 q 273 460 332 571 q 214 265 214 349 q 231 158 214 181 m 553 628 q 757 733 661 733 q 928 647 853 733 q 1003 474 1003 560 q 910 351 1003 406 q 719 297 818 297 q 564 310 619 297 q 549 238 549 278 q 561 183 549 199 q 624 167 574 167 q 802 186 728 167 q 879 206 876 206 q 936 168 936 206 q 847 65 936 114 q 653 17 757 17 q 433 110 508 17 q 215 17 331 17 q 83 85 139 17 q 28 250 28 153 q 135 579 28 424 q 351 735 243 735 q 553 628 476 735 z "},"Ŕ":{"ha":799,"x_min":31,"x_max":797,"o":"m 789 793 q 742 641 789 714 q 641 527 696 568 q 540 453 586 486 q 493 410 493 419 q 515 347 493 376 q 578 277 538 317 q 647 210 618 238 q 695 165 676 183 q 733 128 714 147 q 769 68 769 92 q 690 11 769 11 q 463 124 582 11 q 294 358 344 236 q 264 268 272 292 q 239 193 256 244 q 213 117 222 142 q 193 64 204 92 q 153 11 172 11 q 76 65 121 11 q 31 151 31 118 q 61 275 31 185 q 171 779 157 551 q 124 838 144 800 q 103 900 103 875 q 210 988 103 942 q 459 1033 318 1033 q 694 967 600 1033 q 789 793 789 900 m 575 779 q 461 838 575 838 q 332 807 407 838 q 367 710 367 754 q 344 532 367 629 q 401 572 360 543 q 466 617 443 600 q 518 663 489 635 q 575 779 575 717 m 574 1124 q 562 1116 574 1124 q 537 1103 550 1108 q 506 1097 524 1097 q 472 1117 488 1097 q 456 1165 456 1138 q 472 1217 456 1192 q 523 1272 489 1243 q 583 1323 557 1300 q 621 1356 608 1346 q 649 1379 633 1367 q 672 1397 664 1392 q 708 1408 693 1408 q 769 1370 742 1408 q 797 1301 797 1332 q 792 1258 797 1271 q 770 1232 788 1244 q 737 1211 753 1219 q 683 1184 721 1203 q 622 1153 644 1165 q 574 1124 599 1140 z "},"ŕ":{"ha":453,"x_min":36,"x_max":611,"o":"m 522 1081 q 583 1042 556 1081 q 611 974 611 1004 q 606 930 611 943 q 584 904 601 917 q 551 883 567 892 q 497 856 535 875 q 435 825 458 838 q 389 797 413 813 q 324 769 347 769 q 285 790 301 769 q 269 837 269 810 q 286 890 269 864 q 337 944 303 915 q 397 995 371 972 q 435 1028 422 1018 q 463 1051 447 1039 q 486 1069 478 1064 q 522 1081 507 1081 m 111 499 l 103 656 q 151 733 103 733 q 206 713 179 733 q 247 647 233 692 q 351 715 294 689 q 450 740 407 740 q 551 692 551 740 q 542 655 551 667 q 528 638 533 643 q 512 623 524 632 q 494 610 500 614 q 449 581 463 589 q 342 487 386 542 q 275 335 297 432 q 202 97 238 175 q 123 18 167 18 q 58 60 79 18 q 36 138 36 101 q 63 249 36 175 q 101 376 90 322 q 111 499 111 429 z "},"Ŗ":{"ha":799,"x_min":31,"x_max":789,"o":"m 769 68 q 690 11 769 11 q 463 124 582 11 q 294 358 344 236 q 264 268 272 292 q 239 193 256 244 q 213 117 222 142 q 193 64 204 92 q 153 11 172 11 q 76 65 121 11 q 31 151 31 118 q 61 275 31 185 q 171 779 157 551 q 124 838 144 800 q 103 900 103 875 q 210 988 103 942 q 459 1033 318 1033 q 694 967 600 1033 q 789 793 789 900 q 742 641 789 714 q 641 527 696 568 q 540 453 586 486 q 493 410 493 419 q 515 347 493 376 q 578 277 538 317 q 647 210 618 238 q 695 165 676 183 q 733 128 714 147 q 769 68 769 92 m 575 779 q 461 838 575 838 q 332 807 407 838 q 367 710 367 754 q 344 532 367 629 q 401 572 360 543 q 466 617 443 600 q 518 663 489 635 q 575 779 575 717 m 346 -18 q 441 -58 400 -18 q 482 -139 482 -97 q 406 -283 482 -211 q 250 -356 331 -356 q 201 -312 201 -356 q 256 -242 201 -285 q 328 -171 310 -199 q 265 -156 290 -176 q 240 -108 240 -136 q 278 -49 240 -81 q 346 -18 317 -18 z "},"ŗ":{"ha":453,"x_min":-51,"x_max":551,"o":"m 111 499 l 103 656 q 151 733 103 733 q 206 713 179 733 q 247 647 233 692 q 351 715 294 689 q 450 740 407 740 q 551 692 551 740 q 542 655 551 667 q 528 638 533 643 q 512 623 524 632 q 494 610 500 614 q 449 581 463 589 q 342 487 386 542 q 275 335 297 432 q 202 97 238 175 q 123 18 167 18 q 58 60 79 18 q 36 138 36 101 q 63 249 36 175 q 101 376 90 322 q 111 499 111 429 m 93 -10 q 188 -49 147 -10 q 229 -131 229 -89 q 153 -276 229 -204 q -3 -347 78 -347 q -51 -304 -51 -347 q 3 -234 -51 -276 q 75 -162 58 -192 q 10 -144 33 -162 q -12 -99 -12 -126 q 26 -41 -12 -72 q 93 -10 64 -10 z "},"Ř":{"ha":799,"x_min":31,"x_max":789,"o":"m 769 68 q 690 11 769 11 q 463 124 582 11 q 294 358 344 236 q 264 268 272 292 q 239 193 256 244 q 213 117 222 142 q 193 64 204 92 q 153 11 172 11 q 76 65 121 11 q 31 151 31 118 q 61 275 31 185 q 171 779 157 551 q 124 838 144 800 q 103 900 103 875 q 210 988 103 942 q 459 1033 318 1033 q 694 967 600 1033 q 789 793 789 900 q 742 641 789 714 q 641 527 696 568 q 540 453 586 486 q 493 410 493 419 q 515 347 493 376 q 578 277 538 317 q 647 210 618 238 q 695 165 676 183 q 733 128 714 147 q 769 68 769 92 m 575 779 q 461 838 575 838 q 332 807 407 838 q 367 710 367 754 q 344 532 367 629 q 401 572 360 543 q 466 617 443 600 q 518 663 489 635 q 575 779 575 717 m 494 1086 q 374 1173 463 1086 q 286 1311 286 1260 q 303 1365 286 1343 q 349 1386 321 1386 q 397 1370 376 1386 q 450 1317 418 1354 q 513 1256 482 1281 q 693 1339 628 1339 q 744 1290 744 1339 q 722 1247 744 1267 q 687 1218 700 1228 q 651 1192 674 1208 q 614 1166 628 1176 q 579 1138 600 1156 q 547 1111 558 1121 q 494 1086 517 1086 z "},"ř":{"ha":453,"x_min":36,"x_max":558,"o":"m 111 499 l 103 656 q 151 733 103 733 q 206 713 179 733 q 247 647 233 692 q 351 715 294 689 q 450 740 407 740 q 551 692 551 740 q 542 655 551 667 q 528 638 533 643 q 512 623 524 632 q 494 610 500 614 q 449 581 463 589 q 342 487 386 542 q 275 335 297 432 q 202 97 238 175 q 123 18 167 18 q 58 60 79 18 q 36 138 36 101 q 63 249 36 175 q 101 376 90 322 q 111 499 111 429 m 308 758 q 188 845 276 758 q 100 983 100 932 q 117 1037 100 1015 q 163 1058 135 1058 q 211 1042 190 1058 q 264 990 232 1026 q 326 928 296 953 q 507 1011 442 1011 q 558 963 558 1011 q 536 919 558 939 q 501 890 514 900 q 465 865 488 881 q 428 838 442 849 q 393 810 414 828 q 361 783 372 793 q 308 758 331 758 z "},"Ś":{"ha":749,"x_min":3,"x_max":879,"o":"m 592 1097 q 581 1097 592 1097 q 553 1117 569 1097 q 538 1165 538 1138 q 554 1217 538 1192 q 605 1272 571 1243 q 665 1323 639 1300 q 703 1356 690 1346 q 731 1379 715 1367 q 754 1397 746 1392 q 790 1408 775 1408 q 851 1370 824 1408 q 879 1301 879 1332 q 874 1258 879 1271 q 852 1232 869 1244 q 819 1211 835 1219 q 765 1184 803 1203 q 703 1153 726 1165 q 656 1125 681 1140 q 592 1097 615 1097 m 693 306 q 581 103 693 188 q 324 18 468 18 q 91 90 179 18 q 3 238 3 161 q 46 314 3 314 q 115 281 79 314 q 197 214 151 247 q 299 181 242 181 q 428 228 356 181 q 500 307 500 275 q 422 414 500 339 q 265 569 343 489 q 186 692 186 649 q 202 788 186 736 q 242 858 218 839 q 435 985 317 932 q 644 1039 554 1039 q 732 994 697 1039 q 767 900 767 949 q 735 869 767 881 q 645 844 704 857 q 525 808 586 832 q 383 719 383 756 q 432 659 383 703 q 538 567 481 615 q 644 447 596 519 q 693 306 693 374 z "},"ś":{"ha":649,"x_min":15,"x_max":686,"o":"m 478 732 q 582 669 531 732 q 633 557 633 607 q 604 524 633 524 q 556 537 588 524 q 491 550 524 550 q 395 528 458 550 q 332 469 332 506 q 369 429 332 456 q 451 375 407 403 q 533 298 496 347 q 571 191 571 249 q 487 75 571 133 q 290 17 403 17 q 96 68 176 17 q 15 174 15 119 q 60 228 15 228 q 103 214 78 228 q 276 174 172 174 q 379 201 379 174 q 340 263 379 229 q 253 326 300 297 q 167 398 207 356 q 128 481 128 440 q 264 644 128 556 q 478 732 400 732 m 399 769 q 388 769 399 769 q 360 790 376 769 q 344 837 344 810 q 361 890 344 864 q 412 944 378 915 q 472 995 446 972 q 510 1028 497 1018 q 538 1051 522 1039 q 561 1069 553 1064 q 597 1081 582 1081 q 658 1042 631 1081 q 686 974 686 1004 q 681 930 686 943 q 659 904 676 917 q 626 883 642 892 q 572 856 610 875 q 510 825 533 838 q 464 797 488 813 q 399 769 422 769 z "},"Ş":{"ha":749,"x_min":3,"x_max":767,"o":"m 525 809 q 494 798 525 809 q 424 763 464 786 q 383 722 383 740 q 432 659 383 703 q 538 567 481 615 q 644 447 596 519 q 693 306 693 374 q 590 110 693 193 q 343 19 488 28 q 308 -49 329 -15 q 394 -81 349 -54 q 440 -137 440 -107 q 349 -246 439 -197 q 149 -294 258 -294 q 79 -276 108 -294 q 50 -240 50 -258 q 83 -213 50 -222 q 176 -194 117 -204 q 274 -164 235 -183 q 231 -147 261 -154 q 180 -133 201 -140 q 158 -115 158 -126 q 217 29 158 -94 q 61 116 119 54 q 3 246 3 178 q 46 314 3 314 q 115 281 79 314 q 197 214 151 247 q 299 181 242 181 q 428 228 356 181 q 500 307 500 275 q 422 414 500 339 q 265 569 343 489 q 186 692 186 649 q 202 788 186 736 q 242 858 218 839 q 435 985 317 932 q 644 1039 554 1039 q 732 994 697 1039 q 767 900 767 949 q 735 869 767 881 q 645 844 704 857 q 525 809 586 832 z "},"ş":{"ha":649,"x_min":15,"x_max":633,"o":"m 478 732 q 582 669 531 732 q 633 557 633 607 q 604 524 633 524 q 556 537 588 524 q 491 550 524 550 q 395 528 458 550 q 332 469 332 506 q 369 429 332 456 q 451 375 407 403 q 533 298 496 347 q 571 192 571 249 q 492 79 571 136 q 308 17 414 22 q 279 -39 300 -6 q 365 -71 319 -44 q 411 -128 411 -97 q 319 -236 410 -187 q 119 -285 229 -285 q 50 -267 79 -285 q 21 -231 21 -249 q 54 -203 21 -212 q 147 -184 88 -194 q 244 -154 206 -174 q 202 -137 232 -144 q 151 -124 172 -131 q 129 -106 129 -117 q 183 31 129 -81 q 62 92 108 51 q 15 169 15 133 q 60 228 15 228 q 103 214 78 228 q 276 174 172 174 q 379 201 379 174 q 340 263 379 229 q 253 326 300 297 q 167 398 207 356 q 128 481 128 440 q 264 644 128 556 q 478 732 400 732 z "},"Š":{"ha":749,"x_min":3,"x_max":826,"o":"m 775 1339 q 826 1290 826 1339 q 804 1247 826 1267 q 769 1218 782 1228 q 733 1192 756 1208 q 696 1166 710 1176 q 661 1138 682 1156 q 628 1111 640 1121 q 576 1086 599 1086 q 456 1173 544 1086 q 368 1311 368 1260 q 385 1365 368 1343 q 431 1386 403 1386 q 479 1370 458 1386 q 532 1317 500 1354 q 594 1256 564 1281 q 775 1339 710 1339 m 693 306 q 581 103 693 188 q 324 18 468 18 q 91 90 179 18 q 3 238 3 161 q 46 314 3 314 q 115 281 79 314 q 197 214 151 247 q 299 181 242 181 q 428 228 356 181 q 500 307 500 275 q 422 414 500 339 q 265 569 343 489 q 186 692 186 649 q 202 788 186 736 q 242 858 218 839 q 435 985 317 932 q 644 1039 554 1039 q 732 994 697 1039 q 767 900 767 949 q 735 869 767 881 q 645 844 704 857 q 525 808 586 832 q 383 719 383 756 q 432 659 383 703 q 538 567 481 615 q 644 447 596 519 q 693 306 693 374 z "},"š":{"ha":649,"x_min":15,"x_max":633,"o":"m 478 732 q 582 669 531 732 q 633 557 633 607 q 604 524 633 524 q 556 537 588 524 q 491 550 524 550 q 395 528 458 550 q 332 469 332 506 q 369 429 332 456 q 451 375 407 403 q 533 298 496 347 q 571 191 571 249 q 487 75 571 133 q 290 17 403 17 q 96 68 176 17 q 15 174 15 119 q 60 228 15 228 q 103 214 78 228 q 276 174 172 174 q 379 201 379 174 q 340 263 379 229 q 253 326 300 297 q 167 398 207 356 q 128 481 128 440 q 264 644 128 556 q 478 732 400 732 m 582 1011 q 633 963 633 1011 q 611 919 633 939 q 576 890 589 900 q 540 865 563 881 q 503 838 517 849 q 468 810 489 828 q 436 783 447 793 q 383 758 406 758 q 263 845 351 758 q 175 983 175 932 q 192 1037 175 1015 q 238 1058 210 1058 q 286 1042 265 1058 q 339 990 307 1026 q 401 928 371 953 q 582 1011 517 1011 z "},"Ţ":{"ha":701,"x_min":49,"x_max":867,"o":"m 340 838 q 176 829 190 829 q 110 870 143 829 q 76 956 76 911 q 472 1024 76 1024 q 771 982 675 1024 q 867 881 867 940 q 846 847 867 863 q 793 831 825 831 q 676 835 761 831 q 522 840 592 839 q 528 801 528 824 q 512 714 528 779 q 467 533 496 649 q 402 251 438 417 q 356 57 367 86 q 307 -49 344 14 q 393 -81 347 -54 q 439 -137 439 -107 q 347 -246 438 -197 q 147 -294 257 -294 q 78 -276 107 -294 q 49 -240 49 -258 q 82 -213 49 -222 q 174 -194 115 -204 q 272 -164 233 -183 q 230 -147 260 -154 q 178 -133 200 -140 q 157 -115 157 -126 q 193 -16 157 -92 q 234 72 229 60 q 249 89 239 83 q 213 168 213 138 q 269 441 213 199 q 340 838 326 683 z "},"ţ":{"ha":506,"x_min":-89,"x_max":640,"o":"m 394 568 q 362 463 383 531 q 309 294 340 396 q 278 187 278 193 q 301 181 278 181 q 410 212 324 181 q 511 243 496 243 q 546 196 546 243 q 453 83 546 149 q 258 17 360 17 q 206 32 236 17 q 169 -39 196 6 q 256 -71 210 -44 q 301 -128 301 -97 q 210 -236 300 -187 q 10 -285 119 -285 q -60 -267 -31 -285 q -89 -231 -89 -249 q -56 -203 -89 -212 q 37 -184 -22 -194 q 135 -154 96 -174 q 92 -137 122 -144 q 41 -124 63 -131 q 19 -106 19 -117 q 56 -6 19 -82 q 97 82 92 69 q 117 101 101 94 q 92 164 92 136 q 105 240 92 192 q 147 381 118 289 q 192 524 176 474 q 110 508 138 508 q 51 547 82 508 q 21 619 21 585 q 236 694 21 664 q 263 918 263 824 q 304 960 263 960 q 397 916 340 960 q 453 830 453 872 q 435 711 453 788 q 536 714 501 714 q 640 667 640 714 q 580 615 640 636 q 394 568 519 593 z "},"Ť":{"ha":701,"x_min":25,"x_max":815,"o":"m 289 838 q 125 829 139 829 q 58 870 92 829 q 25 956 25 911 q 421 1024 25 1024 q 719 982 624 1024 q 815 881 815 940 q 794 847 815 863 q 742 831 774 831 q 625 835 710 831 q 471 840 540 839 q 476 801 476 824 q 460 714 476 779 q 415 533 444 649 q 351 252 386 417 q 303 56 317 88 q 278 25 290 25 q 205 78 249 25 q 161 165 161 132 q 218 441 161 199 q 289 838 275 683 m 425 1086 q 305 1173 393 1086 q 217 1311 217 1260 q 234 1365 217 1343 q 279 1386 251 1386 q 328 1370 307 1386 q 381 1317 349 1354 q 443 1256 413 1281 q 624 1339 558 1339 q 675 1290 675 1339 q 653 1247 675 1267 q 617 1218 631 1228 q 581 1192 604 1208 q 544 1166 558 1176 q 510 1138 531 1156 q 478 1111 489 1121 q 425 1086 447 1086 z "},"ť":{"ha":725,"x_min":-25,"x_max":749,"o":"m 613 1096 q 708 1056 667 1096 q 749 975 749 1017 q 673 830 749 901 q 517 758 597 758 q 468 801 468 758 q 523 872 468 829 q 594 943 578 914 q 530 961 553 943 q 507 1006 507 979 q 545 1065 507 1033 q 613 1096 583 1096 m 490 714 q 594 667 594 714 q 534 615 594 636 q 349 568 474 593 q 317 464 338 531 q 232 189 232 200 q 255 181 232 181 q 364 212 278 181 q 465 243 450 243 q 500 196 500 243 q 407 83 500 149 q 213 17 314 17 q 107 65 168 17 q 46 164 46 114 q 88 340 46 206 q 146 524 131 474 q 64 508 92 508 q 6 547 36 508 q -25 619 -25 585 q 190 694 -25 664 q 217 918 217 824 q 258 960 217 960 q 351 916 294 960 q 407 830 407 872 q 389 711 407 788 q 490 714 456 714 z "},"Ū":{"ha":803,"x_min":64,"x_max":800,"o":"m 699 1228 q 655 1189 699 1201 q 524 1162 611 1176 q 389 1139 436 1147 q 279 1123 306 1122 q 228 1155 253 1124 q 203 1213 203 1186 q 299 1260 203 1250 q 589 1269 394 1269 q 699 1228 699 1269 m 217 1038 q 305 988 251 1038 q 358 890 358 938 q 308 642 358 842 q 258 366 258 442 q 277 250 258 290 q 330 210 296 210 q 410 259 364 210 q 498 387 456 308 q 569 574 540 465 q 597 777 597 683 q 588 928 597 871 q 579 996 579 985 q 615 1039 579 1039 q 730 964 660 1039 q 800 785 800 889 q 764 548 800 682 q 667 294 728 414 q 512 96 606 175 q 320 17 418 17 q 143 119 222 17 q 64 329 64 222 q 92 577 64 436 q 147 831 119 718 q 175 990 175 943 q 217 1038 175 1038 z "},"ū":{"ha":665,"x_min":10,"x_max":683,"o":"m 518 699 q 563 733 529 733 q 640 676 596 733 q 683 578 683 619 q 619 374 683 563 q 521 75 556 185 q 456 17 501 17 q 409 37 428 17 q 390 100 390 57 q 407 222 390 143 q 179 17 264 17 q 72 74 135 17 q 10 186 10 132 q 85 526 10 319 q 228 733 161 733 q 299 697 268 733 q 331 618 331 661 q 296 525 331 601 q 190 201 190 290 q 197 193 190 193 q 276 259 218 193 q 405 448 333 325 q 518 699 476 571 m 182 885 q 278 932 182 922 q 568 942 374 942 q 678 900 678 942 q 634 861 678 874 q 503 834 590 849 q 368 811 415 819 q 258 795 285 794 q 207 827 232 796 q 182 885 182 858 z "},"Ů":{"ha":803,"x_min":64,"x_max":800,"o":"m 485 1192 q 493 1192 485 1192 q 512 1209 500 1192 q 524 1249 524 1226 q 514 1284 524 1271 q 489 1297 504 1297 q 462 1281 474 1297 q 450 1242 450 1264 q 460 1206 450 1219 q 485 1192 471 1192 m 478 1092 q 447 1092 478 1092 q 377 1133 417 1092 q 338 1240 338 1175 q 387 1354 338 1306 q 497 1403 436 1403 q 598 1361 558 1403 q 638 1254 638 1319 q 588 1140 638 1189 q 478 1092 539 1092 m 217 1038 q 305 988 251 1038 q 358 890 358 938 q 308 642 358 842 q 258 366 258 442 q 277 250 258 290 q 330 210 296 210 q 410 259 364 210 q 498 387 456 308 q 569 574 540 465 q 597 777 597 683 q 588 928 597 871 q 579 996 579 985 q 615 1039 579 1039 q 730 964 660 1039 q 800 785 800 889 q 764 548 800 682 q 667 294 728 414 q 512 96 606 175 q 320 17 418 17 q 143 119 222 17 q 64 329 64 222 q 92 577 64 436 q 147 831 119 718 q 175 990 175 943 q 217 1038 175 1038 z "},"ů":{"ha":665,"x_min":10,"x_max":683,"o":"m 518 699 q 563 733 529 733 q 640 676 596 733 q 683 578 683 619 q 619 374 683 563 q 521 75 556 185 q 456 17 501 17 q 409 37 428 17 q 390 100 390 57 q 407 222 390 143 q 179 17 264 17 q 72 74 135 17 q 10 186 10 132 q 85 526 10 319 q 228 733 161 733 q 299 697 268 733 q 331 618 331 661 q 296 525 331 601 q 190 201 190 290 q 197 193 190 193 q 276 259 218 193 q 405 448 333 325 q 518 699 476 571 m 617 926 q 617 894 617 926 q 567 813 617 861 q 457 764 518 764 q 356 806 396 764 q 317 913 317 847 q 366 1026 317 978 q 476 1075 415 1075 q 577 1033 538 1075 q 617 926 617 992 m 493 956 q 488 963 493 956 q 468 969 483 969 q 441 953 453 969 q 429 914 429 936 q 440 878 429 892 q 465 864 450 864 q 491 881 479 864 q 503 921 503 899 q 493 956 503 943 z "},"Ű":{"ha":803,"x_min":64,"x_max":800,"o":"m 674 1410 q 735 1380 711 1410 q 760 1319 760 1350 q 756 1274 760 1288 q 742 1246 753 1260 q 723 1225 731 1232 q 694 1201 715 1218 q 664 1176 672 1183 q 642 1158 656 1169 q 624 1141 629 1146 q 607 1127 618 1136 q 590 1114 596 1118 q 575 1106 583 1110 q 540 1096 557 1096 q 513 1115 524 1096 q 503 1156 503 1133 q 554 1282 503 1201 q 574 1315 563 1296 q 592 1342 586 1333 q 606 1364 597 1351 q 619 1382 614 1376 q 631 1394 624 1388 q 644 1403 638 1401 q 674 1410 663 1410 m 301 1276 q 317 1319 301 1276 q 358 1394 333 1363 q 417 1426 382 1426 q 477 1393 451 1426 q 503 1329 503 1360 q 496 1281 503 1299 q 483 1254 489 1263 q 454 1222 476 1246 q 405 1166 432 1197 q 355 1115 378 1135 q 311 1094 332 1094 q 279 1113 290 1094 q 268 1161 268 1132 q 301 1276 268 1190 m 217 1038 q 305 988 251 1038 q 358 890 358 938 q 308 642 358 842 q 258 366 258 442 q 277 250 258 290 q 330 210 296 210 q 410 259 364 210 q 498 387 456 308 q 569 574 540 465 q 597 777 597 683 q 588 928 597 871 q 579 996 579 985 q 615 1039 579 1039 q 730 964 660 1039 q 800 785 800 889 q 764 548 800 682 q 667 294 728 414 q 512 96 606 175 q 320 17 418 17 q 143 119 222 17 q 64 329 64 222 q 92 577 64 436 q 147 831 119 718 q 175 990 175 943 q 217 1038 175 1038 z "},"ű":{"ha":665,"x_min":10,"x_max":739,"o":"m 653 1082 q 715 1052 690 1082 q 739 991 739 1022 q 735 946 739 960 q 721 918 732 932 q 702 897 710 904 q 673 873 694 890 q 643 849 651 856 q 622 830 635 842 q 603 813 608 818 q 586 799 597 808 q 569 786 575 790 q 553 778 563 782 q 519 768 536 768 q 492 787 503 768 q 482 828 482 806 q 533 954 482 874 q 553 987 542 968 q 571 1015 565 1006 q 585 1036 576 1024 q 598 1054 593 1049 q 610 1067 603 1060 q 622 1075 617 1074 q 653 1082 642 1082 m 518 699 q 563 733 529 733 q 640 676 596 733 q 683 578 683 619 q 619 374 683 563 q 521 75 556 185 q 456 17 501 17 q 409 37 428 17 q 390 100 390 57 q 407 222 390 143 q 179 17 264 17 q 72 74 135 17 q 10 186 10 132 q 85 526 10 319 q 228 733 161 733 q 299 697 268 733 q 331 618 331 661 q 296 525 331 601 q 190 201 190 290 q 197 193 190 193 q 276 259 218 193 q 405 448 333 325 q 518 699 476 571 m 334 787 q 323 777 334 787 q 290 767 311 767 q 258 785 269 767 q 247 833 247 804 q 280 949 247 863 q 337 1067 313 1035 q 396 1099 361 1099 q 456 1065 431 1099 q 482 1001 482 1032 q 475 953 482 971 q 462 926 468 935 q 433 894 456 918 q 384 838 411 869 q 334 787 357 807 z "},"Ų":{"ha":754,"x_min":64,"x_max":800,"o":"m 324 -90 l 375 -86 q 417 -107 397 -86 q 438 -147 438 -128 q 226 -226 438 -226 q 141 -200 178 -226 q 104 -138 104 -174 q 134 -48 104 -103 q 208 56 164 7 q 106 176 147 100 q 64 318 64 253 q 147 831 64 493 q 175 990 175 943 q 217 1038 175 1038 q 305 988 251 1038 q 358 890 358 938 q 308 642 358 842 q 258 366 258 442 q 277 250 258 290 q 330 210 296 210 q 410 259 364 210 q 498 387 456 308 q 569 574 540 465 q 597 777 597 683 q 588 928 597 871 q 579 996 579 985 q 615 1039 579 1039 q 730 964 660 1039 q 800 797 800 889 q 749 488 800 653 q 597 188 697 322 q 375 24 496 53 q 336 -14 361 8 q 281 -76 281 -61 q 324 -90 281 -90 z "},"ų":{"ha":665,"x_min":10,"x_max":683,"o":"m 429 -110 l 481 -106 q 523 -126 503 -106 q 543 -167 543 -147 q 332 -246 543 -246 q 247 -219 283 -246 q 210 -160 210 -193 q 270 -19 210 -104 q 390 106 331 67 q 407 222 393 161 q 179 17 264 17 q 72 74 135 17 q 10 186 10 132 q 85 526 10 319 q 228 733 161 733 q 299 697 268 733 q 331 618 331 661 q 296 525 331 601 q 190 201 190 290 q 197 193 190 193 q 276 259 218 193 q 405 448 333 325 q 518 699 476 571 q 563 733 529 733 q 640 676 596 733 q 683 578 683 619 q 619 374 683 563 q 535 118 556 185 q 503 38 514 51 q 439 -35 492 10 q 386 -95 386 -81 q 429 -110 386 -110 z "},"Ÿ":{"ha":779,"x_min":103,"x_max":843,"o":"m 540 1233 q 540 1249 540 1233 q 569 1300 540 1265 q 627 1335 599 1335 q 693 1267 656 1335 q 731 1174 731 1199 q 709 1130 731 1150 q 667 1110 688 1110 q 585 1155 629 1110 q 540 1233 540 1200 m 293 1233 q 293 1249 293 1233 q 322 1300 293 1265 q 380 1335 351 1335 q 446 1267 408 1335 q 483 1174 483 1199 q 462 1130 483 1150 q 419 1110 440 1110 q 338 1155 382 1110 q 293 1233 293 1200 m 419 561 q 508 681 444 561 q 636 919 571 800 q 733 1038 701 1038 q 812 994 781 1038 q 843 892 843 951 q 771 731 843 850 q 588 438 699 613 q 417 140 476 263 q 358 60 399 101 q 281 18 318 18 q 225 107 225 18 q 331 353 225 160 q 354 399 347 383 q 243 476 293 422 q 164 599 193 531 q 103 876 103 742 q 122 999 103 960 q 199 1038 140 1038 q 244 995 229 1038 q 272 874 260 953 q 308 734 285 794 q 365 617 331 674 q 419 561 399 561 z "},"Ź":{"ha":897,"x_min":68,"x_max":849,"o":"m 562 1097 q 550 1097 562 1097 q 523 1117 539 1097 q 507 1165 507 1138 q 524 1217 507 1192 q 574 1272 540 1243 q 634 1323 608 1300 q 672 1356 660 1346 q 700 1379 685 1367 q 724 1397 715 1392 q 760 1408 744 1408 q 821 1370 793 1408 q 849 1301 849 1332 q 844 1258 849 1271 q 822 1232 839 1244 q 788 1211 804 1219 q 734 1184 772 1203 q 673 1153 696 1165 q 625 1125 650 1140 q 562 1097 585 1097 m 665 958 q 746 878 710 943 q 782 763 782 813 q 731 644 782 714 q 608 511 681 575 q 465 390 536 447 q 342 289 393 332 q 292 231 292 246 q 313 210 292 210 q 503 227 381 210 q 685 244 625 244 q 778 196 778 244 q 682 110 778 153 q 462 42 586 67 q 240 18 338 18 q 120 90 172 18 q 68 219 68 163 q 152 366 68 276 q 336 532 236 456 q 520 676 436 608 q 604 764 604 744 q 433 828 604 828 q 334 820 375 828 q 281 813 293 813 q 204 864 243 813 q 165 951 165 915 q 247 1006 165 988 q 360 1015 292 1015 q 665 958 510 1015 z "},"ź":{"ha":638,"x_min":1,"x_max":682,"o":"m 242 193 l 544 204 q 596 191 574 204 q 618 151 618 178 q 494 51 618 86 q 188 15 371 15 q 61 75 121 15 q 1 174 1 135 q 115 301 1 222 q 340 447 228 381 q 453 532 453 514 q 378 547 453 547 q 256 539 303 547 q 179 531 208 531 q 113 578 150 531 q 75 654 75 626 q 145 713 75 693 q 301 733 215 733 q 489 710 388 733 q 577 639 535 697 q 619 549 619 581 q 559 426 619 490 q 426 318 499 361 q 294 240 354 275 q 233 197 233 204 q 242 193 233 193 m 395 769 q 384 769 395 769 q 356 790 372 769 q 340 837 340 810 q 357 890 340 864 q 408 944 374 915 q 467 995 442 972 q 506 1028 493 1018 q 533 1051 518 1039 q 557 1069 549 1064 q 593 1081 578 1081 q 654 1042 626 1081 q 682 974 682 1004 q 677 930 682 943 q 655 904 672 917 q 622 883 638 892 q 567 856 606 875 q 506 825 529 838 q 458 797 483 813 q 395 769 418 769 z "},"Ż":{"ha":897,"x_min":68,"x_max":782,"o":"m 593 1090 q 511 1135 556 1090 q 467 1212 467 1179 q 495 1278 467 1244 q 552 1311 524 1311 q 618 1246 581 1311 q 656 1156 656 1181 q 635 1110 656 1131 q 593 1090 614 1090 m 665 958 q 746 878 710 943 q 782 763 782 813 q 731 644 782 714 q 608 511 681 575 q 465 390 536 447 q 342 289 393 332 q 292 231 292 246 q 313 210 292 210 q 503 227 381 210 q 685 244 625 244 q 778 196 778 244 q 682 110 778 153 q 462 42 586 67 q 240 18 338 18 q 120 90 172 18 q 68 219 68 163 q 152 366 68 276 q 336 532 236 456 q 520 676 436 608 q 604 764 604 744 q 433 828 604 828 q 334 820 375 828 q 281 813 293 813 q 204 864 243 813 q 165 951 165 915 q 247 1006 165 988 q 360 1015 292 1015 q 665 958 510 1015 z "},"ż":{"ha":638,"x_min":1,"x_max":619,"o":"m 426 763 q 344 807 389 763 q 300 884 300 851 q 328 950 300 917 q 385 983 357 983 q 451 918 414 983 q 489 828 489 853 q 468 783 489 803 q 426 763 447 763 m 242 193 l 544 204 q 596 191 574 204 q 618 151 618 178 q 494 51 618 86 q 188 15 371 15 q 61 75 121 15 q 1 174 1 135 q 115 301 1 222 q 340 447 228 381 q 453 532 453 514 q 378 547 453 547 q 256 539 303 547 q 179 531 208 531 q 113 578 150 531 q 75 654 75 626 q 145 713 75 693 q 301 733 215 733 q 489 710 388 733 q 577 639 535 697 q 619 549 619 581 q 559 426 619 490 q 426 318 499 361 q 294 240 354 275 q 233 197 233 204 q 242 193 233 193 z "},"Ž":{"ha":897,"x_min":68,"x_max":796,"o":"m 744 1339 q 796 1290 796 1339 q 774 1247 796 1267 q 738 1218 751 1228 q 702 1192 725 1208 q 665 1166 679 1176 q 631 1138 651 1156 q 597 1111 610 1121 q 546 1086 568 1086 q 426 1173 514 1086 q 338 1311 338 1260 q 355 1365 338 1343 q 400 1386 372 1386 q 449 1370 428 1386 q 501 1317 469 1354 q 564 1256 533 1281 q 744 1339 679 1339 m 665 958 q 746 878 710 943 q 782 763 782 813 q 731 644 782 714 q 608 511 681 575 q 465 390 536 447 q 342 289 393 332 q 292 231 292 246 q 313 210 292 210 q 503 227 381 210 q 685 244 625 244 q 778 196 778 244 q 682 110 778 153 q 462 42 586 67 q 240 18 338 18 q 120 90 172 18 q 68 219 68 163 q 152 366 68 276 q 336 532 236 456 q 520 676 436 608 q 604 764 604 744 q 433 828 604 828 q 334 820 375 828 q 281 813 293 813 q 204 864 243 813 q 165 951 165 915 q 247 1006 165 988 q 360 1015 292 1015 q 665 958 510 1015 z "},"ž":{"ha":638,"x_min":0,"x_max":628,"o":"m 240 193 l 543 204 q 594 191 572 204 q 617 151 617 178 q 493 51 617 86 q 186 15 369 15 q 60 75 119 15 q 0 173 0 135 q 71 269 0 211 q 226 377 142 328 q 381 472 310 426 q 451 532 451 517 q 376 547 451 547 q 254 539 301 547 q 178 531 207 531 q 111 578 149 531 q 74 654 74 626 q 144 713 74 693 q 300 733 214 733 q 488 710 386 733 q 576 639 533 697 q 618 549 618 581 q 558 426 618 490 q 425 318 497 361 q 292 240 353 275 q 232 197 232 204 q 240 193 232 193 m 576 1011 q 628 963 628 1011 q 606 919 628 939 q 570 890 583 900 q 534 865 557 881 q 497 838 511 849 q 463 810 483 828 q 431 783 442 793 q 378 758 400 758 q 258 845 346 758 q 169 983 169 932 q 187 1037 169 1015 q 232 1058 204 1058 q 281 1042 260 1058 q 333 990 301 1026 q 396 928 365 953 q 576 1011 511 1011 z "},"ƒ":{"ha":729,"x_min":-72,"x_max":842,"o":"m 668 1099 q 788 1035 733 1099 q 842 883 842 971 q 775 761 842 761 q 722 803 740 761 q 692 888 704 846 q 660 931 681 931 q 521 572 594 931 q 655 576 594 576 q 742 560 715 576 q 769 521 769 544 q 691 447 769 481 q 485 393 613 414 q 332 -110 408 35 q 115 -254 256 -254 q -10 -201 53 -254 q -72 -85 -72 -149 q -46 -44 -72 -44 q -22 -57 -37 -44 q 86 -96 22 -96 q 165 12 128 -96 q 251 347 203 119 q 169 326 186 326 q 98 370 131 326 q 65 460 65 414 q 293 547 65 511 l 308 621 q 439 988 361 876 q 668 1099 517 1099 z "},"Ș":{"ha":749,"x_min":3,"x_max":767,"o":"m 693 306 q 581 103 693 188 q 324 18 468 18 q 91 90 179 18 q 3 238 3 161 q 46 314 3 314 q 115 281 79 314 q 197 214 151 247 q 299 181 242 181 q 428 228 356 181 q 500 307 500 275 q 422 414 500 339 q 265 569 343 489 q 186 692 186 649 q 202 788 186 736 q 242 858 218 839 q 435 985 317 932 q 644 1039 554 1039 q 732 994 697 1039 q 767 900 767 949 q 735 869 767 881 q 645 844 704 857 q 525 808 586 832 q 383 719 383 756 q 432 659 383 703 q 538 567 481 615 q 644 447 596 519 q 693 306 693 374 m 136 -312 q 190 -242 136 -285 q 263 -171 244 -199 q 200 -156 225 -176 q 175 -108 175 -136 q 213 -49 175 -81 q 281 -18 251 -18 q 376 -58 335 -18 q 417 -139 417 -97 q 341 -283 417 -211 q 185 -356 265 -356 q 136 -312 136 -356 z "},"ș":{"ha":649,"x_min":15,"x_max":633,"o":"m 356 -131 q 280 -276 356 -204 q 124 -347 204 -347 q 75 -304 75 -347 q 130 -234 75 -276 q 201 -162 185 -192 q 137 -144 160 -162 q 114 -99 114 -126 q 152 -41 114 -72 q 219 -10 190 -10 q 315 -49 274 -10 q 356 -131 356 -89 m 478 732 q 582 669 531 732 q 633 557 633 607 q 604 524 633 524 q 556 537 588 524 q 491 550 524 550 q 395 528 458 550 q 332 469 332 506 q 369 429 332 456 q 451 375 407 403 q 533 298 496 347 q 571 191 571 249 q 487 75 571 133 q 290 17 403 17 q 96 68 176 17 q 15 174 15 119 q 60 228 15 228 q 103 214 78 228 q 276 174 172 174 q 379 201 379 174 q 340 263 379 229 q 253 326 300 297 q 167 398 207 356 q 128 481 128 440 q 264 644 128 556 q 478 732 400 732 z "},"Ț":{"ha":701,"x_min":25,"x_max":860,"o":"m 333 838 q 169 829 183 829 q 103 870 136 829 q 69 956 69 911 q 465 1024 69 1024 q 764 982 668 1024 q 860 881 860 940 q 839 847 860 863 q 786 831 818 831 q 669 835 754 831 q 515 840 585 839 q 521 801 521 824 q 505 714 521 779 q 460 533 489 649 q 396 252 431 417 q 348 56 361 88 q 322 25 335 25 q 249 78 293 25 q 206 165 206 132 q 263 441 206 199 q 333 838 319 683 m 169 -18 q 265 -58 224 -18 q 306 -139 306 -97 q 230 -283 306 -211 q 74 -356 154 -356 q 25 -312 25 -356 q 79 -242 25 -285 q 151 -171 133 -199 q 89 -156 114 -176 q 64 -108 64 -136 q 102 -49 64 -81 q 169 -18 140 -18 z "},"ț":{"ha":506,"x_min":-25,"x_max":594,"o":"m 349 568 q 316 463 338 531 q 263 294 294 396 q 232 187 232 193 q 255 181 232 181 q 364 212 278 181 q 465 243 450 243 q 500 196 500 243 q 407 83 500 149 q 213 17 314 17 q 107 65 168 17 q 46 164 46 114 q 88 340 46 206 q 146 524 131 474 q 64 508 92 508 q 6 547 36 508 q -25 619 -25 585 q 190 694 -25 664 q 217 918 217 824 q 258 960 217 960 q 351 916 294 960 q 407 830 407 872 q 389 711 407 788 q 490 714 456 714 q 594 667 594 714 q 534 615 594 636 q 349 568 474 593 m 163 -10 q 258 -49 217 -10 q 299 -131 299 -89 q 223 -276 299 -204 q 67 -347 147 -347 q 18 -304 18 -347 q 73 -234 18 -276 q 144 -162 128 -192 q 80 -144 103 -162 q 57 -99 57 -126 q 95 -41 57 -72 q 163 -10 133 -10 z "},"ʼ":{"ha":451,"x_min":97,"x_max":385,"o":"m 219 1225 q 338 1174 292 1225 q 385 1035 385 1122 q 306 840 385 947 q 163 733 228 733 q 97 789 97 733 q 149 885 97 814 q 200 1005 200 957 q 163 1083 200 1053 q 125 1142 125 1114 q 154 1197 125 1169 q 219 1225 183 1225 z "},"ˆ":{"ha":492,"x_min":14,"x_max":478,"o":"m 219 1046 q 227 1050 219 1046 q 247 1058 235 1054 q 270 1063 258 1063 q 296 1047 282 1063 q 330 1001 310 1032 q 364 955 350 969 q 413 906 378 940 q 463 849 449 871 q 478 808 478 826 q 465 777 478 789 q 436 765 451 765 q 342 805 399 765 q 247 893 286 844 q 174 847 208 874 q 118 806 139 819 q 72 792 97 792 q 31 811 47 792 q 14 860 14 831 q 115 985 14 926 q 153 1007 131 993 q 189 1029 175 1021 q 219 1046 203 1038 z "},"ˇ":{"ha":486,"x_min":14,"x_max":472,"o":"m 421 1011 q 472 963 472 1011 q 450 919 472 939 q 415 890 428 900 q 378 865 401 881 q 342 838 356 849 q 307 810 328 828 q 275 783 286 793 q 222 758 244 758 q 102 845 190 758 q 14 983 14 932 q 31 1037 14 1015 q 76 1058 49 1058 q 125 1042 104 1058 q 178 990 146 1026 q 240 928 210 953 q 421 1011 356 1011 z "},"ˉ":{"ha":524,"x_min":14,"x_max":510,"o":"m 466 933 q 488 930 466 933 q 510 900 510 926 q 466 861 510 874 q 335 834 422 849 q 200 811 247 819 q 90 795 117 794 q 39 827 64 796 q 14 885 14 858 q 299 940 14 940 q 466 933 422 940 z "},"˘":{"ha":490,"x_min":14,"x_max":476,"o":"m 158 983 q 188 929 165 954 q 250 904 211 904 q 322 929 289 904 q 382 979 356 954 q 431 1004 408 1004 q 465 992 453 1004 q 476 960 476 979 q 395 831 476 896 q 224 767 314 767 q 74 826 135 767 q 14 947 14 886 q 47 1035 14 1007 q 110 1064 79 1064 q 158 983 138 1064 z "},"˙":{"ha":217,"x_min":14,"x_max":203,"o":"m 140 896 q 58 940 103 896 q 14 1017 14 985 q 42 1083 14 1050 q 99 1117 71 1117 q 165 1051 128 1117 q 203 961 203 986 q 182 916 203 936 q 140 896 161 896 z "},"˚":{"ha":328,"x_min":14,"x_max":314,"o":"m 162 864 q 169 864 162 864 q 188 881 176 864 q 200 921 200 899 q 190 956 200 943 q 165 969 181 969 q 138 953 150 969 q 126 914 126 936 q 137 878 126 892 q 162 864 147 864 m 154 764 q 124 764 154 764 q 53 806 93 764 q 14 913 14 847 q 63 1026 14 978 q 174 1075 113 1075 q 274 1033 235 1075 q 314 926 314 992 q 265 813 314 861 q 154 764 215 764 z "},"˛":{"ha":361,"x_min":14,"x_max":347,"o":"m 233 -110 l 285 -106 q 326 -126 306 -106 q 347 -167 347 -147 q 136 -246 347 -246 q 51 -219 88 -246 q 14 -160 14 -193 q 101 16 14 -90 q 239 122 188 122 q 288 103 264 122 q 311 61 311 83 q 292 14 311 39 q 250 -28 274 -11 q 190 -94 190 -74 q 233 -110 190 -110 z "},"˜":{"ha":575,"x_min":14,"x_max":561,"o":"m 14 842 q 74 972 14 904 q 194 1040 135 1040 q 289 1014 254 1040 q 347 953 324 988 q 383 913 369 919 q 413 950 396 919 q 506 1025 454 1025 q 561 961 561 1025 q 506 828 561 897 q 403 760 451 760 q 308 800 356 760 q 225 906 260 840 q 181 860 200 893 q 142 801 163 826 q 89 775 121 775 q 35 792 57 775 q 14 842 14 810 z "},"˝":{"ha":519,"x_min":14,"x_max":506,"o":"m 419 1215 q 481 1185 457 1215 q 506 1124 506 1156 q 502 1079 506 1093 q 488 1051 499 1065 q 469 1031 476 1038 q 440 1006 461 1024 q 410 982 418 989 q 388 963 401 975 q 369 947 375 951 q 353 933 364 942 q 335 919 342 924 q 319 911 329 915 q 286 901 303 901 q 259 920 269 901 q 249 961 249 939 q 300 1088 249 1007 q 320 1120 308 1101 q 338 1148 332 1139 q 351 1169 343 1157 q 365 1188 360 1182 q 376 1200 369 1193 q 389 1208 383 1207 q 419 1215 408 1215 m 47 1082 q 63 1125 47 1082 q 103 1200 79 1168 q 163 1232 128 1232 q 223 1199 197 1232 q 249 1135 249 1165 q 242 1086 249 1104 q 228 1060 235 1068 q 200 1027 222 1051 q 151 972 178 1003 q 101 920 124 940 q 57 900 78 900 q 25 919 36 900 q 14 967 14 938 q 47 1082 14 996 z "},"π":{"ha":1208,"x_min":142,"x_max":1188,"o":"m 1188 703 q 954 624 1188 631 q 932 558 949 611 q 913 485 915 504 q 906 439 910 467 q 897 328 897 396 q 910 222 897 261 q 942 164 924 183 q 978 131 960 144 q 1024 65 1024 94 q 939 17 1024 17 q 785 100 854 17 q 717 315 717 183 q 765 621 717 515 q 601 615 653 618 q 607 583 607 593 q 566 320 607 456 q 468 101 525 185 q 360 17 411 17 q 274 44 310 17 q 238 110 238 72 q 251 135 238 124 q 283 162 264 147 q 332 230 303 176 q 382 356 361 283 q 424 600 403 428 q 246 583 279 583 q 177 632 213 583 q 142 718 142 681 q 220 764 142 744 q 414 793 299 783 q 825 813 646 813 q 1096 790 1004 813 q 1188 703 1188 767 z "},"ँ":{"ha":0,"x_min":-303,"x_max":364,"o":"m -143 1293 l -147 1263 q 40 1135 -147 1135 q 152 1152 110 1135 q 208 1194 194 1169 q 226 1244 221 1219 q 238 1287 232 1269 q 267 1304 244 1304 q 326 1274 289 1304 q 364 1219 364 1243 q 274 1065 364 1129 q 48 1001 185 1001 q -196 1080 -89 1001 q -303 1300 -303 1158 q -244 1367 -303 1367 q -180 1341 -217 1367 q -143 1293 -143 1315 m -10 1476 q 61 1408 24 1476 q 99 1306 99 1340 q 56 1240 99 1240 q -33 1291 17 1240 q -83 1378 -83 1342 q -60 1445 -83 1414 q -10 1476 -36 1476 z "},"ं":{"ha":0,"x_min":-136,"x_max":46,"o":"m -62 1235 q 8 1167 -29 1235 q 46 1064 46 1099 q 3 999 46 999 q -86 1049 -36 999 q -136 1136 -136 1100 q -112 1203 -136 1172 q -62 1235 -89 1235 z "},"ः":{"ha":325,"x_min":42,"x_max":297,"o":"m 115 282 q 186 214 149 282 q 224 111 224 146 q 181 46 224 46 q 92 97 142 46 q 42 183 42 147 q 65 251 42 219 q 115 282 89 282 m 189 653 q 260 585 222 653 q 297 482 297 517 q 254 417 297 417 q 165 467 215 417 q 115 554 115 518 q 139 622 115 590 q 189 653 163 653 z "},"अ":{"ha":1097,"x_min":21,"x_max":1343,"o":"m 850 919 l 1249 919 q 1319 899 1296 919 q 1343 847 1343 878 q 1319 792 1343 815 q 1249 769 1294 769 l 1117 769 q 1078 617 1111 738 q 1036 453 1046 497 q 1015 356 1026 410 q 995 268 1003 301 q 976 188 988 235 q 956 113 965 142 q 936 56 947 83 q 896 -1 917 -1 q 828 29 868 -1 q 788 85 788 60 q 850 450 788 174 q 644 399 768 421 q 679 296 679 356 q 581 101 679 174 q 337 29 483 29 q 106 109 190 29 q 21 283 21 189 q 43 361 21 333 q 97 389 65 389 q 149 369 128 389 q 169 322 169 349 q 214 217 169 258 q 331 176 258 176 q 456 206 403 176 q 510 289 510 236 q 483 364 510 342 q 385 335 425 335 q 304 374 346 335 q 263 440 263 413 q 404 499 263 499 q 453 496 419 499 q 575 693 575 599 q 564 730 575 721 q 517 739 553 739 q 433 717 481 739 q 386 672 386 696 q 371 621 386 631 q 325 604 342 604 q 273 643 308 604 q 238 707 238 682 q 333 840 238 781 q 525 899 429 899 q 669 847 621 899 q 718 710 718 796 q 664 538 718 625 q 889 642 797 581 q 915 769 906 728 l 850 769 q 778 791 803 769 q 754 847 754 813 q 850 919 754 919 z "},"आ":{"ha":1497,"x_min":21,"x_max":1747,"o":"m 850 919 l 1653 919 q 1724 899 1700 919 q 1747 847 1747 878 q 1723 792 1747 815 q 1653 769 1699 769 l 1496 769 q 1454 532 1488 679 q 1403 304 1421 385 q 1376 181 1386 224 q 1353 89 1367 139 q 1300 -4 1329 -4 q 1235 38 1275 -4 q 1196 122 1196 81 q 1206 181 1196 135 q 1256 425 1249 368 q 1307 769 1271 535 l 1117 769 q 1078 617 1111 738 q 1036 453 1046 497 q 1015 356 1026 410 q 995 268 1003 301 q 976 188 988 235 q 956 113 965 142 q 936 56 947 83 q 896 -1 917 -1 q 828 29 868 -1 q 788 85 788 60 q 850 450 788 174 q 644 399 768 421 q 679 296 679 356 q 581 101 679 174 q 337 29 483 29 q 106 109 190 29 q 21 283 21 189 q 43 361 21 333 q 97 389 65 389 q 149 369 128 389 q 169 322 169 349 q 214 217 169 258 q 331 176 258 176 q 456 206 403 176 q 510 289 510 236 q 483 364 510 342 q 385 335 425 335 q 304 374 346 335 q 263 440 263 413 q 404 499 263 499 q 453 496 419 499 q 575 693 575 599 q 564 730 575 721 q 517 739 553 739 q 433 717 481 739 q 386 672 386 696 q 371 621 386 631 q 325 604 342 604 q 273 643 308 604 q 238 707 238 682 q 333 840 238 781 q 525 899 429 899 q 669 847 621 899 q 718 710 718 796 q 664 538 718 625 q 889 642 797 581 q 915 769 906 728 l 850 769 q 778 791 803 769 q 754 847 754 813 q 850 919 754 919 z "},"इ":{"ha":763,"x_min":56,"x_max":983,"o":"m 214 919 l 889 919 q 960 899 936 919 q 983 847 983 878 q 959 792 983 815 q 889 769 935 769 l 713 769 q 717 736 717 756 q 681 515 717 579 q 650 494 672 494 q 565 522 628 494 q 460 549 503 549 q 417 528 417 549 q 447 492 417 511 q 519 449 476 472 q 603 394 561 425 q 676 314 646 364 q 706 201 706 264 q 531 36 706 76 q 584 -78 551 -12 q 633 -182 617 -144 q 649 -243 649 -219 q 606 -282 649 -282 q 403 19 529 -282 l 371 19 q 144 80 233 19 q 56 235 56 140 q 106 345 56 304 q 235 386 156 386 q 369 329 314 386 q 472 171 425 272 q 542 231 542 189 q 493 306 542 265 q 386 378 444 346 q 279 463 328 411 q 231 571 231 515 q 275 658 231 626 q 403 690 319 690 q 567 660 486 690 q 565 767 565 694 l 565 769 l 214 769 q 142 791 167 769 q 118 847 118 813 q 214 919 118 919 m 199 224 q 340 163 199 168 q 238 257 290 257 q 199 224 199 257 z "},"ई":{"ha":781,"x_min":56,"x_max":983,"o":"m 889 919 q 960 899 936 919 q 983 847 983 878 q 959 792 983 815 q 889 769 935 769 l 713 769 q 717 736 717 756 q 681 515 717 579 q 650 494 672 494 q 565 522 628 494 q 460 549 503 549 q 417 528 417 549 q 447 492 417 511 q 519 449 476 472 q 603 394 561 425 q 676 314 646 364 q 706 201 706 264 q 531 36 706 76 q 584 -78 551 -12 q 633 -182 617 -144 q 649 -243 649 -219 q 606 -282 649 -282 q 403 19 529 -282 l 371 19 q 144 80 233 19 q 56 235 56 140 q 106 345 56 304 q 235 386 156 386 q 369 329 314 386 q 472 171 425 272 q 542 231 542 189 q 493 306 542 265 q 386 378 444 346 q 279 463 328 411 q 231 571 231 515 q 275 658 231 626 q 403 690 319 690 q 567 660 486 690 q 565 767 565 694 l 565 769 l 214 769 q 142 791 167 769 q 118 847 118 813 q 214 919 118 919 l 489 919 q 418 1085 418 986 q 493 1256 418 1185 q 676 1328 568 1328 q 849 1271 785 1328 q 914 1142 914 1214 q 906 1121 914 1129 q 886 1113 899 1113 q 850 1128 874 1113 q 715 1175 783 1175 q 611 1142 646 1175 q 576 1065 576 1110 q 600 994 576 1019 q 665 947 624 968 q 715 919 707 926 l 889 919 m 199 224 q 340 163 199 168 q 238 257 290 257 q 199 224 199 257 z "},"उ":{"ha":871,"x_min":76,"x_max":1115,"o":"m 186 919 l 1021 919 q 1092 899 1068 919 q 1115 847 1115 878 q 1091 792 1115 815 q 1021 769 1067 769 l 844 769 q 856 688 856 729 q 735 453 856 564 q 817 310 817 397 q 713 108 817 188 q 444 29 608 29 q 178 107 281 29 q 76 299 76 185 q 113 419 76 371 q 203 467 149 467 q 257 421 257 467 q 242 362 257 400 q 226 293 226 324 q 286 208 226 239 q 440 176 346 176 q 591 215 535 176 q 647 302 647 253 q 615 374 647 351 q 501 349 554 349 q 428 388 469 349 q 386 454 386 426 q 528 513 386 513 q 568 511 554 513 q 666 591 628 546 q 704 681 704 636 q 658 726 704 726 q 611 712 629 726 q 593 664 593 697 q 578 621 593 631 q 532 604 549 604 q 480 643 515 604 q 444 711 444 682 q 457 769 444 740 l 186 769 q 115 791 139 769 q 90 847 90 813 q 186 919 90 919 z "},"ऊ":{"ha":1275,"x_min":76,"x_max":1397,"o":"m 186 919 l 1303 919 q 1374 899 1350 919 q 1397 847 1397 878 q 1373 792 1397 815 q 1303 769 1349 769 l 844 769 q 856 685 856 729 q 839 600 856 642 q 978 628 911 628 q 1156 557 1085 628 q 1226 389 1226 486 q 1149 146 1226 260 q 983 32 1071 32 q 901 62 936 32 q 865 124 865 92 q 885 138 865 138 q 1020 213 969 138 q 1071 369 1071 289 q 956 482 1071 482 q 881 469 917 482 q 828 445 844 456 q 781 411 813 435 q 817 310 817 365 q 713 108 817 188 q 444 29 608 29 q 178 107 281 29 q 76 299 76 185 q 113 419 76 371 q 203 467 149 467 q 257 421 257 467 q 242 362 257 400 q 226 293 226 324 q 286 208 226 239 q 440 176 346 176 q 591 215 535 176 q 647 302 647 253 q 615 374 647 351 q 501 349 554 349 q 428 388 469 349 q 386 454 386 426 q 528 513 386 513 q 568 511 554 513 q 666 591 628 546 q 704 681 704 636 q 658 726 704 726 q 611 712 629 726 q 593 664 593 697 q 578 621 593 631 q 532 604 549 604 q 480 643 515 604 q 444 711 444 682 q 457 769 444 740 l 186 769 q 115 791 139 769 q 90 847 90 813 q 186 919 90 919 z "},"ऋ":{"ha":1218,"x_min":-15,"x_max":1440,"o":"m 81 919 l 1346 919 q 1417 899 1393 919 q 1440 847 1440 878 q 1416 792 1440 815 q 1346 769 1392 769 l 783 769 q 726 468 775 679 q 764 461 744 461 q 819 485 783 461 q 867 536 856 510 q 864 586 864 561 q 877 638 864 611 q 919 664 890 664 q 976 642 947 664 q 1013 600 1004 619 q 1033 555 1022 581 q 1051 518 1044 529 q 1072 495 1057 507 q 1104 483 1088 483 q 1136 493 1121 483 q 1147 508 1140 497 q 1184 529 1160 529 q 1238 495 1208 529 q 1268 431 1268 461 q 1242 378 1268 400 q 1109 274 1168 325 q 1033 203 1050 224 q 1017 169 1017 182 q 1064 144 1017 144 q 1143 157 1111 144 q 1191 182 1175 169 q 1217 194 1207 194 q 1246 134 1246 194 q 1213 54 1246 74 q 1064 17 1150 17 q 890 164 890 17 q 1015 386 890 261 q 957 428 982 403 q 853 344 910 379 q 763 308 796 308 q 696 324 731 308 q 632 51 654 107 q 578 -4 610 -4 q 521 22 546 -4 q 496 97 496 47 q 522 288 496 114 q 336 176 397 214 q 250 122 275 138 q 197 92 225 107 q 115 61 146 61 q 66 81 85 61 q 47 125 47 101 q 58 164 47 149 q 97 199 68 179 q 150 235 125 219 q 229 282 175 250 q 353 357 283 314 q 468 426 422 400 q 299 514 374 464 q 225 604 225 564 q 281 667 225 667 q 351 647 311 667 q 560 542 503 576 l 594 769 l 81 769 q 9 791 33 769 q -15 847 -15 813 q 81 919 -15 919 z "},"ऌ":{"ha":1082,"x_min":32,"x_max":1329,"o":"m 128 919 l 1235 919 q 1306 899 1282 919 q 1329 847 1329 878 q 1305 792 1329 815 q 1235 769 1281 769 l 1065 769 q 1040 701 1058 743 q 1015 639 1021 658 q 1082 503 1082 590 q 1052 392 1082 443 q 980 307 1022 340 q 895 245 938 274 q 823 190 853 217 q 793 139 793 163 q 853 103 793 103 q 935 116 886 103 q 1009 129 983 129 q 1051 115 1035 129 q 1067 74 1067 100 q 1004 -3 1067 25 q 843 -32 942 -32 q 687 11 744 -32 q 629 131 629 54 q 658 224 629 181 q 726 296 686 267 q 808 351 767 325 q 906 474 906 414 q 887 510 906 497 q 831 524 868 524 q 758 498 793 524 q 699 435 722 472 q 656 361 676 399 q 540 274 603 274 q 494 311 500 274 q 497 373 492 336 q 503 424 503 410 q 411 518 503 518 q 302 464 343 518 q 261 316 261 410 q 318 174 261 222 q 382 151 344 151 q 441 133 419 151 q 463 85 463 114 q 351 8 463 8 q 172 95 240 8 q 104 323 104 182 q 185 574 104 464 q 415 683 265 683 q 553 642 510 683 q 608 517 597 600 q 716 635 650 592 q 865 679 782 679 l 874 679 q 894 769 876 725 l 128 769 q 56 791 81 769 q 32 847 32 813 q 128 919 32 919 z "}}}
